<?xml version="1.0" encoding="iso-8859-1"?>
<!-- Generator: Adobe Illustrator 19.0.0, SVG Export Plug-In . SVG Version: 6.00 Build 0)  -->
<svg version="1.1" id="Layer_1" xmlns="http://www.w3.org/2000/svg" xmlns:xlink="http://www.w3.org/1999/xlink" x="0px" y="0px"
	 viewBox="0 0 512 512" style="enable-background:new 0 0 512 512;" xml:space="preserve">
<path style="fill:#C9D1E3;" d="M511.237,277.372l-0.192-1.211c-0.481-3.012-2.475-5.568-5.282-6.766l-75.746-32.348l-0.885-0.381
	c-2.265-0.966-4.829-0.949-7.083,0.043l-0.881,0.39c-2.04,0.901-4.088,1.549-6.088,1.927l-3.665,0.689
	c-3.075,0.578-5.619,2.732-6.695,5.672c-1.076,2.939-0.525,6.227,1.449,8.654l2.352,2.891c1.15,1.413,2.238,2.83,3.237,4.211
	c8.728,12.064,11.783,22.546,9.083,31.15l-0.711,2.269c-0.736,2.347-0.467,4.896,0.746,7.037c1.214,2.141,3.261,3.683,5.655,4.256
	l2.308,0.552c15.387,3.693,29.415,5.566,41.691,5.566c13.767,0,25.429-2.362,34.664-7.017l0.984-0.496
	c2.484-1.25,4.238-3.595,4.737-6.331l0.198-1.077C512.553,289.203,511.976,282.019,511.237,277.372z"/>
<path style="opacity:0.19;fill:#202121;enable-background:new    ;" d="M456.602,309.961l-2.96-0.706
	c-3.072-0.737-5.697-2.714-7.254-5.459c-1.556-2.746-1.903-6.017-0.958-9.029l0.914-2.908c3.462-11.037-0.458-24.483-11.652-39.959
	c-1.281-1.769-2.678-3.587-4.152-5.402l-3.017-3.708c-1.595-1.96-2.461-4.354-2.544-6.801c-1,0.076-1.992,0.309-2.928,0.721
	l-0.881,0.39c-2.04,0.901-4.088,1.549-6.088,1.927l-3.665,0.689c-3.075,0.578-5.619,2.732-6.695,5.672
	c-1.076,2.939-0.525,6.227,1.449,8.654l2.352,2.891c1.15,1.413,2.238,2.83,3.237,4.211c8.728,12.064,11.783,22.546,9.083,31.15
	l-0.711,2.269c-0.736,2.347-0.467,4.896,0.746,7.037c1.214,2.141,3.261,3.683,5.655,4.256l2.308,0.552
	c13.107,3.144,25.216,4.956,36.108,5.43C462.197,311.256,459.423,310.639,456.602,309.961z"/>
<g>
	<path style="fill:#C9D1E3;" d="M373.22,205.399l-56.019-116.21c-1.184-2.455-3.371-4.282-6-5.01l-1.036-0.289
		c-3.139-0.869-6.198-1.948-9.09-3.21l-5.933-2.585c-3.644-1.589-7.891-0.735-10.635,2.143c-2.743,2.875-3.398,7.158-1.639,10.724
		l50.877,103.06c0.55,1.114,1.316,2.112,2.251,2.93l22.458,19.676c1.78,1.558,4.006,2.345,6.24,2.345
		c2.013,0,4.031-0.639,5.73-1.931C374.004,214.319,375.172,209.449,373.22,205.399z"/>
	<path style="fill:#C9D1E3;" d="M425.172,231.318l-6.276-12.806l0,0l-56.507-115.321c-0.001-0.002-0.002-0.004-0.004-0.009
		l-4.191-8.555l-0.007-0.013l0,0l-2.541-5.184c-1.733-3.535-5.582-5.502-9.467-4.843l-1.636,0.28
		c-3.495,0.598-9.012,1.309-15.453,1.309c-1.109,0-2.209-0.024-3.301-0.064l-3.68-0.136c-3.096-0.121-6.054,1.407-7.758,4.009
		c-1.704,2.605-1.919,5.912-0.568,8.715l61.27,127.105l0.141,0.291c0.371,0.762,0.847,1.469,1.417,2.098l0.221,0.243
		c1.909,2.095,7.127,7.405,14.34,11.395c0.135,0.074,0.27,0.143,0.408,0.21l0.216,0.107c0.085,0.041,0.17,0.079,0.254,0.119
		c0.058,0.034,0.116,0.07,0.177,0.104l0.223,0.13c0.155,0.089,0.31,0.174,0.469,0.251c5.649,2.826,11.391,4.259,17.067,4.259
		c1.981,0,3.967-0.177,5.901-0.528l2.889-0.522c2.739-0.494,5.087-2.245,6.342-4.729
		C426.379,236.748,426.396,233.82,425.172,231.318z"/>
</g>
<path style="opacity:0.19;fill:#202121;enable-background:new    ;" d="M425.172,231.318l-6.276-12.806l0,0l-56.507-115.321
	c-0.001-0.002-0.002-0.004-0.004-0.009l-4.191-8.555l-0.007-0.013l0,0l-2.541-5.184c-1.733-3.535-5.582-5.502-9.467-4.843
	l-1.636,0.28c-3.495,0.598-9.012,1.309-15.453,1.309c-1.109,0-2.209-0.024-3.301-0.064l-3.68-0.136
	c-3.096-0.121-6.054,1.407-7.758,4.009c-1.704,2.605-1.919,5.912-0.568,8.715l61.27,127.105l0.141,0.291
	c0.371,0.762,0.847,1.469,1.417,2.098l0.221,0.243c1.909,2.095,7.127,7.405,14.34,11.395c0.135,0.074,0.27,0.143,0.408,0.21
	l0.216,0.107c0.085,0.041,0.17,0.079,0.254,0.119c0.058,0.034,0.116,0.07,0.177,0.104l0.223,0.13
	c0.155,0.089,0.31,0.174,0.469,0.251c5.649,2.826,11.391,4.259,17.067,4.259c1.981,0,3.967-0.177,5.901-0.528l2.889-0.522
	c2.739-0.494,5.087-2.245,6.342-4.729C426.379,236.748,426.396,233.82,425.172,231.318z"/>
<path style="fill:#C9D1E3;" d="M289.445,394.143c-7.201-3.17-19.42-6.318-22.007-7.416l-99.723-42.411
	c1.709-9.764,2.765-21.243-3.223-15.27c-4.552,4.54-9.737,7.773-13.978,9.934c-0.573,0.147-1.135,0.344-1.676,0.608l-0.903,0.437
	c-2.744,1.327-5.564,2.454-8.381,3.349c-3.001,0.956-5.273,3.429-5.968,6.502l-2.242,9.916c-0.953,4.215,1.268,8.504,5.261,10.158
	l86.765,35.943c1.078,0.447,2.232,0.677,3.396,0.677c0.223,0,0.444-0.01,0.665-0.026l1.3-0.098
	c19.449,1.836,86.154,6.546,103.347-13.139L289.445,394.143z"/>
<g>
	<path style="fill:#F04C35;" d="M381.916,439.807c-6.988-24.478-44.848-46.67-62.343-51.212c-4.239-1.101-8.651,1.055-10.384,5.082
		l-2.034,4.727c-4.095,0.49-8.429,0.478-12.225-0.066l-0.159-0.023c-0.421-0.062-0.843-0.092-1.27-0.092h-50.253
		c-0.676-2.141-2.116-4.189-5.017-5.392l-99.928-42.566c-1.262-0.521-1.287-0.532-11.767-2.169
		c-4.942-0.774-13.535-2.116-17.058-2.787c-0.703-0.412-1.464-0.725-2.26-0.931l-0.625-0.16
		c-17.733-4.579-27.243-16.415-31.337-23.065l-0.64-1.039c-1.596-2.588-4.403-4.179-7.442-4.218l-12.457-0.162
		c-0.039,0-0.077,0-0.117,0c-3.686,0-6.993,2.279-8.301,5.735l-0.553,1.46c-6.418,16.982-22.236,59.594-34.881,99.719h0.001
		l-0.032,0.11c-0.576,1.828-1.148,3.653-1.71,5.47L8.329,430.8c-0.128,0.414-0.213,0.835-0.279,1.257l-5.133,17.146l9.857-7.889
		c0.953,0.488,1.989,0.813,3.078,0.929L129.7,454.583c2.175,0.509,23.356,5.981,26.781,26.315l0.453,2.684
		c0.367,2.171,1.532,4.102,3.23,5.455c-0.27,2.063,0.042,4.013,1.115,5.78c0,0,21.045-15.923,50.307,0
		c12.597,6.855,11.233,0.112,5.6-9.785c9.574-6.786,26.927-16.853,47.423-18.508c2.633-0.212,5.947-0.436,9.826-0.698l0.172-0.011
		c18.478-1.241,56.927-3.825,92.798-11.532l2.319-0.496c0.773-0.166,1.519-0.435,2.222-0.797l5.52-2.861
		C381.214,448.182,383.076,443.868,381.916,439.807z"/>
	<polyline style="fill:#F04C35;" points="223.925,387.284 263.122,402.27 237.391,408.782 	"/>
</g>
<g style="opacity:0.19;">
	<path style="fill:#202121;" d="M33.101,440.881l0.515-1.79c0.12-0.418,0.276-0.815,0.451-1.202l2.874-9.601
		c0.066-0.423,0.151-0.842,0.279-1.256l0.795-2.573c0.562-1.816,1.134-3.64,1.71-5.471l0.032-0.11h0.001
		c12.491-39.639,28.075-81.687,34.638-99.075c-1.625-2.397-4.31-3.869-7.221-3.905l-12.457-0.162c-0.039,0-0.077,0-0.117,0
		c-3.686,0-6.993,2.279-8.301,5.735l-0.553,1.46c-6.418,16.982-22.236,59.594-34.881,99.719h0l-0.032,0.11
		c-0.576,1.828-1.148,3.653-1.71,5.47l-0.795,2.573c-0.128,0.414-0.213,0.835-0.279,1.257l-5.133,17.146l9.857-7.889
		c0.953,0.488,1.989,0.813,3.078,0.929l16.357,1.774C32.504,442.979,32.794,441.946,33.101,440.881z"/>
</g>
<path style="fill:#C9D1E3;" d="M452.447,396.937l-0.581-0.971c-4.76-7.956-11.027-13.456-14.348-16.032l-0.589-0.455
	c-1.523-1.182-3.393-1.834-5.321-1.86l-89.642-1.159c-0.038,0-0.076,0-0.114,0c-3.306,0-6.341,1.837-7.871,4.774l-0.631,1.209
	c-1.226,2.355-2.756,4.481-4.557,6.337l-6.129,1.778c-3.366,0.975-5.843,3.843-6.322,7.318c-0.478,3.472,1.133,6.9,4.112,8.751
	l4.915,3.051c0.208,0.128,0.422,0.249,0.639,0.36c17.064,8.729,28.247,16.993,34.915,33.394c1.118,2.753,3.538,4.762,6.447,5.355
	l10.561,2.157c0.587,0.118,1.182,0.177,1.775,0.177c0.785,0,1.568-0.105,2.33-0.31l2.152-0.585
	c37.21-10.114,60.213-24.997,68.369-44.224l0.44-1.039C454.107,402.352,453.901,399.37,452.447,396.937z"/>
<g>
	<path style="opacity:0.19;fill:#202121;enable-background:new    ;" d="M389.634,443.16c-3.402-0.694-6.233-3.045-7.542-6.263
		c-7.798-19.182-20.876-28.846-40.833-39.056c-0.254-0.13-0.504-0.271-0.747-0.423l-5.748-3.57c-2.412-1.497-4.033-3.89-4.632-6.564
		c-0.428,0.516-0.874,1.014-1.339,1.495l-6.129,1.778c-3.366,0.975-5.843,3.843-6.322,7.318c-0.478,3.472,1.133,6.9,4.112,8.751
		l4.915,3.051c0.208,0.128,0.422,0.249,0.639,0.36c17.064,8.729,28.247,16.993,34.915,33.394c1.118,2.753,3.538,4.762,6.447,5.355
		l10.561,2.157c0.587,0.118,1.182,0.177,1.775,0.177c0.785,0,1.568-0.105,2.33-0.31l2.152-0.585
		c5.639-1.532,10.944-3.177,15.927-4.927L389.634,443.16z"/>
</g>
<path style="fill:#C9D1E3;" d="M338.308,380.219c-0.693-2.693-2.609-4.909-5.177-5.981l-23.92-9.99
	c-0.004-0.002-0.008-0.002-0.011-0.005l-11.6-4.845c-0.01-0.004-0.018-0.009-0.026-0.013l-20.397-8.52
	c-0.007-0.002-0.013-0.004-0.018-0.007l-11.612-4.85c-0.003,0-0.007-0.002-0.009-0.004l-20.398-8.52c-0.001,0-0.002,0-0.003-0.002
	l-11.617-4.851c-0.005-0.002-0.011-0.004-0.016-0.007l-20.398-8.522c-0.006-0.002-0.013-0.004-0.019-0.007l-11.611-4.85
	c-0.003,0-0.005-0.002-0.009-0.004l-14.117-5.897c-3.635-1.519-7.838-0.46-10.318,2.603l-1.05,1.296
	c-2.711,3.349-7.212,8.372-13.26,13.287l-2.859,2.321c-2.415,1.964-3.627,5.047-3.193,8.129c0.435,3.083,2.452,5.711,5.316,6.931
	L291.8,403.115l0.297,0.125c0.782,0.332,1.605,0.548,2.449,0.645l0.335,0.038c1.396,0.158,3.646,0.346,6.424,0.346
	c4.148,0,8.15-0.414,11.897-1.234c0.164-0.035,0.327-0.076,0.488-0.119l0.229-0.065c0.066-0.018,0.132-0.038,0.199-0.057
	c0.069-0.013,0.137-0.025,0.207-0.039l0.243-0.05c0.169-0.032,0.336-0.071,0.503-0.116c8.324-2.174,14.974-6.324,19.758-12.34
	l1.829-2.298C338.391,385.779,339,382.914,338.308,380.219z"/>
<path style="opacity:0.19;fill:#202121;enable-background:new    ;" d="M338.308,380.219c-0.693-2.693-2.609-4.909-5.177-5.981
	l-23.92-9.99c-0.004-0.002-0.008-0.002-0.011-0.005l-11.6-4.845c-0.01-0.004-0.018-0.009-0.026-0.013l-20.397-8.52
	c-0.007-0.002-0.013-0.004-0.018-0.007l-11.612-4.85c-0.003,0-0.007-0.002-0.009-0.004l-20.398-8.52c-0.001,0-0.002,0-0.003-0.002
	l-11.617-4.851c-0.005-0.002-0.011-0.004-0.016-0.007l-20.398-8.522c-0.006-0.002-0.013-0.004-0.019-0.007l-11.611-4.85
	c-0.003,0-0.005-0.002-0.009-0.004l-14.117-5.897c-3.635-1.519-7.838-0.46-10.318,2.603l-1.05,1.296
	c-2.711,3.349-7.212,8.372-13.26,13.287l-2.859,2.321c-2.415,1.964-3.627,5.047-3.193,8.129c0.435,3.083,2.452,5.711,5.316,6.931
	L291.8,403.115l0.297,0.125c0.782,0.332,1.605,0.548,2.449,0.645l0.335,0.038c1.396,0.158,3.646,0.346,6.424,0.346
	c4.148,0,8.15-0.414,11.897-1.234c0.164-0.035,0.327-0.076,0.488-0.119l0.229-0.065c0.066-0.018,0.132-0.038,0.199-0.057
	c0.069-0.013,0.137-0.025,0.207-0.039l0.243-0.05c0.169-0.032,0.336-0.071,0.503-0.116c8.324-2.174,14.974-6.324,19.758-12.34
	l1.829-2.298C338.391,385.779,339,382.914,338.308,380.219z"/>
<path style="fill:#E23E2D;" d="M454.293,409.803c-3.487-1.833-7.763-1.149-10.504,1.678l-5.251,5.418
	c-12.487,12.877-34.521,23.141-65.493,30.504c-36.534,8.685-77.044,11.41-98.805,12.873c-3.985,0.266-7.386,0.496-10.076,0.715
	c-19.996,1.614-37.142,10.7-48.004,18.038l-3.236,2.187c-2.646,1.785-4.128,4.856-3.882,8.04c0.248,3.186,2.185,5.991,5.075,7.349
	l3.533,1.661c16.943,7.964,40.172,12.176,67.172,12.176c29.572,0,61.117-4.965,88.825-13.981
	c28.653-9.321,51.095-22.021,64.901-36.727c10.319-10.99,16.656-22.068,18.833-32.928l1.484-7.399
	C459.639,415.544,457.779,411.635,454.293,409.803z"/>
<g style="opacity:0.19;">
	<path style="fill:#202121;" d="M449.103,408.867c-1.972,0.239-3.86,1.116-5.314,2.614l-1.313,1.355
		C444.818,411.553,447.023,410.228,449.103,408.867z"/>
	<path style="fill:#202121;" d="M396.235,478.706c-27.709,9.016-59.255,13.982-88.825,13.982c-27.001,0-50.227-4.211-67.171-12.177
		l-3.536-1.66c-2.89-1.359-4.829-4.164-5.075-7.349c-0.035-0.453-0.026-0.904,0.008-1.348c-5.982,2.858-11.218,6-15.475,8.875
		l-3.236,2.187c-2.646,1.785-4.128,4.856-3.882,8.04c0.248,3.186,2.185,5.991,5.075,7.349l3.533,1.661
		c16.943,7.964,40.172,12.176,67.172,12.176c29.572,0,61.117-4.965,88.825-13.981c28.486-9.267,50.825-21.876,64.65-36.47
		C426.536,467.136,412.37,473.457,396.235,478.706z"/>
</g>
<path style="opacity:0.19;fill:#202121;enable-background:new    ;" d="M152.858,452.069c-0.4-0.101-0.804-0.174-1.214-0.216
	L35.635,439.259c-3.478-0.38-6.78,1.324-8.537,4.205L129.7,454.582c2.175,0.509,23.356,5.981,26.781,26.315l0.453,2.684
	c0.367,2.171,1.532,4.102,3.23,5.455c-0.27,2.063,0.042,4.013,1.115,5.78c0,0,8.65-6.527,22.557-7.035
	C182.932,467.09,167.063,455.657,152.858,452.069z"/>
<path style="fill:#E23E2D;" d="M131.437,449.296c-0.399-0.101-0.804-0.174-1.214-0.217L14.215,436.484
	c-4.282-0.466-8.297,2.224-9.49,6.375l-0.515,1.789c-1.106,3.845-2.133,7.529-3.05,10.946c-2.524,9.394-0.928,17.902,4.74,25.293
	c12.81,16.699,49.578,27.491,93.671,27.491c24.454,0,46.858-3.651,57.075-9.304l1.052-0.581c2.624-1.452,4.339-4.13,4.557-7.121
	l0.089-1.201C164.091,466.197,146.786,453.171,131.437,449.296z"/>
<path style="opacity:0.19;fill:#202121;enable-background:new    ;" d="M128.462,504.609c-44.092,0-80.861-10.789-93.671-27.491
	c-5.668-7.39-7.264-15.899-4.74-25.292c0.547-2.042,1.139-4.184,1.758-6.393h-0.001l0.016-0.053c0.413-1.473,0.837-2.969,1.278-4.5
	l0.515-1.79c0.048-0.167,0.121-0.319,0.181-0.479l-19.58-2.126c-4.282-0.466-8.297,2.224-9.49,6.375l-0.515,1.789
	c-1.106,3.845-2.133,7.529-3.05,10.946c-2.524,9.394-0.928,17.902,4.74,25.293c12.81,16.699,49.578,27.491,93.671,27.491
	c15.8,0,30.738-1.526,42.093-4.128C137.375,504.486,132.954,504.609,128.462,504.609z"/>
<g>
	<path style="fill:#485D6D;" d="M196.874,339.373c1.506,1.145,3.275,1.698,5.032,1.698c2.511,0,4.993-1.132,6.63-3.284l6.539-8.597
		c0.835-1.1,1.349-2.339,1.57-3.609l-3.54-1.48c-0.006-0.002-0.013-0.004-0.019-0.007l-11.419-4.77l-6.378,8.388
		C192.506,331.368,193.216,336.59,196.874,339.373z"/>
	<path style="fill:#485D6D;" d="M229.068,352.549c1.505,1.145,3.274,1.696,5.03,1.696c2.512,0,4.993-1.131,6.632-3.286l6.875-9.043
		c0.662-0.869,1.119-1.828,1.393-2.821l-3.859-1.613c-0.001,0-0.002,0-0.003-0.002l-11.435-4.774l-6.222,8.181
		C224.698,344.546,225.408,349.766,229.068,352.549z"/>
	<path style="fill:#485D6D;" d="M277.176,350.864c-0.007-0.002-0.013-0.004-0.018-0.007l-11.42-4.77l-6.065,7.975
		c-2.782,3.659-2.072,8.88,1.587,11.662c1.506,1.145,3.274,1.696,5.032,1.696c2.508,0,4.992-1.131,6.629-3.283l6.795-8.936
		c0.636-0.836,1.081-1.757,1.359-2.71L277.176,350.864z"/>
	<path style="fill:#485D6D;" d="M309.212,364.247c-0.004-0.002-0.008-0.002-0.011-0.005l-11.427-4.774l-5.909,7.772
		c-2.782,3.659-2.073,8.879,1.586,11.662c1.505,1.144,3.275,1.696,5.031,1.696c2.512,0,4.993-1.132,6.631-3.284l8.086-10.635
		c0.147-0.195,0.281-0.394,0.409-0.598L309.212,364.247z"/>
	<path style="fill:#485D6D;" d="M345.301,114.555c0.38,1.854,1.346,3.435,2.668,4.592c1.889,1.653,4.501,2.438,7.151,1.896
		l10.583-2.161c1.353-0.277,2.555-0.87,3.558-1.681l-1.69-3.445c-0.003-0.006-0.008-0.013-0.01-0.019l-5.449-11.11l-10.325,2.107
		C347.287,105.657,344.383,110.051,345.301,114.555z"/>
	<path style="fill:#485D6D;" d="M360.842,145.673c0.38,1.855,1.346,3.438,2.667,4.593c1.888,1.653,4.502,2.437,7.152,1.896
		l11.131-2.276c1.071-0.218,2.049-0.637,2.907-1.204l-1.841-3.756c-0.001,0-0.002,0-0.002,0L377.4,133.8l-10.072,2.056
		C362.826,136.775,359.922,141.172,360.842,145.673z"/>
	<path style="fill:#485D6D;" d="M398.148,176.1c-0.003-0.006-0.007-0.013-0.009-0.021l-5.45-11.111l-9.816,2.006
		c-4.503,0.92-7.41,5.315-6.488,9.817c0.378,1.856,1.344,3.436,2.666,4.593c1.89,1.653,4.502,2.438,7.152,1.896l10.999-2.245
		c1.028-0.213,1.971-0.609,2.808-1.144L398.148,176.1z"/>
	<path style="fill:#485D6D;" d="M413.437,207.272c-0.002-0.004-0.005-0.008-0.007-0.012l-5.454-11.119l-9.564,1.953
		c-4.502,0.921-7.41,5.319-6.487,9.822c0.377,1.853,1.345,3.435,2.666,4.592c1.889,1.651,4.501,2.437,7.152,1.896l13.089-2.676
		c0.239-0.049,0.47-0.111,0.701-0.181L413.437,207.272z"/>
</g>
<path style="fill:#F04C35;" d="M395.811,236.241c-0.234-0.198-0.477-0.382-0.729-0.554l-0.373-0.253
	c-0.244-0.164-0.496-0.319-0.756-0.46c-4.973-2.695-9.994-6.71-13.442-10.745l-0.105-0.121c-0.274-0.321-0.572-0.622-0.889-0.9
	l-43.738-38.321L276.471,64.745l-0.002-0.059c-0.056-1.679-0.589-3.309-1.534-4.696l-0.367-0.54
	c-10.32-15.134-9.674-30.302-8.372-37.991l0.205-1.204c0.51-3.001-0.553-6.056-2.817-8.09l-9.265-8.329
	c-2.775-2.497-6.818-2.988-10.112-1.234l-1.373,0.733c-15.505,8.269-53.474,28.8-88.542,49.95h-0.001l-0.081,0.05
	c-2.795,1.687-5.573,3.377-8.317,5.063l-2.293,1.411c-0.463,0.284-0.883,0.617-1.28,0.973l-16.407,10.277l14.826,1.014
	c0.287,0.46,0.607,0.9,0.979,1.304l77.493,84.301c1.286,1.795,13.633,19.876,2.813,37.435l-1.429,2.322
	c-1.401,2.273-1.704,5.057-0.824,7.579c0.052,0.151,0.121,0.294,0.182,0.442c4.853,0.61,26.016,4.819,36.839,32.166
	c0.303,0.044,0.607,0.089,0.917,0.102l1.243,0.058c9.589,0.44,34.035,3.057,53.864,17.784c13.089,9.724,49.211,29.438,88.523,42.81
	c3.47,1.18,7.07,2.339,10.7,3.444l2.061,0.626c0.861,0.263,1.732,0.387,2.59,0.387c3.712,0,7.16-2.344,8.408-6.04l0.69-2.042
	C433.9,270.717,404.893,243.891,395.811,236.241z"/>
<g style="opacity:0.19;">
	<path style="fill:#202121;" d="M141.719,73.379l10.667,11.603c2.119-1.397,4.332-2.838,6.628-4.312l1.57-1.008
		c0.46-0.297,0.938-0.545,1.428-0.746l7.947-4.977c0.397-0.358,0.817-0.69,1.28-0.973l2.293-1.411
		c2.744-1.689,5.523-3.379,8.317-5.063l0.081-0.052l0.001,0.002c32.379-19.53,67.219-38.525,84.578-47.83
		c-0.043-2.439-1.073-4.783-2.924-6.448l-9.265-8.329c-2.775-2.497-6.818-2.988-10.112-1.234l-1.373,0.733
		c-15.505,8.269-53.474,28.8-88.542,49.95h-0.001l-0.081,0.05c-2.795,1.687-5.573,3.377-8.317,5.063l-2.293,1.411
		c-0.463,0.284-0.883,0.617-1.28,0.973l-16.407,10.277l14.826,1.014C141.027,72.534,141.346,72.975,141.719,73.379z"/>
</g>
<g>
	<path style="fill:#E23E2D;" d="M223.246,153.899l-78.965-85.932c-2.921-3.18-7.704-3.797-11.334-1.464l-1.57,1.009
		c-3.358,2.158-6.559,4.252-9.511,6.227c-8.51,5.687-17.331,16.835-11.019,37.647c5.772,19.026,23.207,42.629,47.833,64.757
		c19.239,17.288,39.45,30.149,51.487,32.762l1.176,0.255c0.626,0.137,1.259,0.204,1.887,0.204c2.309,0,4.557-0.904,6.236-2.561
		l0.86-0.847c18.317-18.108,10.931-40.645,3.679-51.109C223.775,154.516,223.521,154.198,223.246,153.899z"/>
	<path style="fill:#E23E2D;" d="M504.025,309.593c-1.489-3.882-5.47-6.215-9.583-5.603l-9.824,1.451
		c-17.322,2.561-39.204,0.071-64.767-7.111l-0.098-0.03c-0.044-0.013-0.089-0.025-0.134-0.038
		c-5.402-1.521-10.952-3.249-16.491-5.135c-38.745-13.179-74.202-32.5-87.001-42.011c-16.136-11.986-34.913-16.446-47.822-18.077
		l-4.071-0.514c-3.231-0.408-6.431,0.99-8.33,3.64c-1.896,2.65-2.188,6.127-0.761,9.057l1.798,3.688
		c10.839,22.235,37.031,43.748,73.75,60.574c36.782,16.854,80.697,27.325,114.61,27.325h0.011c4.835,0,9.473-0.214,13.781-0.635
		c13.578-1.327,24.778-4.863,33.284-10.516l8.272-5.494C504.112,317.867,505.514,313.474,504.025,309.593z"/>
</g>
<path style="opacity:0.19;fill:#202121;enable-background:new    ;" d="M186.317,189.298c-24.626-22.126-42.06-45.729-47.832-64.755
	c-6.312-20.812,2.507-31.961,11.018-37.649c2.382-1.592,4.933-3.266,7.59-4.984l-12.811-13.941
	c-2.921-3.18-7.704-3.797-11.334-1.464l-1.57,1.009c-3.358,2.158-6.559,4.252-9.511,6.227c-8.51,5.687-17.331,16.835-11.019,37.647
	c5.772,19.026,23.207,42.629,47.833,64.757c19.239,17.288,39.45,30.149,51.487,32.762l1.176,0.255
	c0.145,0.032,0.29,0.048,0.434,0.071C203.634,203.804,194.882,196.993,186.317,189.298z"/>
<g>
</g>
<g>
</g>
<g>
</g>
<g>
</g>
<g>
</g>
<g>
</g>
<g>
</g>
<g>
</g>
<g>
</g>
<g>
</g>
<g>
</g>
<g>
</g>
<g>
</g>
<g>
</g>
<g>
</g>
</svg>
