<?xml version="1.0" encoding="iso-8859-1"?>
<!-- Generator: Adobe Illustrator 19.0.0, SVG Export Plug-In . SVG Version: 6.00 Build 0)  -->
<svg version="1.1" id="Layer_1" xmlns="http://www.w3.org/2000/svg" xmlns:xlink="http://www.w3.org/1999/xlink" x="0px" y="0px"
	 viewBox="0 0 512 512" style="enable-background:new 0 0 512 512;" xml:space="preserve">
<path style="fill:#B97EC4;" d="M447.152,73.369l-106.677-72c-1.773-1.197-3.952-1.633-6.047-1.213
	c-2.097,0.42-3.938,1.663-5.113,3.45l-35.364,53.791c-1.253,1.905-1.633,4.255-1.044,6.458c0.588,2.204,2.089,4.051,4.125,5.078
	l115.364,58.209c3.568,1.801,8.043,0.619,10.26-2.703l26.677-40C451.774,80.777,450.8,75.831,447.152,73.369z"/>
<path style="fill:#AA6BB0;" d="M218.047,57.397L182.684,3.606c-1.175-1.787-3.016-3.029-5.113-3.45
	c-2.097-0.42-4.274,0.017-6.047,1.213l-106.677,72c-3.648,2.462-4.622,7.408-2.18,11.07l26.677,40
	c2.216,3.322,6.691,4.505,10.26,2.703l115.364-58.209c2.036-1.027,3.537-2.875,4.125-5.078
	C219.68,61.652,219.3,59.302,218.047,57.397z"/>
<g>
	<path style="fill:#FFCB2E;" d="M155.121,392.427c1.372,15.3,2.912,30.293,4.438,44.088c0,0,5.163-18.897,12.566-46.005
		c-1.505-15.622-2.767-31.501-3.633-47.014L155.121,392.427z"/>
	<path style="fill:#FFCB2E;" d="M192.017,184h-16.692l0.619,14.864c0,0-0.226,0.404-0.617,1.136h13.849
		c1.918-5.169,3.156-8.333,3.156-8.333L192.017,184z"/>
</g>
<path style="fill:#5BD0D9;" d="M336.053,198.864l2.851-68.425C335.999,72,255.999,56,255.999,56s-80,16-82.905,74.439l2.851,68.425
	c0,0-18.842,33.456-23.927,73.686c-8.019,63.45,16,232,16,232c0.289,4.195,3.776,7.45,7.981,7.45h64c4.418,0,8-3.582,8-8V320h16v184
	c0,4.418,3.582,8,8,8h64c4.205,0,7.692-3.255,7.981-7.45c0,0,24.019-136.55,16-232C357.925,248.086,336.053,198.864,336.053,198.864
	z"/>
<path style="fill:#36C9D1;" d="M167.999,275c1.561-25.131,24.333-83.333,24.333-83.333l-4.058-98.704
	c-8.436,9.928-14.425,22.261-15.181,37.476l2.851,68.425c0,0-18.842,33.456-23.927,73.686c-8.019,63.45,16,232,16,232
	c0.289,4.195,3.776,7.45,7.981,7.45h12.775C180.557,468.476,163.408,348.913,167.999,275z"/>
<g>
	<path style="fill:#FFD761;" d="M263.999,439.667V504c0,4.418,3.582,8,8,8h64c4.205,0,7.692-3.255,7.981-7.45
		c0,0,4.707-26.772,9.259-64.884h-89.24V439.667z"/>
	<path style="fill:#FFD761;" d="M175.999,512h64c4.418,0,8-3.582,8-8v-64h-88.052c4.147,37.007,8.072,64.55,8.072,64.55
		C168.307,508.745,171.794,512,175.999,512z"/>
</g>
<g>
	<path style="fill:#AA6BB0;" d="M168.018,504.55c0.289,4.195,3.776,7.45,7.981,7.45h64c4.418,0,8-3.582,8-8v-24h-83.255
		C166.681,495.163,168.018,504.55,168.018,504.55z"/>
	<path style="fill:#AA6BB0;" d="M159.947,440c0.962,8.588,1.912,16.657,2.804,24h85.248v-24H159.947z"/>
</g>
<path style="fill:#FFCB2E;" d="M180.983,464h-18.232l0,0c0.709,5.836,1.381,11.207,1.993,16l0,0h18.623
	C182.585,474.943,181.786,469.596,180.983,464z"/>
<g>
	<path style="fill:#9851A6;" d="M164.744,480c1.937,15.162,3.274,24.55,3.274,24.55c0.289,4.195,3.776,7.45,7.981,7.45h12.775
		c-1.552-8.223-3.424-19.17-5.407-32H164.744z"/>
	<path style="fill:#9851A6;" d="M177.716,440h-17.77c0.962,8.588,1.912,16.657,2.804,24h18.232
		C179.892,456.407,178.793,448.366,177.716,440z"/>
</g>
<g>
	<path style="fill:#AA6BB0;" d="M353.239,439.667h-89.24V464h86.13C351.134,456.613,352.19,448.446,353.239,439.667z"/>
	<path style="fill:#AA6BB0;" d="M263.999,504c0,4.418,3.582,8,8,8h64c4.205,0,7.692-3.255,7.981-7.45c0,0,1.622-9.229,3.882-24.55
		h-83.863V504z"/>
	<path style="fill:#AA6BB0;" d="M255.999,72c38.23,0,70.76,24.38,82.906,58.439l5.088-122.106c0.091-2.178-0.711-4.298-2.22-5.871
		C340.264,0.889,338.179,0,335.999,0h-46.812c-3.856,0-7.163,2.75-7.866,6.542C278.454,22.014,265.641,40,255.999,40
		c-9.642,0-18.455-17.986-21.322-33.458C233.974,2.751,230.667,0,226.811,0h-50.812c-2.18,0-4.265,0.889-5.773,2.462
		c-1.509,1.573-2.311,3.693-2.22,5.871l5.088,122.106C185.239,96.381,217.769,72,255.999,72z"/>
</g>
<g>
	<path style="fill:#FFD761;" d="M304.298,200h32.254c-0.32-0.735-0.498-1.136-0.498-1.136L336.673,184h-72.674V36.653
		c-2.727,2.103-5.472,3.347-8,3.347c-2.777,0-5.483-1.497-8-3.991V184h-72.674l0.619,14.864c0,0-0.226,0.404-0.617,1.136h32.372
		L155.12,392.426c1.372,15.3,2.912,30.293,4.438,44.088c0,0,64.433-235.811,64.434-236.514h64.014
		c0,0.703,65.904,233.953,65.904,233.953c1.578-13.667,3.105-28.618,4.38-44.207L304.298,200z"/>
	<polygon style="fill:#FFD761;" points="368.171,104.828 382.527,112.072 419.173,54.485 405.906,45.531 	"/>
	<polygon style="fill:#FFD761;" points="129.471,112.072 143.827,104.828 106.092,45.531 92.825,54.485 	"/>
</g>
<path style="fill:#9851A6;" d="M175.999,0c-2.18,0-4.265,0.889-5.773,2.462c-1.509,1.573-2.311,3.693-2.22,5.871l5.088,122.106
	c3.566-9.999,8.899-19.154,15.607-27.113L184.453,0H175.999z"/>
<g>
</g>
<g>
</g>
<g>
</g>
<g>
</g>
<g>
</g>
<g>
</g>
<g>
</g>
<g>
</g>
<g>
</g>
<g>
</g>
<g>
</g>
<g>
</g>
<g>
</g>
<g>
</g>
<g>
</g>
</svg>
