<?xml version="1.0" encoding="iso-8859-1"?>
<!-- Generator: Adobe Illustrator 19.0.0, SVG Export Plug-In . SVG Version: 6.00 Build 0)  -->
<svg xmlns="http://www.w3.org/2000/svg" xmlns:xlink="http://www.w3.org/1999/xlink" version="1.1" id="Layer_1" x="0px" y="0px" viewBox="0 0 432.213 432.213" style="enable-background:new 0 0 432.213 432.213;" xml:space="preserve" width="512" height="512">
<g>
	<polygon style="fill:#C3C6C8;" points="131.591,200.323 137.132,424.713 193.454,424.713 216.107,255.941 238.76,424.713    295.081,424.713 300.622,200.323  "/>
	<path style="fill:#0071CE;" d="M319.461,19.863l0.044,0.03l0.018,0.011L319.461,19.863z M112.69,19.904l0.017-0.011l0.045-0.03   L112.69,19.904z M319.505,19.892C305.447,10.668,298.736,7.5,280.452,7.5H151.761c-18.285,0-24.996,3.168-39.054,12.392   L65.232,51.049l28.053,47.623l38.307-19.76v129.292h169.031V78.912l38.307,19.76l28.053-47.623L319.505,19.892z"/>
	<polygon style="fill:#FFC843;" points="78.899,42.079 58.609,55.394 86.057,102.4 106.527,91.841  "/>
	<polygon style="fill:#FFC843;" points="353.314,42.079 373.604,55.394 346.157,102.4 325.687,91.841  "/>
	<polygon style="fill:#454F58;" points="244.513,7.5 216.107,39.572 187.7,7.5  "/>
	<path d="M377.719,49.123l-20.29-13.315c-0.008-0.004-0.015-0.009-0.021-0.014l-33.788-22.173C308.867,3.942,300.833,0,280.452,0   H151.761c-20.382,0-28.416,3.942-43.169,13.622l-33.76,22.155c-0.016,0.01-0.032,0.021-0.048,0.031L54.495,49.123   c-3.336,2.189-4.374,6.607-2.362,10.052l27.447,47.006c2.013,3.446,6.371,4.713,9.915,2.884l20.47-10.559   c0.039-0.02,0.078-0.04,0.117-0.062l14.009-7.226v116.984c0,0.638,0.088,1.254,0.238,1.845l5.305,214.85   c0.1,4.069,3.428,7.315,7.498,7.315h56.322c3.756,0,6.934-2.779,7.433-6.502l15.22-113.391l15.22,113.391   c0.5,3.723,3.677,6.502,7.434,6.502h56.321c4.07,0,7.397-3.246,7.498-7.315l5.305-214.85c0.15-0.591,0.238-1.207,0.238-1.845V91.22   l14.071,7.259l0.02,0.01c0.012,0.006,0.023,0.012,0.034,0.018l20.471,10.559c3.55,1.831,7.903,0.562,9.915-2.884l27.446-47.006   C382.092,55.73,381.054,51.313,377.719,49.123z M227.852,15l-11.745,13.261L204.362,15H227.852z M216.405,96.475   c12.91-3.628,25.358-8.62,35.208-12.57l2.517-1.008c2.708-1.081,6.508-1.871,9.238,0.51c1.84,1.604,2.685,4.251,2.103,6.585   c-0.776,3.121-3.819,4.526-6.34,5.157l-42.727,6.544V96.475z M88.944,92.472L68.675,57.759l7.586-4.979l19.954,35.94L88.944,92.472   z M135.494,72.507c-2.234-1.362-5.016-1.461-7.341-0.261l-18.6,9.594L88.837,44.528l27.985-18.365   C130.391,17.259,135.595,15,151.761,15h32.563l17.081,19.286v50.312c-12.726,2.534-24.684,2.745-32.106-2.455   c-3.393-2.376-8.069-1.554-10.446,1.839c-2.377,3.393-1.553,8.069,1.839,10.446c10.8,7.566,25.512,8.106,40.712,5.495v4.067   l-24.47,3.748c-16.516,2.529-23.736,13.191-23.564,22.635c0.075,4.142,3.543,7.445,7.635,7.362   c4.142-0.075,7.438-3.494,7.362-7.635c-0.053-2.912,3.653-6.435,10.837-7.535l22.2-3.4v81.539h-62.314V78.912   C139.091,76.295,137.728,73.869,135.494,72.507z M287.764,417.213H245.32l-21.78-162.27c-0.5-3.723-3.677-6.502-7.434-6.502   c-3.756,0-6.934,2.779-7.434,6.502l-21.78,162.27h-42.444l-4.976-201.51h153.266L287.764,417.213z M304.061,72.246   c-2.324-1.199-5.106-1.1-7.341,0.261s-3.598,3.789-3.598,6.405v121.791h-76.717v-83.836l45.313-6.94   c0.191-0.029,0.382-0.066,0.57-0.11c9.249-2.161,15.715-8.066,17.74-16.203c1.935-7.776-0.733-16.22-6.799-21.511   c-6.492-5.661-15.481-6.803-24.664-3.136l-2.535,1.016c-7.566,3.035-18.318,7.346-29.625,10.78V47.066   c2.037-0.081,3.958-0.989,5.315-2.521L247.889,15h32.564c16.164,0,21.369,2.259,34.938,11.163l27.986,18.365L322.66,81.841   L304.061,72.246z M343.27,92.472l-7.273-3.751l19.953-35.94l7.588,4.979L343.27,92.472z"/>
</g>















</svg>
