<?xml version="1.0" encoding="iso-8859-1"?>
<!-- Generator: Adobe Illustrator 19.0.0, SVG Export Plug-In . SVG Version: 6.00 Build 0)  -->
<svg version="1.1" id="Layer_1" xmlns="http://www.w3.org/2000/svg" xmlns:xlink="http://www.w3.org/1999/xlink" x="0px" y="0px"
	 viewBox="0 0 512 512" style="enable-background:new 0 0 512 512;" xml:space="preserve">
<path style="fill:#2D2D30;" d="M485.996,329.293l-43.63-13.252c-0.284,0.936-25.668,83.279-70.211,137.231
	c-6.021,7.292,27.609,20.048,27.609,20.048c9.357,0,18.148-4.575,23.45-12.285C463.393,402.596,484.855,333.047,485.996,329.293z"/>
<path style="fill:#3E3D42;" d="M339.813,359.008c-10.916,11.512-24.73,26.172-34.11,36.139c9.685,20.86,22.042,44.143,36.994,65.889
	c5.302,7.71,14.093,12.285,23.45,12.285h33.62C372.831,432.803,352.629,389.793,339.813,359.008z"/>
<path style="fill:#57565C;" d="M308.32,360.871c-3.291,5.7-11.518,5.7-14.808,0l-75.228-130.299h-55.516l95.776,165.89
	c18.832,32.618,65.912,32.618,84.744,0l95.776-165.89h-55.516L308.32,360.871z"/>
<path style="fill:#1D1D1F;" d="M442.368,316.04c-0.124,0.409-5.034,16.339-14.235,38.649l20.833,11.667
	c6.495,3.637,13.74,5.775,21.129,6.258c9.983-24.104,15.346-41.495,15.901-43.32L442.368,316.04z"/>
<g>
	<path style="fill:#3E3D42;" d="M383.547,230.572l-63.49,109.969c13.191,5.51,27.442,8.444,41.799,8.444h8.843l68.366-118.412
		h-55.518V230.572z"/>
	<path style="fill:#3E3D42;" d="M262.084,306.438l-43.801-75.865h-55.516l43.707,75.702h52.675
		C260.131,306.275,261.109,306.339,262.084,306.438z"/>
</g>
<path style="fill:#A4E276;" d="M28.071,213.853L6.429,236.307c-13.956,14.479-3.695,38.62,16.415,38.62h236.305
	c13.418,0,26.465,4.404,37.138,12.538l18.932,14.428c13.403,10.214,29.787,15.745,46.638,15.745h44.562
	c12.92,0,25.625,3.314,36.898,9.628l20.964,11.739c9.836,5.508,22.245,1.023,26.329-9.485
	C513.75,269.995,561.965,85.89,346.33,41.244c0,0-169.838-33.249-291.012,139.73C47.138,192.647,37.962,203.592,28.071,213.853z"/>
<g>
	<path style="fill:#91DC5A;" d="M259.148,274.927c13.418,0,26.465,4.405,37.138,12.538l18.932,14.428
		c13.403,10.213,29.787,15.745,46.638,15.745h44.562c12.92,0,25.625,3.314,36.898,9.628l20.964,11.739
		c9.836,5.509,22.245,1.023,26.329-9.483c5.093-13.101,11.399-32.238,15.841-54.594H259.148z"/>
	<path style="fill:#91DC5A;" d="M511.918,215.08c-0.626-23.706-4.974-48.187-15.448-71.245H84.742
		c-10.038,11.18-19.882,23.518-29.424,37.138c-8.177,11.674-17.354,22.618-27.246,32.881l-1.182,1.226h485.028V215.08z"/>
</g>
<path style="fill:#7ED63E;" d="M55.72,180.407c-0.134,0.19-0.269,0.375-0.402,0.565c-8.177,11.674-17.354,22.618-27.246,32.881
	l-1.182,1.226h485.028c-0.302-11.459-1.486-23.1-3.799-34.673H55.72V180.407z"/>
<path style="fill:#91DC5A;" d="M455.257,89.688C430.153,68.468,394.95,51.31,346.33,41.243c0,0-98.999-19.367-199.756,48.446
	H455.257z"/>
<g>
	<path style="fill:#7ED63E;" d="M192.619,64.19c-15.071,6.696-30.536,15.061-46.046,25.5h308.683
		c-11.099-9.382-24.176-17.967-39.51-25.5H192.619z"/>
	<path style="fill:#7ED63E;" d="M208.282,251.416h-22.291c-4.329,0-7.837-3.508-7.837-7.837c0-4.329,3.508-7.837,7.837-7.837h22.291
		c4.329,0,7.837,3.508,7.837,7.837C216.119,247.909,212.611,251.416,208.282,251.416z"/>
	<path style="fill:#7ED63E;" d="M155.342,251.416H80.109c-4.329,0-7.837-3.508-7.837-7.837c0-4.329,3.508-7.837,7.837-7.837h75.233
		c4.329,0,7.837,3.508,7.837,7.837C163.178,247.909,159.671,251.416,155.342,251.416z"/>
</g>
<path style="fill:#3E3D42;" d="M443.319,327.265l20.965,11.739c9.836,5.509,22.245,1.023,26.329-9.483
	c13.889-35.728,36.809-116.339,6.287-184.736l0,0l-40.188,65.861c-7.113,11.656-18.578,19.995-31.858,23.171l-16.165,3.865
	c-17.593,4.207-31.376,17.865-35.745,35.418l-11.085,44.538h44.562C419.341,317.637,432.045,320.952,443.319,327.265z"/>
<path style="fill:#2D2D30;" d="M438.731,269.53l16.165-3.865c13.28-3.175,24.745-11.515,31.858-23.171l24.462-40.089
	c-1.635-19.342-5.978-38.937-14.316-57.621l-40.188,65.861c-7.113,11.656-18.578,19.995-31.858,23.171l-16.165,3.865
	c-17.593,4.207-31.376,17.865-35.745,35.418l-11.085,44.538h37.968l3.158-12.689C407.354,287.394,421.138,273.738,438.731,269.53z"
	/>
<g>
	<path style="fill:#1D1D1F;" d="M466.971,269.085h-49.159c-4.329,0-7.837-3.508-7.837-7.837c0-4.329,3.508-7.837,7.837-7.837h49.159
		c4.329,0,7.837,3.508,7.837,7.837C474.808,265.577,471.3,269.085,466.971,269.085z"/>
	<path style="fill:#1D1D1F;" d="M466.971,299.007h-49.159c-4.329,0-7.837-3.508-7.837-7.837s3.508-7.837,7.837-7.837h49.159
		c4.329,0,7.837,3.508,7.837,7.837S471.3,299.007,466.971,299.007z"/>
</g>
<path style="fill:#3E3D42;" d="M119.033,186.597c15.928-17.662,48.171-38.561,112.412-42.762
	c12.014-0.786,20.844,11.666,17.132,23.12c-3.91,12.069-8.429,26.33-11.536,36.18c-2.244,7.117-8.841,11.945-16.304,11.945h-88.939
	C117.029,215.08,109.14,197.566,119.033,186.597z"/>
<path style="fill:#2D2D30;" d="M246.319,173.956c0.765-2.381,1.522-4.73,2.258-7.001c3.711-11.454-5.118-23.906-17.132-23.12
	c-64.242,4.202-96.484,25.101-112.413,42.762c-9.891,10.968-2.002,28.482,12.768,28.482h18.582c0.192-0.236,0.381-0.474,0.59-0.705
	C165.436,198.336,193.227,180.285,246.319,173.956z"/>
<path style="fill:#3E3D42;" d="M181.704,69.289c-0.448,9.404,4.03,20.4,17.697,20.4h88.939c7.463,0,14.059-4.828,16.304-11.945
	c2.317-7.347,8.841-28.399,12.064-39.015C286.348,38.158,236.004,42.489,181.704,69.289z"/>
<path style="fill:#2D2D30;" d="M316.709,38.728c-30.362-0.568-80.707,3.763-135.005,30.562c-0.448,9.404,4.03,20.4,17.697,20.4
	h12.351l0,0c36.033-17.608,70.262-25.352,98.015-28.387C312.255,53.27,314.964,44.471,316.709,38.728z"/>
<path style="fill:#3E3D42;" d="M365.701,215.08h-62.975c-11.427,0-19.639-10.993-16.397-21.95l10.962-37.047
	c2.149-7.263,8.821-12.247,16.397-12.247h52.013c9.444,0,17.099,7.655,17.099,17.099v37.047
	C382.799,207.424,375.144,215.08,365.701,215.08z"/>
<path style="fill:#2D2D30;" d="M344.89,176.323h37.909v-15.389c0-9.444-7.655-17.099-17.099-17.099h-52.013
	c-7.574,0-14.247,4.984-16.395,12.247l-10.962,37.047c-3.242,10.958,4.97,21.95,16.397,21.95h17.925l7.844-26.51
	C330.644,181.306,337.316,176.323,344.89,176.323z"/>
<path style="fill:#3E3D42;" d="M353.774,68.116c-2.901,9.803,3.375,19.609,12.91,21.573h70.028
	c4.162-0.884,7.751-3.288,10.191-6.596c-0.006-0.014-0.013-0.027-0.019-0.042c-21.614-16.09-49.779-29.433-86.148-38.52
	L353.774,68.116z"/>
<g>
	<path style="fill:#2D2D30;" d="M392.856,75.431l5.583-18.869c-0.003-0.01-0.007-0.021-0.01-0.031
		c-11.459-4.549-23.992-8.578-37.692-12.001l-6.963,23.586c-2.901,9.803,3.375,19.609,12.91,21.573h28.327
		C392.35,85.681,391.338,80.561,392.856,75.431z"/>
	<circle style="fill:#2D2D30;" cx="334.942" cy="268.35" r="18.121"/>
</g>
<g>
</g>
<g>
</g>
<g>
</g>
<g>
</g>
<g>
</g>
<g>
</g>
<g>
</g>
<g>
</g>
<g>
</g>
<g>
</g>
<g>
</g>
<g>
</g>
<g>
</g>
<g>
</g>
<g>
</g>
</svg>
