<?xml version="1.0" encoding="iso-8859-1"?>
<!-- Generator: Adobe Illustrator 19.0.0, SVG Export Plug-In . SVG Version: 6.00 Build 0)  -->
<svg version="1.1" id="Layer_1" xmlns="http://www.w3.org/2000/svg" xmlns:xlink="http://www.w3.org/1999/xlink" x="0px" y="0px"
	 viewBox="0 0 512 512" style="enable-background:new 0 0 512 512;" xml:space="preserve">
<path style="fill:#48AEE2;" d="M275.209,0h-19.53h-19.52c-8.257,0-14.95,6.693-14.95,14.95v54.676h34.47h34.48V14.95
	C290.159,6.693,283.464,0,275.209,0z"/>
<path style="fill:#3494C7;" d="M290.793,14.95c0-8.257-6.693-14.95-14.95-14.95h-19.53v63.196h34.48V14.95z"/>
<polygon style="fill:#48AEE2;" points="255.679,174.782 194.305,174.782 194.305,295.251 255.679,295.251 317.061,295.251 
	317.061,174.782 "/>
<rect x="256.314" y="174.778" style="fill:#3494C7;" width="61.384" height="120.465"/>
<g>
	<path style="fill:#80D0E1;" d="M309.552,63.196h-53.873h-53.863c-13.353,0-24.178,10.825-24.178,24.178v84.2
		c0,8.257,6.693,14.95,14.95,14.95h63.093h63.102c8.257,0,14.95-6.693,14.95-14.95V87.375
		C333.73,74.021,322.905,63.196,309.552,63.196z"/>
	<path style="fill:#80D0E1;" d="M318.78,283.508h-63.102h-63.093c-8.257,0-14.95,6.693-14.95,14.95V497.05
		c0,8.257,6.693,14.95,14.95,14.95h63.093h63.102c8.257,0,14.95-6.693,14.95-14.95V298.457
		C333.73,290.201,327.037,283.508,318.78,283.508z"/>
</g>
<path style="fill:#FFE49C;" d="M255.683,342.44c-0.001,0-0.003,0-0.004,0c-12.383,0.003-22.42,10.042-22.42,22.425v65.779
	c0,12.383,10.037,22.422,22.42,22.425c0.002,0,0.003,0,0.004,0c12.384,0,22.425-10.04,22.425-22.425v-65.779
	C278.108,352.48,268.067,342.44,255.683,342.44z"/>
<g>
	<path style="fill:#48AEE2;" d="M310.185,63.196h-53.873v123.33h63.102c8.257,0,14.95-6.693,14.95-14.95v-84.2
		C334.364,74.021,323.539,63.196,310.185,63.196z"/>
	<path style="fill:#48AEE2;" d="M319.414,283.508h-63.102V512h63.102c8.257,0,14.95-6.693,14.95-14.95V298.457
		C334.364,290.201,327.671,283.508,319.414,283.508z"/>
</g>
<path style="fill:#FFC72D;" d="M256.317,342.44c-0.001,0-0.003,0-0.004,0v110.627c0.001,0,0.003,0,0.004,0
	c12.384,0,22.425-10.04,22.425-22.425v-65.779C278.742,352.48,268.701,342.44,256.317,342.44z"/>
<g>
</g>
<g>
</g>
<g>
</g>
<g>
</g>
<g>
</g>
<g>
</g>
<g>
</g>
<g>
</g>
<g>
</g>
<g>
</g>
<g>
</g>
<g>
</g>
<g>
</g>
<g>
</g>
<g>
</g>
</svg>
