<?xml version="1.0" encoding="iso-8859-1"?>
<!-- Generator: Adobe Illustrator 19.0.0, SVG Export Plug-In . SVG Version: 6.00 Build 0)  -->
<svg version="1.1" id="Layer_1" xmlns="http://www.w3.org/2000/svg" xmlns:xlink="http://www.w3.org/1999/xlink" x="0px" y="0px"
	 viewBox="0 0 491.52 491.52" style="enable-background:new 0 0 491.52 491.52;" xml:space="preserve">
<path style="fill:#0C486D;" d="M376.517,175.655c2.363,3.151,1.575,7.877-1.575,11.028l-6.302,4.726
	c-3.151,2.363-7.877,1.575-11.028-1.575l-22.055-31.508c-2.363-3.151-1.575-7.877,1.575-11.028l6.302-4.726
	c3.151-2.363,7.877-1.575,11.028,1.575L376.517,175.655z"/>
<path style="fill:#1A5784;" d="M343.434,142.572c3.151-2.363,7.877-1.575,11.028,1.575l22.055,31.508
	c2.363,3.151,1.575,7.877-1.575,11.028"/>
<path style="fill:#0C486D;" d="M115.003,175.655c-2.363,3.151-1.575,7.877,1.575,11.028l6.302,4.726
	c3.151,2.363,7.877,1.575,11.028-1.575l22.055-31.508c2.363-3.151,1.575-7.877-1.575-11.028l-6.302-4.726
	c-3.151-2.363-7.877-1.575-11.028,1.575L115.003,175.655z"/>
<path style="fill:#1A5784;" d="M148.086,142.572c-3.151-2.363-7.877-1.575-11.028,1.575l-22.055,31.508
	c-2.363,3.151-1.575,7.877,1.575,11.028"/>
<path style="fill:#17A507;" d="M115.003,315.865c-2.363-3.151-1.575-7.877,1.575-11.028l6.302-4.726
	c3.151-2.363,7.877-1.575,11.028,1.575l22.055,31.508c2.363,3.151,1.575,7.877-1.575,11.028l-6.302,4.726
	c-3.151,2.363-7.877,1.575-11.028-1.575L115.003,315.865z"/>
<path style="fill:#5BC914;" d="M148.086,348.948c-3.151,2.363-7.877,1.575-11.028-1.575l-22.055-31.508
	c-2.363-3.151-1.575-7.877,1.575-11.028"/>
<path style="fill:#17A507;" d="M376.517,315.865c2.363-3.151,1.575-7.877-1.575-11.028l-6.302-4.726
	c-3.151-2.363-7.877-1.575-11.028,1.575l-22.055,31.508c-2.363,3.151-1.575,7.877,1.575,11.028l6.302,4.726
	c3.151,2.363,7.877,1.575,11.028-1.575L376.517,315.865z"/>
<path style="fill:#5BC914;" d="M343.434,348.948c3.151,2.363,7.877,1.575,11.028-1.575l22.055-31.508
	c2.363-3.151,1.575-7.877-1.575-11.028"/>
<path style="fill:#323535;" d="M331.618,483.643c0,3.938-3.151,7.877-7.877,7.877H167.778c-3.938,0-7.877-3.151-7.877-7.877V7.877
	c0-3.938,3.151-7.877,7.877-7.877h155.175c3.938,0,7.877,3.151,7.877,7.877v475.766H331.618z"/>
<path style="fill:#3A3F3F;" d="M167.778,491.52c-3.938,0-7.877-3.151-7.877-7.877V7.877c0-3.938,3.151-7.877,7.877-7.877h155.175
	c3.938,0,7.877,3.151,7.877,7.877"/>
<g>
	<path style="fill:#617574;" d="M193.772,385.969c0,3.938-3.151,7.877-7.877,7.877h-1.575c-3.938,0-7.877-3.151-7.877-7.877V105.551
		c0-3.938,3.151-7.877,7.877-7.877h1.575c3.938,0,7.877,3.151,7.877,7.877V385.969z"/>
	<path style="fill:#617574;" d="M315.077,385.969c0,3.938-3.151,7.877-7.877,7.877h-1.575c-3.938,0-7.877-3.151-7.877-7.877V105.551
		c0-3.938,3.151-7.877,7.877-7.877h1.575c3.938,0,7.877,3.151,7.877,7.877V385.969z"/>
</g>
<path style="fill:#FFFFFF;" d="M261.514,33.871c0,4.726-3.938,8.665-8.665,8.665h-13.391c-4.726,0-8.665-3.938-8.665-8.665l0,0
	c0-4.726,3.938-8.665,8.665-8.665h13.391C257.575,25.206,261.514,29.145,261.514,33.871L261.514,33.871z"/>
<path style="fill:#576666;" d="M252.062,47.262h-13.391c-7.089,0-12.603-5.514-12.603-12.603c0-7.089,6.302-13.391,13.391-13.391
	h13.391c6.302,0,12.603,6.302,12.603,12.603C265.452,40.96,259.151,47.262,252.062,47.262z M239.458,29.145
	c-3.151,0-5.514,2.363-5.514,4.726c0,2.363,2.363,4.726,4.726,4.726h13.391c3.151,0.788,5.514-1.575,5.514-4.726
	c0-2.363-2.363-4.726-5.514-4.726H239.458z"/>
<path style="fill:#FFFFFF;" d="M261.514,79.557c0,4.726-3.938,8.665-8.665,8.665h-13.391c-4.726,0-8.665-3.938-8.665-8.665l0,0
	c0-4.726,3.938-8.665,8.665-8.665h13.391C257.575,70.892,261.514,74.831,261.514,79.557L261.514,79.557z"/>
<path style="fill:#576666;" d="M252.062,92.948h-13.391c-7.089,0-12.603-5.514-12.603-12.603c0-7.089,5.514-12.603,12.603-12.603
	h13.391c7.089,0,12.603,5.514,12.603,12.603C265.452,86.646,259.151,92.948,252.062,92.948z M239.458,74.831
	c-3.151,0-4.726,2.363-4.726,4.726c0,3.151,2.363,4.726,4.726,4.726h13.391c2.363,0,4.726-2.363,4.726-4.726
	c0-3.151-2.363-4.726-4.726-4.726H239.458z"/>
<path style="fill:#1A5784;" d="M245.76,363.914c-65.378,0-118.154-53.563-118.154-118.154s53.563-118.154,118.154-118.154
	c65.378,0,118.154,53.563,118.154,118.154S311.138,363.914,245.76,363.914z"/>
<g>
	<path style="fill:#0C486D;" d="M245.76,127.606c65.378,0,118.154,53.563,118.154,118.154S310.351,363.914,245.76,363.914"/>
	<polygon style="fill:#0C486D;" points="262.302,240.246 181.957,160.689 214.252,129.182 308.775,153.6 	"/>
</g>
<path style="fill:#A0B5B4;" d="M245.76,142.572c56.714,0,103.188,46.474,103.188,103.188S302.474,348.948,245.76,348.948
	S142.572,302.474,142.572,245.76S189.046,142.572,245.76,142.572 M245.76,111.852c-74.043,0-133.908,59.865-133.908,133.908
	s59.865,133.908,133.908,133.908s133.908-59.865,133.908-133.908S319.803,111.852,245.76,111.852L245.76,111.852z"/>
<path style="fill:#768C8B;" d="M245.76,142.572c56.714,0,103.188,46.474,103.188,103.188S302.474,348.948,245.76,348.948
	S142.572,302.474,142.572,245.76S189.046,142.572,245.76,142.572 M245.76,119.729c-74.043,0-133.908,51.988-133.908,126.031
	s59.865,133.908,133.908,133.908s133.908-59.865,133.908-133.908S319.803,119.729,245.76,119.729L245.76,119.729z"/>
<g>
	<path style="fill:#617574;" d="M112.64,261.514c7.089,63.015,58.289,112.64,122.092,118.154
		c-51.988-5.514-92.948-48.837-92.948-102.4c0-5.514,0.788-10.24,1.575-15.754c-0.788-4.726-1.575-10.24-1.575-15.754
		c0-53.563,40.96-97.674,92.948-102.4C171.717,148.086,119.729,197.711,112.64,261.514z"/>
	<path style="fill:#617574;" d="M378.88,261.514c-7.089-63.015-58.289-112.64-122.092-118.154
		c51.988,5.514,92.948,48.837,92.948,102.4c0,5.514-0.788,10.24-1.575,15.754c0.788,4.726,1.575,10.24,1.575,15.754
		c0,53.563-40.96,97.674-92.948,102.4C319.803,374.154,371.791,324.529,378.88,261.514z"/>
</g>
<g>
	<path style="fill:#5BC914;" d="M188.258,211.889c0,1.575-1.575,2.363-2.363,2.363l0,0c-1.575,0-2.363-0.788-2.363-2.363v-28.357
		c0-1.575,0.788-2.363,2.363-2.363l0,0c1.575,0,2.363,0.788,2.363,2.363V211.889z"/>
	<path style="fill:#5BC914;" d="M215.828,211.889c0,1.575-0.788,2.363-2.363,2.363l0,0c-1.575,0-2.363-0.788-2.363-2.363v-28.357
		c0-1.575,0.788-2.363,2.363-2.363l0,0c1.575,0,2.363,0.788,2.363,2.363V211.889z"/>
	<path style="fill:#5BC914;" d="M207.951,175.655c1.575,0,2.363,0.788,2.363,2.363l0,0c0,1.575-1.575,2.363-2.363,2.363h-16.542
		c-1.575,0-2.363-0.788-2.363-2.363l0,0c0-1.575,0.788-2.363,2.363-2.363H207.951z"/>
</g>
<path style="fill:#073951;" d="M207.951,214.252c1.575,0,2.363,0.788,2.363,2.363l0,0c0,1.575-1.575,2.363-2.363,2.363h-16.542
	c-1.575,0-2.363-1.575-2.363-2.363l0,0c0-1.575,0.788-2.363,2.363-2.363H207.951z"/>
<g>
	<path style="fill:#5BC914;" d="M188.258,251.274c0,1.575-1.575,2.363-2.363,2.363l0,0c-1.575,0-2.363-0.788-2.363-2.363v-28.357
		c0-1.575,0.788-2.363,2.363-2.363l0,0c1.575,0,2.363,0.788,2.363,2.363V251.274z"/>
	<path style="fill:#5BC914;" d="M215.828,251.274c0,1.575-0.788,2.363-2.363,2.363l0,0c-1.575,0-2.363-0.788-2.363-2.363v-28.357
		c0-1.575,0.788-2.363,2.363-2.363l0,0c1.575,0,2.363,0.788,2.363,2.363V251.274z"/>
	<path style="fill:#5BC914;" d="M207.951,253.637c1.575,0,2.363,0.788,2.363,2.363l0,0c0,1.575-1.575,2.363-2.363,2.363h-16.542
		c-1.575,0-2.363-0.788-2.363-2.363l0,0c0-1.575,0.788-2.363,2.363-2.363H207.951z"/>
</g>
<path style="fill:#073951;" d="M232.369,211.889c0,1.575-0.788,2.363-2.363,2.363l0,0c-1.575,0-2.363-0.788-2.363-2.363v-28.357
	c0-1.575,1.575-2.363,2.363-2.363l0,0c1.575,0,2.363,0.788,2.363,2.363V211.889z"/>
<g>
	<path style="fill:#5BC914;" d="M259.938,211.889c0,1.575-0.788,2.363-2.363,2.363l0,0c-1.575,0-2.363-0.788-2.363-2.363v-28.357
		c0-1.575,0.788-2.363,2.363-2.363l0,0c1.575,0,2.363,0.788,2.363,2.363V211.889z"/>
	<path style="fill:#5BC914;" d="M252.062,175.655c1.575,0,2.363,0.788,2.363,2.363l0,0c0,1.575-0.788,2.363-2.363,2.363h-17.329
		c-1.575,0-2.363-0.788-2.363-2.363l0,0c0-1.575,1.575-2.363,2.363-2.363H252.062z"/>
</g>
<g>
	<path style="fill:#073951;" d="M252.062,214.252c1.575,0,2.363,0.788,2.363,2.363l0,0c0,1.575-0.788,2.363-2.363,2.363h-17.329
		c-1.575,0-2.363-1.575-2.363-2.363l0,0c0-1.575,1.575-2.363,2.363-2.363H252.062z"/>
	<path style="fill:#073951;" d="M232.369,251.274c0,1.575-0.788,2.363-2.363,2.363l0,0c-1.575,0-2.363-0.788-2.363-2.363v-28.357
		c0-1.575,1.575-2.363,2.363-2.363l0,0c1.575,0,2.363,0.788,2.363,2.363V251.274z"/>
</g>
<path style="fill:#5BC914;" d="M259.938,251.274c0,1.575-0.788,2.363-2.363,2.363l0,0c-1.575,0-2.363-0.788-2.363-2.363v-28.357
	c0-1.575,0.788-2.363,2.363-2.363l0,0c1.575,0,2.363,0.788,2.363,2.363V251.274z"/>
<g>
	<path style="fill:#073951;" d="M252.062,253.637c1.575,0,2.363,0.788,2.363,2.363l0,0c0,1.575-0.788,2.363-2.363,2.363h-17.329
		c-1.575,0-2.363-0.788-2.363-2.363l0,0c0-1.575,1.575-2.363,2.363-2.363H252.062z"/>
	<path style="fill:#073951;" d="M275.692,237.095c0,0.788-0.788,1.575-1.575,1.575l0,0c-0.788,0-1.575-0.788-1.575-1.575v-13.391
		c0-0.788,0.788-1.575,1.575-1.575l0,0c0.788,0,1.575,0.788,1.575,1.575V237.095z"/>
</g>
<g>
	<path style="fill:#5BC914;" d="M288.295,237.095c0,0.788-0.788,1.575-1.575,1.575l0,0c-0.788,0-1.575-0.788-1.575-1.575v-13.391
		c0-0.788,0.788-1.575,1.575-1.575l0,0c0.788,0,1.575,0.788,1.575,1.575V237.095z"/>
	<path style="fill:#5BC914;" d="M284.357,220.554c0.788,0,1.575,0.788,1.575,1.575l0,0c0,0.788-0.788,1.575-1.575,1.575h-7.877
		c-0.788,0-1.575-0.788-1.575-1.575l0,0c0-0.788,0.788-1.575,1.575-1.575H284.357z"/>
	<path style="fill:#5BC914;" d="M284.357,238.671c0.788,0,1.575,0.788,1.575,1.575l0,0c0,0.788-0.788,1.575-1.575,1.575h-7.877
		c-0.788,0-1.575-0.788-1.575-1.575l0,0c0-0.788,0.788-1.575,1.575-1.575L284.357,238.671L284.357,238.671z"/>
	<path style="fill:#5BC914;" d="M275.692,255.212c0,0.788-0.788,1.575-1.575,1.575l0,0c-0.788,0-1.575-0.788-1.575-1.575v-13.391
		c0-0.788,0.788-1.575,1.575-1.575l0,0c0.788,0,1.575,0.788,1.575,1.575V255.212z"/>
</g>
<path style="fill:#073951;" d="M288.295,255.212c0,0.788-0.788,1.575-1.575,1.575l0,0c-0.788,0-1.575-0.788-1.575-1.575v-13.391
	c0-0.788,0.788-1.575,1.575-1.575l0,0c0.788,0,1.575,0.788,1.575,1.575V255.212z"/>
<g>
	<path style="fill:#5BC914;" d="M284.357,256c0.788,0,1.575,0.788,1.575,1.575l0,0c0,0.788-0.788,1.575-1.575,1.575h-7.877
		c-0.788,0-1.575-0.788-1.575-1.575l0,0c0-0.788,0.788-1.575,1.575-1.575H284.357z"/>
	<path style="fill:#5BC914;" d="M296.172,237.095c0,0.788-0.788,1.575-1.575,1.575l0,0c-0.788,0-1.575-0.788-1.575-1.575v-13.391
		c0-0.788,0.788-1.575,1.575-1.575l0,0c0.788,0,1.575,0.788,1.575,1.575V237.095z"/>
	<path style="fill:#5BC914;" d="M308.775,237.095c0,0.788-0.788,1.575-1.575,1.575l0,0c-0.788,0-1.575-0.788-1.575-1.575v-13.391
		c0-0.788,0.788-1.575,1.575-1.575l0,0c0.788,0,1.575,0.788,1.575,1.575V237.095z"/>
	<path style="fill:#5BC914;" d="M304.837,220.554c0.788,0,1.575,0.788,1.575,1.575l0,0c0,0.788-0.788,1.575-1.575,1.575h-7.877
		c-0.788,0-1.575-0.788-1.575-1.575l0,0c0-0.788,0.788-1.575,1.575-1.575H304.837z"/>
	<path style="fill:#5BC914;" d="M304.837,238.671c0.788,0,1.575,0.788,1.575,1.575l0,0c0,0.788-0.788,1.575-1.575,1.575h-7.877
		c-0.788,0-1.575-0.788-1.575-1.575l0,0c0-0.788,0.788-1.575,1.575-1.575L304.837,238.671L304.837,238.671z"/>
	<path style="fill:#5BC914;" d="M296.172,255.212c0,0.788-0.788,1.575-1.575,1.575l0,0c-0.788,0-1.575-0.788-1.575-1.575v-13.391
		c0-0.788,0.788-1.575,1.575-1.575l0,0c0.788,0,1.575,0.788,1.575,1.575V255.212z"/>
	<path style="fill:#5BC914;" d="M308.775,255.212c0,0.788-0.788,1.575-1.575,1.575l0,0c-0.788,0-1.575-0.788-1.575-1.575v-13.391
		c0-0.788,0.788-1.575,1.575-1.575l0,0c0.788,0,1.575,0.788,1.575,1.575V255.212z"/>
	<path style="fill:#5BC914;" d="M304.837,256c0.788,0,1.575,0.788,1.575,1.575l0,0c0,0.788-0.788,1.575-1.575,1.575h-7.877
		c-0.788,0-1.575-0.788-1.575-1.575l0,0c0-0.788,0.788-1.575,1.575-1.575H304.837z"/>
	<path style="fill:#5BC914;" d="M289.083,192.985l-4.726-12.603c0,0,0,0-0.788,0h-2.363c0,0,0,0-0.788,0l-4.726,12.603
		c0,0,0,0,0,0.788l0,0h1.575c0,0,0,0,0.788,0l1.575-3.938h3.938l1.575,3.938c0,0,0,0,0.788,0L289.083,192.985
		C289.083,193.772,289.083,193.772,289.083,192.985C289.083,192.985,289.871,192.985,289.083,192.985z M285.145,187.471h-2.363
		l0.788-3.151v-0.788v0.788L285.145,187.471z"/>
	<path style="fill:#5BC914;" d="M304.049,192.985l-0.788-12.603c0,0,0-0.788-0.788-0.788h-2.363c0,0,0,0-0.788,0l-1.575,7.089
		c-0.788,0.788-0.788,2.363-0.788,3.151c0-0.788-0.788-1.575-0.788-3.151l-2.363-6.302c0,0,0,0-0.788,0h-2.363
		c0,0-0.788,0-0.788,0.788l-0.788,12.603l0,0l0,0h1.575c0,0,0.788,0,0.788-0.788v-5.514c0-0.788,0-2.363,0-3.151
		c0,0.788,0.788,1.575,0.788,2.363l2.363,6.302l0,0h1.575c0,0,0,0,0.788,0l2.363-6.302c0-0.788,0.788-1.575,0.788-2.363
		c0,0.788,0,2.363,0,3.151v5.514c0,0,0,0.788,0.788,0.788L304.049,192.985L304.049,192.985
		C304.049,193.772,304.049,193.772,304.049,192.985L304.049,192.985z"/>
</g>
<g>
	<path style="fill:#073951;" d="M282.782,201.649c-0.788,0-2.363,0-3.151,0c0,0,0,0,0,0.788v12.603c0,0,0,0.788,0.788,0.788h0.788
		c0,0,0.788,0,0.788-0.788v-4.726h0.788c1.575,0,3.151-0.788,3.938-1.575c0.788-0.788,0.788-1.575,0.788-3.151
		c0-1.575-0.788-2.363-1.575-3.151C285.932,201.649,284.357,201.649,282.782,201.649z M282.782,207.951h-0.788v-3.938h0.788
		c1.575,0,2.363,0,2.363,2.363C285.145,207.951,283.569,207.951,282.782,207.951z"/>
	<path style="fill:#073951;" d="M301.686,201.649h-2.363c0,0,0,0-0.788,0l-1.575,6.302c-0.788,0.788-0.788,2.363-0.788,3.151
		c0-0.788-0.788-1.575-0.788-3.151l-2.363-6.302c0,0,0,0-0.788,0h-2.363c0,0-0.788,0-0.788,0.788l0,12.603l0,0l0,0h1.575
		c0,0,0.788,0,0.788-0.788v-5.514c0-0.788,0-2.363,0-3.151c0,0.788,0.788,1.575,0.788,2.363l2.363,6.302c0,0,0,0,0.788,0h1.575l0,0
		l2.363-6.302c0-0.788,0.788-1.575,0.788-2.363c0,0.788,0,2.363,0,3.151v5.514c0,0,0,0.788,0.788,0.788h1.575l0,0l0,0
		L301.686,201.649L301.686,201.649z"/>
</g>
<g>
	<path style="fill:#5BC914;" d="M268.603,222.129c0,0.788-0.788,1.575-1.575,1.575l0,0c-0.788,0-1.575-0.788-1.575-1.575l0,0
		c0-0.788,0.788-1.575,1.575-1.575l0,0C267.815,220.554,268.603,221.342,268.603,222.129L268.603,222.129z"/>
	<path style="fill:#5BC914;" d="M268.603,231.582c0,0.788-0.788,1.575-1.575,1.575l0,0c-0.788,0-1.575-0.788-1.575-1.575l0,0
		c0-0.788,0.788-1.575,1.575-1.575l0,0C267.815,229.218,268.603,230.006,268.603,231.582L268.603,231.582z"/>
	<path style="fill:#5BC914;" d="M307.2,265.452c0,0.788-0.788,0.788-0.788,0.788H185.895c-0.788,0-0.788-0.788-0.788-0.788l0,0
		c0-0.788,0.788-0.788,0.788-0.788h120.517C306.412,264.665,307.2,264.665,307.2,265.452L307.2,265.452z"/>
	<path style="fill:#5BC914;" d="M307.2,270.966c0,0.788-0.788,0.788-0.788,0.788H185.895c-0.788,0-0.788-0.788-0.788-0.788l0,0
		c0-0.788,0.788-0.788,0.788-0.788h120.517C306.412,270.178,307.2,270.966,307.2,270.966L307.2,270.966z"/>
</g>
<path style="fill:#073951;" d="M185.108,296.96c0,0.788-0.788,1.575-1.575,1.575l0,0c-0.788,0-1.575-0.788-1.575-1.575v-13.391
	c0-0.788,0.788-1.575,1.575-1.575l0,0c0.788,0,1.575,0.788,1.575,1.575V296.96z"/>
<g>
	<path style="fill:#5BC914;" d="M198.498,296.96c0,0.788-0.788,1.575-1.575,1.575l0,0c-0.788,0-1.575-0.788-1.575-1.575v-13.391
		c0-0.788,0.788-1.575,1.575-1.575l0,0c0.788,0,1.575,0.788,1.575,1.575V296.96z"/>
	<path style="fill:#5BC914;" d="M194.56,279.631c0.788,0,1.575,0.788,1.575,1.575l0,0c0,0.788-0.788,1.575-1.575,1.575h-7.877
		c-0.788,0-1.575-0.788-1.575-1.575l0,0c0-0.788,0.788-1.575,1.575-1.575H194.56z"/>
	<path style="fill:#5BC914;" d="M194.56,298.535c0.788,0,1.575,0.788,1.575,1.575l0,0c0,0.788-0.788,1.575-1.575,1.575h-7.877
		c-0.788,0-1.575-0.788-1.575-1.575l0,0c0-0.788,0.788-1.575,1.575-1.575H194.56z"/>
	<path style="fill:#5BC914;" d="M185.108,315.077c0,0.788-0.788,1.575-1.575,1.575l0,0c-0.788,0-1.575-0.788-1.575-1.575v-13.391
		c0-0.788,0.788-1.575,1.575-1.575l0,0c0.788,0,1.575,0.788,1.575,1.575V315.077z"/>
</g>
<path style="fill:#073951;" d="M198.498,315.077c0,0.788-0.788,1.575-1.575,1.575l0,0c-0.788,0-1.575-0.788-1.575-1.575v-13.391
	c0-0.788,0.788-1.575,1.575-1.575l0,0c0.788,0,1.575,0.788,1.575,1.575V315.077z"/>
<path style="fill:#5BC914;" d="M194.56,316.652c0.788,0,1.575,0.788,1.575,1.575l0,0c0,0.788-0.788,1.575-1.575,1.575h-7.877
	c-0.788,0-1.575-0.788-1.575-1.575l0,0c0-0.788,0.788-1.575,1.575-1.575H194.56z"/>
<path style="fill:#073951;" d="M206.375,296.96c0,0.788-0.788,1.575-1.575,1.575l0,0c-0.788,0-1.575-0.788-1.575-1.575v-13.391
	c0-0.788,0.788-1.575,1.575-1.575l0,0c0.788,0,1.575,0.788,1.575,1.575V296.96z"/>
<g>
	<path style="fill:#5BC914;" d="M219.766,296.96c0,0.788-0.788,1.575-1.575,1.575l0,0c-0.788,0-1.575-0.788-1.575-1.575v-13.391
		c0-0.788,0.788-1.575,1.575-1.575l0,0c0.788,0,1.575,0.788,1.575,1.575V296.96z"/>
	<path style="fill:#5BC914;" d="M215.828,279.631c0.788,0,1.575,0.788,1.575,1.575l0,0c0,0.788-0.788,1.575-1.575,1.575h-7.877
		c-0.788,0-1.575-0.788-1.575-1.575l0,0c0-0.788,0.788-1.575,1.575-1.575H215.828z"/>
</g>
<g>
	<path style="fill:#073951;" d="M215.828,298.535c0.788,0,1.575,0.788,1.575,1.575l0,0c0,0.788-0.788,1.575-1.575,1.575h-7.877
		c-0.788,0-1.575-0.788-1.575-1.575l0,0c0-0.788,0.788-1.575,1.575-1.575H215.828z"/>
	<path style="fill:#073951;" d="M206.375,315.077c0,0.788-0.788,1.575-1.575,1.575l0,0c-0.788,0-1.575-0.788-1.575-1.575v-13.391
		c0-0.788,0.788-1.575,1.575-1.575l0,0c0.788,0,1.575,0.788,1.575,1.575V315.077z"/>
</g>
<path style="fill:#5BC914;" d="M219.766,315.077c0,0.788-0.788,1.575-1.575,1.575l0,0c-0.788,0-1.575-0.788-1.575-1.575v-13.391
	c0-0.788,0.788-1.575,1.575-1.575l0,0c0.788,0,1.575,0.788,1.575,1.575V315.077z"/>
<path style="fill:#073951;" d="M215.828,316.652c0.788,0,1.575,0.788,1.575,1.575l0,0c0,0.788-0.788,1.575-1.575,1.575h-7.877
	c-0.788,0-1.575-0.788-1.575-1.575l0,0c0-0.788,0.788-1.575,1.575-1.575H215.828z"/>
<path style="fill:#5BC914;" d="M242.609,293.022l-0.788-12.603c0,0,0-0.788-0.788-0.788h-2.363c0,0,0,0-0.788,0l-2.363,6.302
	c-0.788,0.788-0.788,2.363-0.788,3.151c0-0.788-0.788-1.575-0.788-3.151l-2.363-6.302c0,0,0,0-0.788,0h-2.363
	c0,0-0.788,0-0.788,0.788l-0.788,12.603l0,0l0,0h1.575c0,0,0.788,0,0.788-0.788v-5.514c0-0.788,0-2.363,0-3.151
	c0,0.788,0.788,1.575,0.788,2.363l2.363,6.302l0,0h1.575c0,0,0,0,0.788,0l2.363-6.302c0-0.788,0.788-1.575,0.788-2.363
	c0,0.788,0,2.363,0,3.151v5.514c0,0,0,0.788,0.788,0.788H242.609L242.609,293.022C242.609,293.809,242.609,293.022,242.609,293.022
	L242.609,293.022z"/>
<g>
	<path style="fill:#073951;" d="M308.775,281.206c0,1.575-0.788,2.363-2.363,2.363h-36.234c-1.575,0-2.363-0.788-2.363-2.363l0,0
		c0-1.575,0.788-2.363,2.363-2.363h36.234C307.2,278.843,308.775,280.418,308.775,281.206L308.775,281.206z"/>
	<path style="fill:#073951;" d="M308.775,289.871c0,1.575-0.788,2.363-2.363,2.363h-36.234c-1.575,0-2.363-0.788-2.363-2.363l0,0
		c0-1.575,0.788-2.363,2.363-2.363h36.234C307.2,287.508,308.775,288.295,308.775,289.871L308.775,289.871z"/>
</g>
<g>
	<path style="fill:#5BC914;" d="M308.775,298.535c0,1.575-0.788,2.363-2.363,2.363h-36.234c-1.575,0-2.363-0.788-2.363-2.363l0,0
		c0-1.575,0.788-2.363,2.363-2.363h36.234C307.2,296.172,308.775,296.96,308.775,298.535L308.775,298.535z"/>
	<path style="fill:#5BC914;" d="M308.775,306.412c0,1.575-0.788,2.363-2.363,2.363h-36.234c-1.575,0-2.363-0.788-2.363-2.363l0,0
		c0-1.575,0.788-2.363,2.363-2.363h36.234C307.2,304.049,308.775,305.625,308.775,306.412L308.775,306.412z"/>
	<path style="fill:#5BC914;" d="M308.775,315.077c0,1.575-0.788,2.363-2.363,2.363h-36.234c-1.575,0-2.363-0.788-2.363-2.363l0,0
		c0-1.575,0.788-2.363,2.363-2.363h36.234C307.2,312.714,308.775,313.502,308.775,315.077L308.775,315.077z"/>
</g>
<g>
</g>
<g>
</g>
<g>
</g>
<g>
</g>
<g>
</g>
<g>
</g>
<g>
</g>
<g>
</g>
<g>
</g>
<g>
</g>
<g>
</g>
<g>
</g>
<g>
</g>
<g>
</g>
<g>
</g>
</svg>
