<?xml version="1.0" encoding="UTF-8"?>
<svg width="78px" height="43px" viewBox="0 0 78 43" version="1.1" xmlns="http://www.w3.org/2000/svg" xmlns:xlink="http://www.w3.org/1999/xlink">
    <!-- Generator: Sketch 42 (36781) - http://www.bohemiancoding.com/sketch -->
    <title>beach-chair</title>
    <desc>Created with Sketch.</desc>
    <defs></defs>
    <g id="Activity-Finder" stroke="none" stroke-width="1" fill="none" fill-rule="evenodd">
        <g id="Artboard" transform="translate(-190.000000, -426.000000)" fill-rule="nonzero">
            <g id="beach-chair" transform="translate(190.000000, 426.355422)">
                <g id="Layer_1">
                    <polygon id="Shape" fill="#1EB8E8" points="67.5988828 41.0469127 75.0577852 41.0469127 70.2586523 29.0298447 62.7995977 29.0298447"></polygon>
                    <path d="M65.3239336,17.1351132 L26.9773359,17.1351132 C25.3679766,17.1351132 23.8926797,16.2458326 23.1519844,14.8292969 L19.032457,6.95022289 C17.7393633,4.47721343 14.932582,3.17289501 12.1881094,3.76977625 L6.02656641,5.10988941 L17.9666602,27.7123864 L70.2583477,28.0532672 L70.2583477,22.0275155 C70.2586523,19.3255404 68.0493633,17.1351132 65.3239336,17.1351132 Z" id="Shape" fill="#FF6F43"></path>
                    <polygon id="Shape" fill="#000000" opacity="0.1" points="70.2586523 29.0298447 62.7995977 29.0298447 65.8793789 36.7412724 73.3382812 36.7412724"></polygon>
                    <path d="M75.0577852,24.2720125 L19.9806445,24.2720125 L8.44380469,2.20643675 C7.98585937,1.33059811 6.89858203,0.988660069 6.01514062,1.44251334 L2.11300781,3.44762349 C1.22956641,3.9016278 0.884660156,4.97954819 1.34245312,5.85538683 L13.9982578,30.061247 C14.6857852,31.3762887 16.0550508,32.2015314 17.5487812,32.2015314 L75.0574805,32.2015314 C76.0524375,32.2015314 76.8590977,31.4018133 76.8590977,30.4154187 L76.8590977,26.0581252 C76.8594023,25.0717306 76.0527422,24.2720125 75.0577852,24.2720125 Z" id="Shape" fill="#8FE5F7"></path>
                    <ellipse id="Oval" fill="#1EB8E8" cx="19.0376367" cy="34.3371338" rx="6.76771875" ry="6.70947676"></ellipse>
                    <ellipse id="Oval" fill="#000000" cx="19.0345898" cy="34.3341132" rx="2.94663281" ry="2.92127453"></ellipse>
                    <path d="M5.85472266,12.0244686 C5.85472266,12.0244686 2.35584375,5.33266265 2.35432031,5.329642 C2.19344531,5.02198838 2.31349219,4.61691867 2.63524219,4.4516889 C2.63524219,4.4516889 6.53219531,2.44899527 6.537375,2.44642771 C6.85546875,2.28301033 7.25857031,2.41093503 7.42294922,2.72493201 L18.9597891,24.7903567 C19.1564648,25.1667302 19.548293,25.4030964 19.9760742,25.4030964 L45.9225,25.4030964 C46.5548789,25.4030964 47.0672109,24.8950224 47.0672109,24.2682367 C47.0672109,23.6414509 46.5548789,23.1333769 45.9225,23.1333769 L20.6722852,23.1333769 L11.2588125,5.1292216 L12.4289648,4.8747315 C14.6641523,4.38885929 16.9590586,5.45545224 18.0116016,7.46902022 L22.1311289,15.3482453 C23.0723086,17.148404 24.9275508,18.2668012 26.9727656,18.2668012 L56.1488789,18.2668012 C56.7812578,18.2668012 57.2935898,17.7587272 57.2935898,17.1319415 C57.2935898,16.5051558 56.7812578,15.9970818 56.1488789,15.9970818 L26.9730703,15.9970818 C25.7864648,15.9970818 24.7101562,15.3482453 24.1640039,14.3040052 L20.0446289,6.42493115 C18.5161641,3.50154217 15.1834922,1.95255077 11.9385703,2.65817556 L10.1681836,3.04315792 C10.1681836,3.04315792 9.45628125,1.68159811 9.45597656,1.68114501 C8.71741406,0.268536145 6.9103125,-0.301159208 5.48422266,0.431953528 C5.48422266,0.431953528 1.58452734,2.43600645 1.58224219,2.43706368 C0.159199219,3.16821299 -0.41559375,4.96368976 0.322054687,6.37463726 L3.82260937,13.0694639 C4.11358594,13.6260194 4.80492187,13.8430534 5.36554687,13.5547319 C5.92662891,13.2659574 6.14585156,12.5808731 5.85472266,12.0244686 Z" id="Shape" fill="#000000"></path>
                    <path d="M77.9996953,30.4116429 L77.9996953,26.0543494 C77.9996953,24.4437367 76.6781133,23.1332259 75.0532148,23.1332259 L71.3989453,23.1332259 L71.3989453,22.0235886 C71.3989453,18.7002651 68.6716875,15.9963266 65.3193633,15.9963266 L60.7280273,15.9963266 C60.0956484,15.9963266 59.5833164,16.5044006 59.5833164,17.1311863 C59.5833164,17.757972 60.0956484,18.266046 60.7280273,18.266046 L65.3193633,18.266046 C67.4090625,18.266046 69.1093711,19.951571 69.1093711,22.0234376 L69.1093711,23.1330749 L50.5016484,23.1330749 C49.8692695,23.1330749 49.3569375,23.6411489 49.3569375,24.2679346 C49.3569375,24.8947203 49.8692695,25.4027943 50.5016484,25.4027943 L70.2542344,25.4027943 L75.0533672,25.4027943 C75.4156406,25.4027943 75.7102734,25.6950426 75.7102734,26.0540473 L75.7102734,30.4113408 C75.7102734,30.7704966 75.4154883,31.0625938 75.0533672,31.0625938 L26.2264336,31.0625938 C26.2083047,31.0231743 26.1886523,30.9845099 26.1697617,30.9455435 C26.1667148,30.9393511 26.1638203,30.9331588 26.1607734,30.9269664 C25.204207,28.9556876 23.4706875,27.4908214 21.4038398,26.8484793 C21.3930234,26.8451566 21.382207,26.8416829 21.3713906,26.8383602 C18.9614648,26.1019247 16.2608672,26.5734488 14.2525195,28.0852861 L8.0656875,16.2524781 C7.77471094,15.6957715 7.083375,15.4788886 6.52275,15.767059 C5.96136328,16.0555314 5.74229297,16.7404647 6.03326953,17.2968692 L12.5755195,29.8099286 C11.6613047,31.0893266 11.1215508,32.6496454 11.1215508,34.333358 C11.1215508,38.6587836 14.6711602,42.1776945 19.0341328,42.1776945 C23.3971055,42.1776945 26.9465625,38.6587836 26.9465625,34.333358 C26.9465625,33.9941386 26.9223398,33.6606583 26.8798359,33.3324643 L63.2840508,33.3324643 L66.5300391,41.4605912 C66.7029492,41.8932999 67.1247891,42.1776945 67.5944648,42.1776945 L75.0533672,42.1776945 C75.8479922,42.1776945 76.410293,41.357889 76.117793,40.6250783 L73.2054375,33.3326153 L75.0533672,33.3326153 C76.6781133,33.3327664 77.9996953,32.0224066 77.9996953,30.4116429 Z M19.0339805,39.9082771 C15.9333281,39.9082771 13.4108203,37.4074776 13.4108203,34.3336601 C13.4108203,31.6942126 15.3644766,29.3719337 17.9799141,28.8647659 C18.4768594,28.7684071 18.9870586,28.7380495 19.4920781,28.7783752 C21.8729062,28.9677702 23.9517891,30.7467844 24.5046445,33.0465594 C25.0504922,35.3167319 24.0655898,37.7337083 22.0980703,39.0061588 C21.1901016,39.5932229 20.1179062,39.9082771 19.0339805,39.9082771 Z M73.3689023,39.9082771 L68.3724844,39.9082771 L65.7465352,33.3329174 L70.7429531,33.3329174 L73.3689023,39.9082771 Z" id="Shape" fill="#000000"></path>
                </g>
            </g>
        </g>
    </g>
</svg>