<?xml version="1.0" encoding="UTF-8"?>
<svg width="78px" height="62px" viewBox="0 0 78 62" version="1.1" xmlns="http://www.w3.org/2000/svg" xmlns:xlink="http://www.w3.org/1999/xlink">
    <!-- Generator: Sketch 42 (36781) - http://www.bohemiancoding.com/sketch -->
    <title>camera</title>
    <desc>Created with Sketch.</desc>
    <defs></defs>
    <g id="Activity-Finder" stroke="none" stroke-width="1" fill="none" fill-rule="evenodd">
        <g id="Artboard" transform="translate(-190.000000, -645.000000)" fill-rule="nonzero">
            <g id="camera" transform="translate(190.000000, 645.000000)">
                <g id="Layer_1">
                    <path d="M73.8681287,11.6542339 L3.66721637,11.6542339 C2.18521637,11.6542339 0.984046784,12.8550994 0.984046784,14.3370994 L0.984046784,57.486152 C0.984046784,58.9676959 2.18506433,60.1690175 3.66721637,60.1690175 L73.8681287,60.1690175 C75.3498246,60.1690175 76.5512982,58.967848 76.5512982,57.486152 L76.5512982,14.3369474 C76.5511462,12.8550994 75.3498246,11.6542339 73.8681287,11.6542339 Z" id="Shape" fill="#EF5552"></path>
                    <path d="M4.03182456,57.486152 L4.03182456,14.3369474 C4.03182456,12.8550994 5.23284211,11.6540819 6.71499415,11.6540819 L3.66721637,11.6540819 C2.18521637,11.6540819 0.984046784,12.8549474 0.984046784,14.3369474 L0.984046784,57.486 C0.984046784,58.9675439 2.18506433,60.1688655 3.66721637,60.1688655 L6.71469006,60.1688655 C5.23284211,60.1688655 4.03182456,58.9676959 4.03182456,57.486152 Z" id="Shape" fill="#CE2C28"></path>
                    <circle id="Oval" fill="#989DA0" cx="46.2568889" cy="35.9117778" r="17.3267953"></circle>
                    <path d="M31.983193,35.9116257 C31.983193,26.8567836 38.9292982,19.425345 47.7835906,18.6524912 C47.2806199,18.6085497 46.7718713,18.5848304 46.257345,18.5848304 C36.6876725,18.5848304 28.9305497,26.3425614 28.9305497,35.9116257 C28.9305497,46.026538 37.5850526,54.0620585 47.7835906,53.1707602 C38.9292982,52.3977544 31.983193,44.9663158 31.983193,35.9116257 Z" id="Shape" fill="#767A7C"></path>
                    <ellipse id="Oval" fill="#CACBCC" cx="46.2568889" cy="35.9117778" rx="11.6627485" ry="11.6627485"></ellipse>
                    <path d="M37.6939181,35.9116257 C37.6939181,29.9962456 42.0991696,25.112655 47.8071579,24.3540936 C47.2999298,24.2867368 46.7834269,24.2485731 46.2574971,24.2485731 C39.8161871,24.2485731 34.5944444,29.4703158 34.5944444,35.9116257 C34.5944444,42.9053216 40.7400234,48.4083509 47.8070058,47.4691579 C42.0990175,46.7104444 37.6939181,41.8268538 37.6939181,35.9116257 Z" id="Shape" fill="#BABABA"></path>
                    <circle id="Oval" fill="#EFEFEF" cx="46.2568889" cy="35.9117778" r="2.90576608"></circle>
                    <path d="M46.257345,35.9116257 C46.257345,34.8365029 46.8425731,33.9000468 47.7106082,33.3972281 C47.2829006,33.1493918 46.7875322,33.0052515 46.257345,33.0052515 C44.651883,33.0052515 43.3509708,34.3066199 43.3509708,35.9116257 C43.3509708,37.5166316 44.6521871,38.818 46.257345,38.818 C46.7872281,38.818 47.2825965,38.6738596 47.7106082,38.4260234 C46.8425731,37.9230526 46.257345,36.9867485 46.257345,35.9116257 Z" id="Shape" fill="#E1E1E1"></path>
                    <path d="M21.4036257,3.71723977 C21.4036257,2.35900585 20.3029591,1.25818713 18.944269,1.25818713 L10.0014854,1.25818713 C8.64309942,1.25818713 7.54243275,2.35900585 7.54243275,3.71723977 C7.54243275,5.07577778 8.64309942,6.17659649 10.0014854,6.17659649 L18.944269,6.17659649 C20.302655,6.17659649 21.4036257,5.07562573 21.4036257,3.71723977 Z" id="Shape" fill="#989DA0"></path>
                    <path d="M18.944269,3.71739181 L10.0014854,3.71739181 C9.09178947,3.71739181 8.29932164,3.22217544 7.87404678,2.48778947 C6.9254269,4.12578947 8.112,6.17659649 10.0014854,6.17659649 L18.944269,6.17659649 C20.8367953,6.17659649 22.0194152,4.12366082 21.0720117,2.48778947 C20.6465848,3.22232749 19.854117,3.71739181 18.944269,3.71739181 Z" id="Shape" fill="#72797C"></path>
                    <ellipse id="Oval" fill="#6EDCF9" cx="68.279193" cy="19.8150409" rx="2.90576608" ry="2.90576608"></ellipse>
                    <path d="M68.2790409,19.8144327 C68.2790409,18.7393099 68.864269,17.8028538 69.7323041,17.3000351 C69.3044444,17.0521988 68.8092281,16.9080585 68.2790409,16.9080585 C66.6735789,16.9080585 65.3726667,18.2094269 65.3726667,19.8144327 C65.3726667,21.4197427 66.673883,22.720807 68.2790409,22.720807 C68.808924,22.720807 69.3041404,22.5766667 69.7323041,22.3288304 C68.864269,21.8260117 68.2790409,20.8897076 68.2790409,19.8144327 Z" id="Shape" fill="#36BEDD"></path>
                    <g id="Group" fill="#231F20">
                        <path d="M74.0242807,10.513731 L26.7594737,10.513731 C26.1295439,10.513731 25.6191228,11.024152 25.6191228,11.6540819 C25.6191228,12.2840117 26.1295439,12.7944327 26.7594737,12.7944327 L74.0244327,12.7944327 C74.8749825,12.7944327 75.5672515,13.4863977 75.5672515,14.3369474 L75.5672515,57.486 C75.5672515,58.3363977 74.8751345,59.0285146 74.0244327,59.0285146 L3.82367251,59.0285146 C2.97312281,59.0285146 2.2808538,58.3365497 2.2808538,57.486 L2.2808538,14.3369474 C2.2808538,13.4865497 2.97297076,12.7944327 3.82367251,12.7944327 L22.6540585,12.7944327 C23.2839883,12.7944327 23.7944094,12.2840117 23.7944094,11.6540819 C23.7944094,11.024152 23.2839883,10.513731 22.6540585,10.513731 L3.82367251,10.513731 C1.71523977,10.513731 0,12.2288187 0,14.3369474 L0,57.486 C0,59.5941287 1.71523977,61.3093684 3.82367251,61.3093684 L74.0245848,61.3093684 C76.1328655,61.3093684 77.8481053,59.5942807 77.8481053,57.486 L77.8481053,14.3369474 C77.8479532,12.2288187 76.1325614,10.513731 74.0242807,10.513731 Z" id="Shape"></path>
                        <path d="M46.4134971,17.4443275 C36.2306199,17.4443275 27.9463509,25.7285965 27.9463509,35.9114737 C27.9463509,46.0943509 36.2306199,54.3786199 46.4134971,54.3786199 C56.5963743,54.3786199 64.8806433,46.0943509 64.8806433,35.9114737 C64.8806433,25.7285965 56.5965263,17.4443275 46.4134971,17.4443275 Z M46.4134971,52.0979181 C37.4881988,52.0979181 30.2272047,44.8367719 30.2272047,35.9116257 C30.2272047,26.9864795 37.4883509,19.7253333 46.4134971,19.7253333 C55.3386433,19.7253333 62.5997895,26.9864795 62.5997895,35.9116257 C62.5997895,44.8367719 55.3389474,52.0979181 46.4134971,52.0979181 Z" id="Shape"></path>
                        <path d="M46.4134971,23.1080702 C39.3535088,23.1080702 33.6100936,28.8514854 33.6100936,35.9114737 C33.6100936,42.971462 39.3535088,48.7148772 46.4134971,48.7148772 C53.4734854,48.7148772 59.2169006,42.9713099 59.2169006,35.9114737 C59.2170526,28.8516374 53.4734854,23.1080702 46.4134971,23.1080702 Z M46.4134971,46.4341754 C40.6113918,46.4341754 35.8909474,41.713731 35.8909474,35.9116257 C35.8909474,30.1095205 40.6113918,25.389076 46.4134971,25.389076 C52.2156023,25.389076 56.9360468,30.1095205 56.9360468,35.9116257 C56.9360468,41.713731 52.2157544,46.4341754 46.4134971,46.4341754 Z" id="Shape"></path>
                        <path d="M68.435193,23.8613099 C70.6666316,23.8613099 72.4820702,22.0457193 72.4820702,19.8144327 C72.4820702,17.5831462 70.6666316,15.7675556 68.435193,15.7675556 C66.2037544,15.7675556 64.3883158,17.5829942 64.3883158,19.8144327 C64.3883158,22.0458713 66.2039064,23.8613099 68.435193,23.8613099 Z M68.435193,18.0482573 C69.4089006,18.0482573 70.2012164,18.8404211 70.2012164,19.8142807 C70.2012164,20.7879883 69.4090526,21.5803041 68.435193,21.5803041 C67.4613333,21.5803041 66.6691696,20.7881404 66.6691696,19.8142807 C66.6693216,18.8405731 67.4614854,18.0482573 68.435193,18.0482573 Z" id="Shape"></path>
                        <path d="M46.4134971,31.8647485 C44.1820585,31.8647485 42.3666199,33.6803392 42.3666199,35.9116257 C42.3666199,38.1429123 44.1820585,39.9585029 46.4134971,39.9585029 C48.6449357,39.9585029 50.4603743,38.1430643 50.4603743,35.9116257 C50.4603743,33.6801871 48.6449357,31.8647485 46.4134971,31.8647485 Z M46.4134971,37.6774971 C45.4397895,37.6774971 44.6474737,36.8853333 44.6474737,35.9114737 C44.6474737,34.937614 45.4396374,34.1454503 46.4134971,34.1454503 C47.3872047,34.1454503 48.1795205,34.937614 48.1795205,35.9114737 C48.1795205,36.8853333 47.3875088,37.6774971 46.4134971,37.6774971 Z" id="Shape"></path>
                        <path d="M10.1577895,7.31694737 L19.1005731,7.31694737 C21.0855439,7.31694737 22.7002807,5.70205848 22.7002807,3.71723977 C22.7002807,1.73242105 21.0853918,0.117836257 19.1005731,0.117836257 L10.1577895,0.117836257 C8.17297076,0.117836257 6.55838596,1.7325731 6.55838596,3.71723977 C6.55838596,5.70221053 8.17297076,7.31694737 10.1577895,7.31694737 Z M10.1577895,2.39869006 L19.1005731,2.39869006 C19.8278129,2.39869006 20.4195789,2.99030409 20.4195789,3.71739181 C20.4195789,4.44463158 19.8279649,5.03639766 19.1005731,5.03639766 L10.1577895,5.03639766 C9.4308538,5.03639766 8.83908772,4.44478363 8.83908772,3.71739181 C8.83923977,2.99015205 9.43070175,2.39869006 10.1577895,2.39869006 Z" id="Shape"></path>
                        <path d="M21.5597778,16.5128889 L7.69873684,16.5128889 C7.06880702,16.5128889 6.55838596,17.0233099 6.55838596,17.6532398 C6.55838596,18.2831696 7.06880702,18.7935906 7.69873684,18.7935906 L21.5597778,18.7935906 C22.1897076,18.7935906 22.7001287,18.2831696 22.7001287,17.6532398 C22.7001287,17.0233099 22.1897076,16.5128889 21.5597778,16.5128889 Z" id="Shape"></path>
                        <path d="M21.5597778,21.4312982 L7.69873684,21.4312982 C7.06880702,21.4312982 6.55838596,21.9417193 6.55838596,22.5716491 C6.55838596,23.2015789 7.06880702,23.712 7.69873684,23.712 L21.5597778,23.712 C22.1897076,23.712 22.7001287,23.2015789 22.7001287,22.5716491 C22.7001287,21.9418713 22.1897076,21.4312982 21.5597778,21.4312982 Z" id="Shape"></path>
                        <path d="M21.5597778,26.3500117 L7.69873684,26.3500117 C7.06880702,26.3500117 6.55838596,26.8604327 6.55838596,27.4903626 C6.55838596,28.1202924 7.06880702,28.6307135 7.69873684,28.6307135 L21.5597778,28.6307135 C22.1897076,28.6307135 22.7001287,28.1202924 22.7001287,27.4903626 C22.7001287,26.8605848 22.1897076,26.3500117 21.5597778,26.3500117 Z" id="Shape"></path>
                    </g>
                </g>
            </g>
        </g>
    </g>
</svg>