<?xml version="1.0" encoding="UTF-8"?>
<svg width="67px" height="69px" viewBox="0 0 67 69" version="1.1" xmlns="http://www.w3.org/2000/svg" xmlns:xlink="http://www.w3.org/1999/xlink">
    <!-- Generator: Sketch 42 (36781) - http://www.bohemiancoding.com/sketch -->
    <title>canoe</title>
    <desc>Created with Sketch.</desc>
    <defs></defs>
    <g id="Activity-Finder" stroke="none" stroke-width="1" fill="none" fill-rule="evenodd">
        <g id="Artboard" transform="translate(-69.000000, -298.000000)">
            <g id="canoe" transform="translate(69.000000, 298.000000)">
                <g id="Capa_1">
                    <g id="Group">
                        <path d="M51.4129538,55.7706162 C51.2424354,55.6086774 51.0739075,55.4388695 50.9060431,55.2632633 L50.9056008,55.2632633 C51.0736864,55.4396979 51.2424354,55.6082633 51.4129538,55.7706162 Z" id="Shape"></path>
                        <path d="M51.4639542,55.5536051 C52.0149901,55.8163788 52.6137485,56.0187575 53.3793766,56.1250462 C52.6135894,56.0187575 52.0159445,55.81606 51.4639542,55.5536051 Z" id="Shape"></path>
                        <path d="M16.1646646,55.2631039 C15.9967301,55.4387261 15.8283519,55.6081205 15.6577553,55.7704569 C15.8283519,55.6081205 15.996952,55.4395565 16.1651083,55.2635191 C16.1651083,55.2631039 16.1648864,55.2631039 16.1646646,55.2631039 Z" id="Shape"></path>
                        <path d="M15.4776824,55.7341653 C15.6477267,55.6448712 15.8173077,55.5545624 15.9850354,55.4607021 C15.8173077,55.554055 15.6481901,55.6448712 15.4776824,55.7341653 Z" id="Shape"></path>
                        <path d="M51.2746549,55.4607021 C51.4419293,55.5545624 51.6115077,55.6458859 51.7820078,55.73518 C51.6115077,55.6453785 51.4423901,55.554055 51.2746549,55.4607021 Z" id="Shape"></path>
                        <path d="M35.8039718,37.6311339 L37.7951139,33.3537714 C37.3237746,33.5472263 36.8403456,33.7129538 36.3441906,33.8425081 C35.3553802,34.1006605 34.3406406,34.2290993 33.3115842,34.2290993 C32.1011823,34.2290993 30.8707369,34.0480739 29.6382236,33.695903 C29.3891121,35.1064988 28.9645408,36.6711894 28.4378434,38.4224827 C30.538111,39.4885566 33.17128,39.2088915 35.8039718,37.6311339 Z" id="Shape"></path>
                        <path d="M33.8206243,41.8917644 C32.9215322,42.1190023 32.0276896,42.2351709 31.1542086,42.2351709 C29.8663372,42.2353303 28.623643,41.9857829 27.4727352,41.4865289 C27.1413819,42.4668707 26.796189,43.387455 26.4284076,44.2414296 L32.7268244,44.2414296 L33.8206243,41.8917644 Z" id="Shape"></path>
                        <path d="M21.837184,29.6719122 C21.9612625,28.8005681 22.7669776,28.1947067 23.6367998,28.3196397 C24.5066221,28.4439353 25.1109482,29.25106 24.9867106,30.1224042 C24.6773096,32.2942309 25.0062768,34.311485 25.8644866,35.8788845 C26.5060362,33.5674642 26.8517062,31.7329885 26.6429998,30.3694018 C26.4521098,29.1226212 25.7865398,27.8162425 22.2407574,26.7077806 C21.0138117,26.3238984 20.0062304,26.1372956 19.1599512,26.1372956 C16.3435278,26.1372956 15.2048687,28.3507136 12.9951575,35.4591478 C11.6519279,39.7656721 11.3143707,42.5173857 11.9325363,44.2414296 L22.9096679,44.2414296 C23.5039722,43.0950416 24.1060712,41.5917021 24.7342585,39.6286282 C22.3683355,37.2819908 21.2726267,33.6334365 21.837184,29.6719122 Z" id="Shape" fill="#B4F0DF" fill-rule="nonzero"></path>
                        <path d="M24.9604632,20.0657737 C25.2872033,20.1189977 25.6188747,20.1460878 25.9462512,20.1460878 C28.9223859,20.1460878 31.430681,18.003582 31.9101332,15.0515612 C32.4463751,11.7510346 30.2015082,8.62866513 26.9059508,8.09132564 C26.5822331,8.03857968 26.253266,8.01180831 25.9284347,8.01180831 C22.9950912,8.01180831 20.4274611,10.2002079 19.9559627,13.102351 C19.6957159,14.7036928 20.073201,16.3096559 21.0192202,17.6244804 C21.964444,18.9385081 23.3641452,19.8053903 24.9604632,20.0657737 Z" id="Shape" fill="#F19C7D" fill-rule="nonzero"></path>
                        <path d="M24.4493551,23.2114088 C24.9443966,23.2922009 25.4480282,23.3331547 25.9462512,23.3331547 C30.4899113,23.3331547 34.3188473,20.0656143 35.0502743,15.5635635 C35.8683972,10.5284758 32.444148,5.76540416 27.4170589,4.94569053 C26.9248807,4.86537644 26.4241125,4.82474134 25.9285938,4.82474134 C23.7608784,4.82474134 21.648362,5.59999538 19.9798239,7.00788222 C18.2929923,8.43122633 17.1694454,10.4137413 16.8158216,12.5903487 C16.4189294,15.0322794 16.9950991,17.4818591 18.4379097,19.4876397 C19.8799248,21.4919861 22.0147118,22.8144596 24.4493551,23.2114088 Z M19.9561218,13.1025104 C20.4276202,10.2003672 22.9952502,8.01196767 25.9285938,8.01196767 C26.253425,8.01196767 26.5822331,8.03873903 26.9061099,8.09148499 C30.2016673,8.62882448 32.4465342,11.751194 31.9102922,15.0517206 C31.430681,18.003582 28.922545,20.1462471 25.9464102,20.1462471 C25.6188747,20.1462471 25.2872033,20.119157 24.9606223,20.065933 C23.3643043,19.8055497 21.9646031,18.9386674 21.0195384,17.6247991 C20.0735191,16.3098152 19.695875,14.7036928 19.9561218,13.1025104 Z" id="Shape" fill="#000000" fill-rule="nonzero"></path>
                        <path d="M50.3849482,54.9600139 C50.4904776,55.0229256 50.5949924,55.0848227 50.6995071,55.1467197 C50.5949924,55.0848227 50.4904776,55.023433 50.3849482,54.9600139 Z" id="Shape" fill="#F7CF40" fill-rule="nonzero"></path>
                        <path d="M50.5876098,55.0801663 C50.7149554,55.1552545 50.8428084,55.229328 50.9696466,55.3028942 C50.842301,55.229328 50.7149554,55.1552545 50.5876098,55.0801663 Z" id="Shape" fill="#F7CF40" fill-rule="nonzero"></path>
                        <path d="M16.2184948,55.3051123 C16.3468551,55.2310388 16.4757228,55.1559505 16.6045904,55.0798476 C16.4757228,55.1559505 16.3468551,55.2305314 16.2184948,55.3051123 Z" id="Shape" fill="#F7CF40" fill-rule="nonzero"></path>
                        <path d="M16.4426315,55.1466904 C16.5466389,55.0847934 16.6511536,55.0228963 16.7561757,54.9604919 C16.6511536,55.0228963 16.5471463,55.0847934 16.4426315,55.1466904 Z" id="Shape" fill="#F7CF40" fill-rule="nonzero"></path>
                        <path d="M26.469608,53.5867067 C27.4720989,52.9739931 28.394575,52.5416674 28.9793348,52.2921201 L31.2432906,47.4284965 L4.29947995,47.4284965 C4.87103654,48.0079053 5.72447408,48.7171871 6.97591735,49.5223995 C9.82940527,51.3586282 13.7024051,52.9942309 17.9350735,54.1586259 C17.9349144,54.1586259 17.9347553,54.1587852 17.9345963,54.1589446 C19.1181145,53.544 20.5878087,53.0219584 22.8579685,53.0219584 C24.3645681,53.0221178 25.5175439,53.2525427 26.469608,53.5867067 Z" id="Shape" fill="#F7CF40" fill-rule="nonzero"></path>
                        <path d="M51.186631,55.4222991 C51.050153,55.3461962 50.9141824,55.2685712 50.7777045,55.1904388 C50.9136751,55.2680638 51.0496457,55.3467035 51.1856162,55.4222991 L51.186631,55.4222991 Z" id="Shape" fill="#F7CF40" fill-rule="nonzero"></path>
                        <path d="M16.4321977,55.1898014 C16.2952124,55.2684411 16.1582271,55.3460661 16.0212418,55.4226764 L16.0222565,55.4226764 C16.1587344,55.3470808 16.2957197,55.2679337 16.4321977,55.1898014 Z" id="Shape" fill="#F7CF40" fill-rule="nonzero"></path>
                        <path d="M37.9470306,54.8425704 C39.3667753,53.9892333 40.9759783,53.0219584 44.0679197,53.0219584 C46.339352,53.0219584 47.8095235,53.5443187 48.9932008,54.159582 C48.9927236,54.1594226 48.9924054,54.1591039 48.9919282,54.1589446 C53.2249148,52.9945497 57.0982327,51.3589469 59.9518797,49.5225589 C61.203323,48.7173464 62.0569196,48.0080647 62.6284762,47.4284965 L34.7539175,47.4284965 L31.8630469,53.6389746 C32.0353252,54.2059538 32.2742559,55.1000855 32.4484431,56.1588291 C32.7581621,56.1906998 33.0922197,56.2090254 33.4628645,56.2090254 C35.6735303,56.2091848 36.6768165,55.6060323 37.9470306,54.8425704 Z" id="Shape" fill="#F7CF40" fill-rule="nonzero"></path>
                        <path d="M26.469608,53.5867067 C25.5175439,53.2525427 24.3645681,53.0219584 22.8579685,53.0219584 C20.5878087,53.0219584 19.1181145,53.544 17.9345963,54.1589446 C17.5063663,54.3815612 17.1145645,54.6158106 16.7372385,54.8425704 C16.6710633,54.8824088 16.6056835,54.9216097 16.5407808,54.9603326 C16.5078523,54.9800924 16.4750829,54.9993741 16.4424725,55.0188152 C16.4081123,55.0392125 16.373593,55.0596097 16.3393919,55.0796882 C16.2989868,55.1034319 16.2585817,55.1270162 16.2183358,55.1504411 C16.195588,55.1636674 16.1726812,55.1767344 16.1499335,55.1898014 C16.1071423,55.2143418 16.064192,55.2390416 16.0214009,55.2631039 C15.9009811,55.3306697 15.779925,55.3953672 15.6575963,55.4576744 C15.6556874,55.4586305 15.6536194,55.459746 15.6517105,55.4607021 C15.5941253,55.4900231 15.5359039,55.5185473 15.4775233,55.5465935 C15.4724329,55.5489838 15.4675016,55.5513741 15.4624112,55.5537644 C14.6349029,55.9483233 13.7046321,56.2090254 12.2535497,56.2090254 C10.043043,56.2090254 9.03975681,55.6060323 7.76954269,54.8425704 C6.34979803,53.9892333 4.74059501,53.0219584 1.6488127,53.0219584 C0.770400377,53.0219584 0.0580623865,53.7353834 0.0580623865,54.6154919 C0.0580623865,55.4954411 0.770241302,56.2090254 1.6488127,56.2090254 C3.85947841,56.2090254 4.86244649,56.8120185 6.13266061,57.5754804 C7.55256434,58.4286582 9.16176736,59.3960924 12.2537087,59.3960924 C15.3454911,59.3960924 16.954535,58.4288176 18.3744387,57.5754804 C19.6443347,56.8120185 20.6476209,56.2090254 22.8579685,56.2090254 C23.0036812,56.2090254 23.1435082,56.2118938 23.2790401,56.2171524 C23.3991417,56.0635358 23.5136758,55.9285635 23.6205742,55.8179723 C24.4973958,54.9102956 25.5194528,54.1675497 26.469608,53.5867067 Z" id="Shape" fill="#6ECCAE" fill-rule="nonzero"></path>
                        <path d="M53.3793766,56.1252055 C52.6137485,56.0187575 52.0149901,55.8163788 51.4639542,55.5537644 C51.4591819,55.5515335 51.4544097,55.5493025 51.4496374,55.5469122 C51.3909387,55.5188661 51.3323991,55.4901824 51.2744958,55.4607021 C51.2730641,55.4600647 51.2717915,55.4592679 51.2703599,55.4586305 C51.147713,55.396164 51.0263388,55.3313072 50.9054417,55.2634226 C50.8628096,55.2395196 50.8201775,55.2149792 50.7775454,55.1905982 C50.7541614,55.1772125 50.7306183,55.1638268 50.7072342,55.1502818 C50.6674655,55.1271755 50.6273786,55.1039099 50.5874507,55.0803256 C50.5529315,55.0600878 50.5182531,55.0395312 50.4834157,55.0188152 C50.4506462,54.9993741 50.4177177,54.979933 50.3847892,54.9601732 C50.3200456,54.9214503 50.2548249,54.8824088 50.1889678,54.8427298 C49.812119,54.6162887 49.4207945,54.3820393 48.9930417,54.1597413 C47.8092053,53.5443187 46.3390339,53.0221178 44.0677606,53.0221178 C40.9759783,53.0221178 39.3666162,53.9892333 37.9468715,54.8427298 C36.6766574,55.6061917 35.6733712,56.2091848 33.4627055,56.2091848 C33.0920606,56.2091848 32.7580031,56.1908591 32.448284,56.1589885 C32.6079953,57.1305658 32.711235,58.2406212 32.6576267,59.3704365 C32.9156464,59.3857344 33.1809836,59.3962517 33.4627055,59.3962517 C36.5546468,59.3962517 38.1640089,58.4289769 39.5837536,57.5756397 C40.8539677,56.8121778 41.8572539,56.2091848 44.0679197,56.2091848 C46.2787444,56.2091848 47.2821897,56.8121778 48.5524039,57.5756397 C49.9723076,58.4289769 51.5815106,59.3962517 54.673452,59.3962517 C57.7653934,59.3962517 59.3747555,58.4291363 60.7945001,57.5756397 C62.0647143,56.8121778 63.0681596,56.2091848 65.2788253,56.2091848 C66.1573967,56.2091848 66.8695756,55.4956005 66.8695756,54.6156513 C66.8695756,53.7355427 66.1573967,53.0221178 65.2788253,53.0221178 C62.1867248,53.0221178 60.5775218,53.9892333 59.1577771,54.8427298 C57.887563,55.6061917 56.8841177,56.2091848 54.673452,56.2091848 C54.1882732,56.2091848 53.763861,56.1787483 53.3795357,56.1252055 L53.3795357,56.1252055 L53.3793766,56.1252055 Z" id="Shape" fill="#6ECCAE" fill-rule="nonzero"></path>
                        <path d="M47.9790975,15.2445381 C48.9623402,14.7368383 50.2249188,13.9639746 51.2016394,12.9528776 C51.7746277,12.3599238 53.4889793,9.37236721 55.1284066,5.87025866 C55.2633022,5.58198845 55.3208874,5.34726097 55.2828685,5.24176905 C55.2279876,5.09054273 54.9220863,4.65534873 53.2688195,3.88296305 C52.2801682,3.4213164 51.5574903,3.18706697 51.1206703,3.18706697 C50.9452105,3.18706697 50.8064971,3.18706697 50.5537268,3.73348961 C48.9292526,7.24308776 47.7466888,10.4790762 47.6615837,11.2992679 C47.5217567,12.6458037 47.7282361,14.1153603 47.9790975,15.2445381 Z" id="Shape" fill="#7A4D33" fill-rule="nonzero"></path>
                        <path d="M29.4468563,59.6880277 C29.5920918,58.2890647 29.3717729,56.8238106 29.1280699,55.7432356 C28.1453044,56.250776 26.8832031,57.0234804 25.9068005,58.034418 C25.4793659,58.4767829 24.4135632,60.2573972 23.2181144,62.5903303 C25.4402335,62.6469007 26.8668184,63.2165889 28.0314067,63.8535242 C28.9007517,61.7127714 29.3948388,60.1887159 29.4468563,59.6880277 Z" id="Shape" fill="#7A4D33" fill-rule="nonzero"></path>
                        <path d="M32.6577858,59.3704365 C32.7113941,58.2406212 32.6081544,57.1305658 32.4484431,56.1589885 C32.2742559,55.1002448 32.0353252,54.2061132 31.8630469,53.6391339 L34.7539175,47.4286559 L62.6284762,47.4286559 C62.0569196,48.008224 61.203323,48.7175058 59.9518797,49.5227182 C57.0980736,51.3589469 53.2249148,52.994709 48.9919282,54.1591039 C48.9924054,54.1594226 48.9927236,54.159582 48.9932008,54.1597413 C49.4209535,54.3820393 49.8122781,54.6161293 50.1891269,54.8427298 C50.255143,54.8824088 50.3202047,54.9214503 50.3849482,54.9601732 C50.4180358,54.979933 50.4508053,54.9993741 50.4835748,55.0188152 C50.5182531,55.0393718 50.5529315,55.0599284 50.5876098,55.0803256 C50.6275377,55.1039099 50.6674655,55.1271755 50.7073933,55.1502818 C50.7307774,55.1638268 50.7543205,55.1772125 50.7777045,55.1905982 C50.8204957,55.2149792 50.8631278,55.2395196 50.905919,55.2634226 C51.026816,55.3309885 51.1478721,55.3963233 51.2705189,55.4586305 C51.2719506,55.4592679 51.2732232,55.4600647 51.2746549,55.4607021 C51.3325582,55.4901824 51.3909387,55.5188661 51.4497965,55.5469122 C51.4545687,55.5491432 51.459341,55.5513741 51.4641132,55.5537644 C52.0161036,55.81606 52.6137485,56.0189169 53.3795357,56.1252055 L53.3796948,56.1252055 L53.3796948,56.1252055 C56.5289032,55.0192933 59.3870043,53.6741917 61.6714808,52.2043164 C64.0429714,50.6783487 66.8700528,48.334739 66.8700528,45.8351224 C66.8700528,44.9551732 66.1578739,44.2415889 65.2793025,44.2415889 L36.2374512,44.2415889 L38.492817,39.3964503 C38.4994982,39.3819492 38.5068156,39.3679261 38.5130196,39.3532656 L43.837579,27.9145635 L43.837579,27.9144042 L48.1291052,18.6951755 C49.2684006,18.2091478 51.6858638,17.0347136 53.4880249,15.1693233 C54.7156069,13.8984804 56.9073427,9.5766582 58.0087782,7.22332794 C58.523545,6.12378984 58.612627,5.09149885 58.273479,4.15497921 C57.7163983,2.61658199 56.1105358,1.69408545 54.6133216,0.994524249 C53.1410822,0.306755196 52.0638261,0 51.1206703,0 C50.0505725,0 48.5829463,0.415115473 47.6673104,2.39284988 C46.5757375,4.75112009 44.6797222,9.21157968 44.4971041,10.9694065 C44.2289036,13.5517275 44.884929,16.1619353 45.245393,17.348321 L40.9861591,26.4982309 C38.5723545,30.5713025 34.3498669,31.9995866 29.8501115,30.4237413 C29.8346812,30.2417598 29.8146378,30.0623279 29.787595,29.8862425 C29.1883594,25.9718868 25.7342041,24.4612171 23.1890036,23.6657252 C21.6509072,23.1843187 20.3329705,22.950388 19.1599512,22.950388 C13.5514429,22.950388 11.8859273,28.3080069 9.95793789,34.510358 C8.58591575,38.9091478 8.15784484,41.9233164 8.63347918,44.2415889 L1.64897178,44.2415889 C1.22710479,44.2415889 0.822576988,44.4095473 0.524152229,44.7083349 C0.225886545,45.0072818 0.0582214615,45.4125173 0.0582214615,45.8351224 C0.0582214615,48.3345797 2.88514385,50.6781894 5.25647534,52.204157 C7.54079279,53.6740323 10.3988939,55.0192933 13.5482614,56.1250462 C14.3135713,56.0185982 14.9108981,55.81606 15.4625703,55.5537644 C15.4676607,55.5513741 15.472592,55.5489838 15.4776824,55.5465935 C15.536222,55.5185473 15.5942844,55.4900231 15.6518696,55.4607021 C15.6537785,55.459746 15.6558464,55.4586305 15.6577553,55.4576744 C15.780084,55.3955266 15.9006629,55.3305104 16.0212418,55.2629446 C16.064192,55.2388822 16.1071423,55.2143418 16.1500926,55.1898014 C16.1728403,55.1767344 16.1957471,55.1636674 16.2184948,55.1504411 C16.2587408,55.1271755 16.2991459,55.1035912 16.3395509,55.0796882 C16.3737521,55.0596097 16.4082713,55.0392125 16.4426315,55.0188152 C16.475401,54.9993741 16.5080114,54.9800924 16.5409399,54.9603326 C16.6058425,54.9214503 16.6712224,54.8822494 16.7373976,54.8425704 C17.1145645,54.6158106 17.5065254,54.3814018 17.9347553,54.1589446 C17.9349144,54.1589446 17.9350735,54.1587852 17.9352326,54.1586259 C13.7024051,52.9942309 9.82956434,51.3586282 6.97607643,49.5223995 C5.72463316,48.7171871 4.87119561,48.0079053 4.29963902,47.4284965 L31.2434497,47.4284965 L28.9794939,52.2921201 C28.394734,52.5416674 27.4722579,52.9739931 26.4697671,53.5867067 C25.5196119,54.1675497 24.4975548,54.9102956 23.6207333,55.8179723 C23.5138348,55.9285635 23.3993008,56.0635358 23.2791992,56.2171524 C22.1426081,57.6702956 20.4721612,60.898157 19.4195617,63.0897436 C20.3380609,62.7876097 21.4412463,62.5831594 22.8579685,62.5831594 C22.9817289,62.5831594 23.0991262,62.5871432 23.2181144,62.5901709 C24.4137223,60.2572379 25.4793659,58.4766236 25.9068005,58.0342587 C26.8832031,57.023321 28.1453044,56.2506166 29.1280699,55.7430762 C29.3717729,56.8236513 29.5920918,58.2889053 29.4468563,59.6878684 C29.3948388,60.1887159 28.9007517,61.7127714 28.0314067,63.8535242 C28.3637144,64.0351871 28.6761378,64.2219492 28.9786985,64.4037714 C29.6083175,64.7822356 30.1727157,65.1208614 30.8506934,65.3665843 C31.5716215,63.615291 32.4875755,61.2095335 32.6113359,60.0177298 C32.6337655,59.801806 32.647605,59.5858822 32.6577858,59.3704365 Z M51.1206703,3.18706697 C51.5574903,3.18706697 52.2801682,3.4213164 53.2686604,3.8828037 C54.9220863,4.65534873 55.2278285,5.09038337 55.2827094,5.2416097 C55.3207283,5.34710162 55.2631431,5.58198845 55.1282475,5.87009931 C53.4888202,9.37236721 51.7744686,12.3599238 51.2014804,12.9527182 C50.2247597,13.9638152 48.9621812,14.736679 47.9789384,15.2443788 C47.7280771,14.1152009 47.5215977,12.6456443 47.6614246,11.2989492 C47.7465298,10.4789169 48.9290935,7.24292841 50.5535678,3.7331709 C50.8066561,3.18706697 50.9452105,3.18706697 51.1206703,3.18706697 Z M11.9326953,44.2415889 C11.3145298,42.517545 11.6519279,39.7658314 12.9953165,35.4593072 C15.2050278,28.350873 16.3436869,26.137455 19.1601103,26.137455 C20.0063895,26.137455 21.0139707,26.3240577 22.2409164,26.70794 C25.7866989,27.8162425 26.4522688,29.1226212 26.6431589,30.3695612 C26.8520244,31.7331478 26.5061953,33.5674642 25.8646457,35.8790439 C25.0064359,34.3116443 24.6774687,32.2942309 24.9868696,30.1225635 C25.1109482,29.2512194 24.5066221,28.444254 23.6369589,28.3197991 C22.7671366,28.1950254 21.9615807,28.8008868 21.8373431,29.6720716 C21.2727858,33.6334365 22.3684946,37.2821501 24.7344176,39.6289469 C24.1062303,41.5920208 23.5039722,43.0952009 22.909827,44.2417483 L11.9326953,44.2417483 L11.9326953,44.2415889 Z M27.4728942,41.4866882 C28.6238021,41.9859423 29.8664962,42.2353303 31.1543677,42.2353303 C32.0276896,42.2351709 32.9216913,42.1191617 33.8207834,41.8919238 L32.7269834,44.2417483 L26.4285666,44.2417483 C26.7963481,43.3876143 27.1415409,42.4668707 27.4728942,41.4866882 Z M29.6382236,33.6957436 C30.8707369,34.0479145 32.1011823,34.22894 33.3115842,34.22894 C34.3406406,34.22894 35.3553802,34.1005012 36.3441906,33.8423487 C36.8403456,33.7127945 37.3237746,33.547067 37.7951139,33.353612 L35.8039718,37.6309746 C33.17128,39.2087321 30.5379519,39.4883972 28.4376843,38.422164 C28.9645408,36.67103 29.388953,35.1063395 29.6382236,33.6957436 Z" id="Shape" fill="#000000" fill-rule="nonzero"></path>
                        <path d="M28.9786985,64.4037714 C28.6761378,64.2219492 28.3637144,64.0351871 28.0314067,63.8535242 C26.8668184,63.2165889 25.4402335,62.6467413 23.2181144,62.5903303 C23.0991262,62.5873025 22.9817289,62.5833187 22.8579685,62.5833187 C21.4412463,62.5833187 20.3380609,62.7876097 19.4195617,63.089903 C18.3335564,63.4471732 17.5065254,63.9416467 16.7373976,64.4039307 C15.4675016,65.1673926 14.4642154,65.7703857 12.2537087,65.7703857 C10.0432021,65.7703857 9.03991589,65.1673926 7.76970176,64.4039307 C6.3499571,63.5505935 4.74075409,62.5833187 1.64897178,62.5833187 C0.770559452,62.5833187 0.0582214615,63.2967436 0.0582214615,64.1768522 C0.0582214615,65.0568014 0.770400377,65.7703857 1.64897178,65.7703857 C3.85963749,65.7703857 4.86260556,66.3733788 6.13281969,67.1368406 C7.55272342,67.9900185 9.16192644,68.9574527 12.2538678,68.9574527 C15.3456501,68.9574527 16.9546941,67.9901778 18.3745978,67.1368406 C19.6444938,66.3733788 20.64778,65.7703857 22.8581276,65.7703857 C25.0686342,65.7703857 26.0717614,66.3733788 27.3419755,67.1368406 C28.7618792,67.9900185 30.3710822,68.9574527 33.4630236,68.9574527 C36.554965,68.9574527 38.1643271,67.9901778 39.5840717,67.1368406 C40.8542859,66.3733788 41.8575721,65.7703857 44.0682378,65.7703857 C46.2790626,65.7703857 47.2825079,66.3733788 48.552722,67.1368406 C49.9726258,67.9901778 51.5818288,68.9574527 54.6737702,68.9574527 C57.7657115,68.9574527 59.3750736,67.9903372 60.7948183,67.1368406 C62.0650324,66.3733788 63.0684777,65.7703857 65.2791434,65.7703857 C66.1577148,65.7703857 66.8698937,65.0568014 66.8698937,64.1768522 C66.8698937,63.2967436 66.1577148,62.5833187 65.2791434,62.5833187 C62.187043,62.5833187 60.5778399,63.5504342 59.1580953,64.4039307 C57.8878812,65.1673926 56.8844359,65.7703857 54.6737702,65.7703857 C52.4631044,65.7703857 51.4596591,65.1673926 50.189445,64.4039307 C48.7695413,63.5505935 47.1601792,62.5833187 44.0682378,62.5833187 C40.9764555,62.5833187 39.3670934,63.5504342 37.9473487,64.4039307 C36.6771346,65.1673926 35.6738484,65.7703857 33.4631827,65.7703857 C32.3482258,65.7703857 31.54092,65.6167691 30.8510116,65.3667436 C30.1727157,65.1210208 29.6083175,64.7822356 28.9786985,64.4037714 Z" id="Shape" fill="#6ECCAE" fill-rule="nonzero"></path>
                    </g>
                </g>
            </g>
        </g>
    </g>
</svg>