<?xml version="1.0" encoding="UTF-8"?>
<svg width="68px" height="69px" viewBox="0 0 68 69" version="1.1" xmlns="http://www.w3.org/2000/svg" xmlns:xlink="http://www.w3.org/1999/xlink">
    <!-- Generator: Sketch 42 (36781) - http://www.bohemiancoding.com/sketch -->
    <title>parachutist</title>
    <desc>Created with Sketch.</desc>
    <defs></defs>
    <g id="Activity-Finder" stroke="none" stroke-width="1" fill="none" fill-rule="evenodd">
        <g id="Artboard" transform="translate(-195.000000, -298.000000)" fill-rule="nonzero">
            <g id="parachutist" transform="translate(195.000000, 298.000000)">
                <g id="Layer_1">
                    <g id="Group">
                        <path d="M26.7571023,48.3 L26.7571023,65.4963333 C26.7571023,66.7518267 27.7757069,67.7733333 29.0276335,67.7733333 L29.0735028,67.7733333 C30.318549,67.7733333 31.3325668,66.7633267 31.3440341,65.5174933 L31.344187,65.5161133 C31.3547369,66.76256 32.3692134,67.7733333 33.6145653,67.7733333 L33.6621165,67.7733333 C34.9132786,67.7733333 35.9311188,66.75198 35.9311188,65.4963333 L35.9311188,48.3 L26.7571023,48.3 Z" id="Shape" fill="#3E81C8"></path>
                        <path d="M33.0936428,43.5281133 L32.0985844,43.8427533 C31.5134448,44.0278267 30.8923742,44.05788 30.2784898,43.9231 L29.3488716,43.71886 L27.0632035,48.3 L35.4728843,48.3 L33.0936428,43.5281133 Z" id="Shape" fill="#3E81C8"></path>
                        <path d="M31.0382386,36.9533333 C29.0991897,36.9533333 27.5215909,38.5352733 27.5215909,40.48 C27.5215909,42.4247267 29.0991897,44.0066667 31.0382386,44.0066667 C32.9774405,44.0066667 34.5548864,42.4247267 34.5548864,40.48 C34.5548864,38.5352733 32.9774405,36.9533333 31.0382386,36.9533333 Z" id="Shape" fill="#3E81C8"></path>
                        <path d="M51.3251678,24.8189933 C50.4671057,17.01908 45.1286816,10.30722 37.7249149,7.71956667 L33.6832164,6.30706 L36.3702411,9.64804 C36.9682241,10.3917067 37.5285943,11.2601867 38.0362147,12.2301733 C39.8023364,15.59906 40.9126797,20.12316 41.163279,24.96926 L41.2100657,25.8746933 L42.0869342,26.09534 C42.8300172,26.28256 43.3107276,26.6994733 43.7749251,27.1024333 C44.4034877,27.6484533 45.0534559,28.2130267 46.3341273,28.2130267 C47.6147986,28.2130267 48.2647669,27.6483 48.9009743,27.09584 C49.3382618,26.7183333 49.7903804,26.3281 50.4580848,26.12892 L51.4370889,25.8369733 L51.3251678,24.8189933 Z" id="Shape" fill="#F8A805"></path>
                        <path d="M41.1568573,24.8732733 C40.6567289,15.63678 37.123874,8.21360667 32.5658398,6.82149333 L30.9862534,6.33910667 L30.9862534,25.8664133 L31.8956891,26.1085267 C32.617978,26.3008067 33.0882914,26.7092867 33.5457614,27.1065733 C34.1740181,27.6507533 34.8236806,28.2134867 36.1008353,28.2134867 C37.3793661,28.2134867 38.029793,27.6499867 38.6600374,27.10412 C39.1066517,26.7175667 39.5682499,26.3176733 40.2665339,26.1207933 L41.2100657,25.8549133 L41.1568573,24.8732733 Z" id="Shape" fill="#F8A805"></path>
                        <path d="M29.4065141,6.82149333 C24.8475626,8.21498667 21.314249,15.63816 20.8142734,24.8732733 L20.761065,25.8550667 L21.7050556,26.12064 C22.4042569,26.31752 22.866008,26.7174133 23.3110933,27.1025867 C23.9396559,27.6486067 24.5896241,28.21318 25.8687665,28.21318 C27.1492849,28.21318 27.7992532,27.6486067 28.4264397,27.1039667 C28.8832981,26.70852 29.355752,26.29958 30.0781938,26.1065333 L30.9864063,25.8638067 L30.9864063,6.33864667 L29.4065141,6.82149333 Z" id="Shape" fill="#F8A805"></path>
                        <path d="M24.2475919,7.71972 C16.8445897,10.3070667 11.505554,17.0187733 10.645963,24.8186867 L10.533736,25.8371267 L11.5128931,26.1292267 C12.1851844,26.32994 12.6389848,26.72278 13.0776484,27.10274 C13.706211,27.6489133 14.3563321,28.2133333 15.6366977,28.2133333 C16.9170632,28.2133333 17.5671844,27.64876 18.1954411,27.1030467 C18.6599444,26.6999333 19.1403491,26.2828667 19.884961,26.0958 L20.762594,25.8753067 L20.8090749,24.96926 C21.0579924,20.1242333 22.1680299,15.6002867 23.9343044,12.23094 C24.4440655,11.2592667 25.0052001,10.3903267 25.6019599,9.64834667 L28.2889846,6.30736667 L24.2475919,7.71972 Z" id="Shape" fill="#F8A805"></path>
                        <path d="M19.1586968,57.3977267 C18.6804327,55.1469467 16.6675341,53.5133333 14.3723864,53.5133333 C13.4553058,53.5133333 12.5619244,53.7690933 11.7885677,54.2531667 C10.9184267,52.22012 8.93182653,50.9066667 6.7275,50.9066667 C3.69232722,50.9066667 1.22318182,53.3828467 1.22318182,56.4266667 C1.22318182,57.8706067 1.71337193,58.88 1.71337193,58.88 L19.473819,58.88 L19.1586968,57.3977267 Z" id="Shape" fill="#EFEFEF"></path>
                        <path d="M65.9455543,7.71757333 C65.4671373,5.46679333 63.4542387,3.83333333 61.1590909,3.83333333 C60.2420103,3.83333333 59.3486289,4.08909333 58.5757309,4.57408667 C57.7072718,2.54058 55.7205187,1.22666667 53.5142045,1.22666667 C50.4790318,1.22666667 48.0098864,3.70284667 48.0098864,6.74666667 C48.0098864,8.12666667 48.5002294,9.2 48.5002294,9.2 L66.2605236,9.2 L65.9455543,7.71757333 Z" id="Shape" fill="#EFEFEF"></path>
                        <g id="Shape" fill="#000000">
                            <path d="M52.6136369,26.2598667 C52.6381006,26.1525333 52.6488034,26.0421333 52.6426875,25.9302 C52.0525023,14.8028 43.1829051,6.00146667 32.2094352,5.38966667 L32.2094352,4.14 C32.2094352,3.46226667 31.6620614,2.91333333 30.9862534,2.91333333 C30.3104455,2.91333333 29.7630716,3.46226667 29.7630716,4.14 L29.7630716,5.38966667 C18.7880727,6.00146667 9.92000455,14.8028 9.32981932,25.9302 C9.31147159,26.2644667 9.43073182,26.5910667 9.66007841,26.8348667 C9.66619432,26.8425333 9.67231023,26.8471333 9.67842614,26.8532667 C9.71665057,26.9928 9.77933864,27.1277333 9.8695483,27.2519333 L17.6077023,37.8457333 L17.6077023,44.7089333 C17.6077023,47.3646667 19.7620312,49.5266667 22.4117489,49.5266667 L25.5339205,49.5266667 L25.5339205,65.4963333 C25.5339205,67.4283333 27.1026511,69 29.0276335,69 L29.0735028,69 C29.940433,69 30.7339722,68.6810667 31.3440341,68.1566667 C31.955625,68.6810667 32.7491642,69 33.6145653,69 L33.6619636,69 C35.586946,69 37.1541477,67.4283333 37.1541477,65.4963333 L37.1541477,49.5266667 L39.559229,49.5266667 C42.2089466,49.5266667 44.3648045,47.3646667 44.3648045,44.7089333 L44.3648045,38.3333333 C44.3648045,38.3118667 44.3617466,38.2904 44.3617466,38.2689333 L52.407225,27.2519333 C52.6243398,26.9544667 52.6870278,26.5926 52.6136369,26.2598667 Z M32.2094352,7.9948 C36.195479,9.21226667 39.4659614,16.2702 39.9353574,24.9396667 C38.9782176,25.2095333 38.3528659,25.7492667 37.8605352,26.1755333 C37.2764659,26.6815333 36.9248011,26.9866667 36.1006824,26.9866667 C35.2780926,26.9866667 34.9264278,26.6815333 34.3438875,26.1770667 C33.840854,25.7400667 33.2002125,25.1865333 32.2094352,24.9228 L32.2094352,7.9948 L32.2094352,7.9948 Z M29.7630716,7.9948 L29.7630716,24.9212667 C28.7707653,25.1865333 28.1301239,25.7400667 27.6270903,26.1755333 C27.04455,26.6815333 26.6928852,26.9866667 25.8687665,26.9866667 C25.0461767,26.9866667 24.6945119,26.6815333 24.1119716,26.1755333 C23.6196409,25.7492667 22.9942892,25.2095333 22.0356205,24.9396667 C22.5050165,16.2702 25.7754989,9.2138 29.7630716,7.9948 Z M11.8618057,24.9534667 C12.6905114,17.434 17.8018824,11.2715333 24.6501716,8.878 C24.0064722,9.6784 23.4040551,10.6076 22.8520943,11.6594667 C20.992858,15.2060667 19.846125,19.8766 19.5877278,24.9059333 C18.5633131,25.1635333 17.9073818,25.7308667 17.3951744,26.1755333 C16.8126341,26.6815333 16.4594403,26.9866667 15.6368506,26.9866667 C14.8127318,26.9866667 14.461067,26.6815333 13.8785267,26.1755333 C13.3953699,25.7569333 12.7868369,25.2294667 11.8618057,24.9534667 Z M22.4117489,47.0733333 C21.1121182,47.0733333 20.0540659,46.0122667 20.0540659,44.7089333 L20.0540659,41.1960667 L24.3459051,47.0733333 L22.4117489,47.0733333 Z M34.7077841,65.4963333 C34.7077841,66.0759333 34.2383881,66.5466667 33.6619636,66.5466667 L33.6145653,66.5466667 C33.0381409,66.5466667 32.5672159,66.0759333 32.5672159,65.4963333 C32.5672159,65.4396 32.562629,65.3859333 32.5549841,65.3322667 C32.562629,65.2770667 32.5672159,65.2234 32.5672159,65.1666667 L32.5672159,58.42 C32.5672159,57.7422667 32.019842,57.1933333 31.3440341,57.1933333 C30.6697551,57.1933333 30.1208523,57.7422667 30.1208523,58.42 L30.1208523,65.1666667 C30.1208523,65.2234 30.1269682,65.2770667 30.1346131,65.3322667 C30.1269682,65.3859333 30.1208523,65.4396 30.1208523,65.4963333 C30.1208523,66.0759333 29.6514563,66.5466667 29.0735028,66.5466667 L29.0276335,66.5466667 C28.4512091,66.5466667 27.9802841,66.0759333 27.9802841,65.4963333 L27.9802841,49.5266667 L34.7077841,49.5266667 L34.7077841,65.4963333 L34.7077841,65.4963333 Z M31.0382386,42.78 C29.7737744,42.78 28.7447727,41.7480667 28.7447727,40.48 C28.7447727,39.2119333 29.7737744,38.18 31.0382386,38.18 C32.3042318,38.18 33.3317045,39.2119333 33.3317045,40.48 C33.3317045,41.7480667 32.3042318,42.78 31.0382386,42.78 Z M33.4937761,47.0733333 L29.0429233,47.0733333 L30.0168818,45.1214 C30.3456119,45.1934667 30.6881028,45.2333333 31.0382386,45.2333333 C31.5366852,45.2333333 32.0152551,45.1551333 32.4663034,45.0125333 L33.4937761,47.0733333 Z M41.9184409,44.7089333 C41.9184409,46.0122667 40.8603886,47.0733333 39.559229,47.0733333 L37.9308682,47.0733333 L41.9184409,41.6146667 L41.9184409,44.7089333 Z M35.6893875,45.9908 L34.57935,43.7644 C34.5655892,43.7368 34.5502994,43.7122667 34.5350097,43.6862 C35.3071432,42.8398 35.7780682,41.7143333 35.7780682,40.48 C35.7780682,37.8595333 33.6527898,35.7266667 31.0382386,35.7266667 C28.4252165,35.7266667 26.2984091,37.8595333 26.2984091,40.48 C26.2984091,41.8676667 26.8962392,43.1188667 27.8457341,43.9898 L26.7418125,46.2024 L19.9241028,36.8674667 C19.8614148,36.7417333 19.77885,36.6282667 19.6794665,36.5301333 L14.3815602,29.2759333 C14.7485148,29.3771333 15.1613386,29.44 15.6368506,29.44 C17.3707108,29.44 18.3095028,28.6258 18.9944847,28.0324 C19.577025,27.5264 19.9286898,27.2212667 20.7528085,27.2212667 L20.7650403,27.2212667 C21.5799852,27.2243333 21.930121,27.5279333 22.5111324,28.0324 C23.1961142,28.6258 24.1349063,29.44 25.8687665,29.44 C27.6041557,29.44 28.5414188,28.6258 29.2279295,28.0308667 C29.8104699,27.5264 30.1621347,27.2212667 30.9847244,27.2212667 C31.8088432,27.2212667 32.160508,27.5264 32.7430483,28.0324 C33.4280301,28.6258 34.3668222,29.44 36.1006824,29.44 C37.8360716,29.44 38.7748636,28.6258 39.4598455,28.0324 C40.0408568,27.5279333 40.3909926,27.2243333 41.2166403,27.2212667 C42.0407591,27.2212667 42.3924239,27.5264 42.9764932,28.0324 C43.661475,28.6258 44.600267,29.44 46.3341273,29.44 C46.9915875,29.44 47.5343744,29.3234667 47.9930676,29.1456 L35.6893875,45.9908 Z M48.0924511,26.1755333 C47.5099108,26.6815333 47.158246,26.9866667 46.3341273,26.9866667 C45.5115375,26.9866667 45.1583437,26.6815333 44.5758034,26.1755333 C44.063596,25.7308667 43.4076648,25.1635333 42.384779,24.9059333 C42.1248528,19.8766 40.9781199,15.2060667 39.1188835,11.6594667 C38.5684517,10.6076 37.9660347,9.6784 37.3223352,8.878 C44.1706244,11.2715333 49.2819955,17.434 50.1091722,24.9534667 C49.1841409,25.2294667 48.575608,25.7584667 48.0924511,26.1755333 Z"></path>
                            <path d="M14.3723864,52.2866667 C13.6614119,52.2866667 12.9626693,52.4093333 12.3021511,52.647 C11.0667375,50.8131333 8.99038636,49.68 6.7275,49.68 C3.01820114,49.68 0,52.7068 0,56.4266667 C0,57.4800667 0.236991477,58.489 0.701800568,59.4274 C0.909741477,59.8429333 1.33326818,60.1066667 1.7965483,60.1066667 L19.243708,60.1066667 C19.8767045,60.1066667 20.4057307,59.6236667 20.4623028,58.9919333 C20.4806506,58.7987333 20.4882955,58.6055333 20.4882955,58.42 C20.4882955,55.0374667 17.7453102,52.2866667 14.3723864,52.2866667 Z M2.623725,57.6533333 C2.50599375,57.2592667 2.44636364,56.8483333 2.44636364,56.4266667 C2.44636364,54.0592 4.36828807,52.1333333 6.7275,52.1333333 C8.4430125,52.1333333 9.98727955,53.1545333 10.6646165,54.7369333 C10.8068114,55.0650667 11.0835562,55.3165333 11.4229892,55.4238667 C11.7639511,55.5296667 12.1339636,55.4821333 12.4367011,55.2935333 C13.0146545,54.9316667 13.6843466,54.74 14.3723864,54.74 C16.1337682,54.74 17.6092312,55.9912 17.962425,57.6533333 L2.623725,57.6533333 Z"></path>
                            <path d="M61.1590909,2.60666667 C60.4481165,2.60666667 59.7493739,2.72933333 59.0888557,2.967 C57.853442,1.13313333 55.7770909,0 53.5142045,0 C49.8049057,0 46.7867045,3.0268 46.7867045,6.74666667 C46.7867045,7.80006667 47.023696,8.809 47.4885051,9.7474 C47.696446,10.1629333 48.1199727,10.4266667 48.5832528,10.4266667 L66.0319415,10.4266667 C66.6634091,10.4266667 67.1924352,9.94213333 67.2490074,9.3104 C67.2673551,9.1172 67.275,8.92553333 67.275,8.74 C67.275,5.35746667 64.5320148,2.60666667 61.1590909,2.60666667 Z M49.4104295,7.97333333 C49.2926983,7.57926667 49.2330682,7.16833333 49.2330682,6.74666667 C49.2330682,4.3792 51.1549926,2.45333333 53.5142045,2.45333333 C55.229717,2.45333333 56.7755131,3.47453333 57.451321,5.05693333 C57.5919869,5.38506667 57.8702608,5.63653333 58.2096937,5.74386667 C58.5506557,5.84966667 58.9206682,5.80213333 59.2234057,5.61353333 C59.8013591,5.25166667 60.4710511,5.06 61.1590909,5.06 C62.9204727,5.06 64.3959358,6.3112 64.7491295,7.97333333 L49.4104295,7.97333333 Z"></path>
                        </g>
                    </g>
                </g>
            </g>
        </g>
    </g>
</svg>