<?xml version="1.0" encoding="UTF-8"?>
<svg width="69px" height="69px" viewBox="0 0 69 69" version="1.1" xmlns="http://www.w3.org/2000/svg" xmlns:xlink="http://www.w3.org/1999/xlink">
    <!-- Generator: Sketch 42 (36781) - http://www.bohemiancoding.com/sketch -->
    <title>restaurant (1)</title>
    <desc>Created with Sketch.</desc>
    <defs></defs>
    <g id="Activity-Finder" stroke="none" stroke-width="1" fill="none" fill-rule="evenodd">
        <g id="Artboard" transform="translate(-69.000000, -644.000000)" fill-rule="nonzero">
            <g id="restaurant-(1)" transform="translate(69.000000, 644.000000)">
                <g id="Layer_1">
                    <circle id="Oval" fill="#FFA037" cx="34.5" cy="34.5" r="33.3822539"></circle>
                    <circle id="Oval" fill="#FFC850" cx="34.5" cy="34.5" r="22.6522148"></circle>
                    <path d="M16.6166016,34.5 C16.6166016,18.7325566 27.5517539,5.52727734 42.2494277,2.03172656 C39.7613848,1.4399707 37.1690332,1.11774609 34.5,1.11774609 C16.0633887,1.11774609 1.11774609,16.0633887 1.11774609,34.5 C1.11774609,52.9364766 16.0635234,67.8822539 34.5,67.8822539 C37.1690332,67.8822539 39.7613848,67.5598945 42.2494277,66.9682734 C27.5517539,63.4727227 16.6166016,50.2674434 16.6166016,34.5 Z" id="Shape" fill="#FF8C32"></path>
                    <path d="M22.8779473,53.917166 C18.9497988,48.444873 16.6166016,41.7514688 16.6166016,34.5 C16.6166016,27.2485313 18.9497988,20.555127 22.8776777,15.082834 C16.2786094,19.041709 11.8477852,26.2443926 11.8477852,34.5 C11.8477852,42.7557422 16.2786094,49.9584258 22.8779473,53.917166 Z" id="Shape" fill="#FFB23C"></path>
                    <path d="M48.8214082,26.9453086 C48.3225059,27.4442109 47.4596016,27.3904395 46.9606992,26.8914023 L46.7933203,26.7240234 C46.294418,26.2251211 46.2407812,25.3624863 46.7398184,24.863584 L45.158748,23.2825137 C44.6598457,23.781416 43.799502,23.7303398 43.3004648,23.2313027 L43.3004648,23.2313027 C42.8015625,22.7324004 42.7487344,21.8705742 43.2477715,21.3715371 L41.7454043,20.799457 C40.6172812,21.927041 40.4578535,26.5982871 40.4578535,26.5982871 L16.4215957,48.8113008 C15.098332,50.1345645 15.098332,52.2798984 16.4215957,53.6031621 C17.7448594,54.9264258 19.8901934,54.9264258 21.213457,53.6031621 L43.3995176,29.596418 C43.3995176,29.596418 48.2699473,29.5685215 49.3924102,28.4468672 L48.8214082,26.9453086 Z" id="Shape" fill="#FFFFFF"></path>
                    <path d="M37.1624297,29.7248496 L25.9047832,40.084418 L28.0648066,42.2444414 C28.7193633,42.8988633 29.4991172,43.3726992 30.3426152,43.6827949 L40.2997734,32.8624629 L37.1624297,29.7248496 Z" id="Shape" fill="#FAF0C3"></path>
                    <path d="M17.8063125,15.4268906 L51.2884277,48.9091406 C52.6116914,50.2324043 52.6116914,52.3777383 51.2884277,53.701002 L51.2884277,53.701002 C49.9651641,55.0242656 47.8198301,55.0242656 46.4965664,53.701002 L38.4569883,45.6614238 C37.6335703,44.8380059 37.4505586,43.6167598 37.9080879,42.6166641 C38.1490488,42.0898652 38.109293,41.4803203 37.6997402,41.0706328 L36.3442676,39.7151602 C35.8149082,39.1858008 34.9568555,39.1858008 34.4274961,39.7151602 L34.4274961,39.7151602 C33.3689121,40.7737441 31.6525371,40.7737441 30.5940879,39.7151602 L22.2072188,31.328291 C12.6520664,21.7734082 17.8063125,15.4268906 17.8063125,15.4268906 Z" id="Shape" fill="#FFFFFF"></path>
                    <path d="M18.5965781,14.636625 C18.3727324,14.4127793 18.0638496,14.2952637 17.7486328,14.3107617 C17.4326074,14.3272031 17.1382793,14.476793 16.9386914,14.7223359 C16.8764297,14.7991523 15.4122012,16.6362773 15.3065449,19.7566406 C15.1708359,23.7690176 17.226416,27.9282891 21.4168184,32.1186914 L29.8036875,40.5055605 C30.5267051,41.2285781 31.488123,41.6268105 32.5109941,41.6268105 C33.5335957,41.6268105 34.4950137,41.2285781 35.2180313,40.5055605 C35.2755762,40.4480156 35.3410723,40.4360215 35.386084,40.4360215 C35.4309609,40.4360215 35.496457,40.4481504 35.554002,40.5055605 L36.9094746,41.8610332 C36.9613594,41.912918 36.9399316,42.0466055 36.8915508,42.1517227 C36.2299863,43.5984316 36.5412949,45.326666 37.6665879,46.4518242 L45.7060313,54.4914023 C46.5845684,55.3699395 47.7384316,55.8091406 48.8922949,55.8091406 C50.0461582,55.8091406 51.2001563,55.3699395 52.0785586,54.4914023 C53.8356328,52.7344629 53.8356328,49.8756797 52.0785586,48.118875 L18.5965781,14.636625 Z M50.4981621,52.9107363 C49.6128867,53.7960117 48.172377,53.7960117 47.2869668,52.9107363 L39.2475234,44.8711582 C38.7790781,44.4027129 38.6492988,43.6837383 38.9247598,43.0816055 C39.3758203,42.0949863 39.2053418,40.9955684 38.4901406,40.280502 L37.134668,38.9250293 C36.6675703,38.4579316 36.0464355,38.2006641 35.3859492,38.2006641 C34.7253281,38.2006641 34.1043281,38.4580664 33.6372305,38.9250293 C33.3362988,39.2259609 32.9363145,39.3915879 32.5108594,39.3915879 C32.0854043,39.3915879 31.6852852,39.2258262 31.3843535,38.9250293 L22.9974844,30.5381602 C16.5074414,24.0481172 17.2188691,19.3190566 18.0587285,17.2602422 L50.4981621,49.699541 C51.3835723,50.5849512 51.3835723,52.0254609 50.4981621,52.9107363 Z" id="Shape" fill="#000000"></path>
                    <path d="M44.3760293,25.6487285 C44.5942148,25.8669141 44.8803223,25.976209 45.1662949,25.976209 C45.4522676,25.976209 45.738375,25.8671836 45.9565605,25.6487285 L53.0898398,18.5153145 C53.5263457,18.0788086 53.5263457,17.3710195 53.0898398,16.9347832 C52.653334,16.4982773 51.9455449,16.4982773 51.5093086,16.9347832 L44.3760293,24.0680625 C43.9393887,24.5045684 43.9393887,25.2122227 44.3760293,25.6487285 Z" id="Shape" fill="#000000"></path>
                    <path d="M38.1106406,30.1567734 C38.3966133,30.1567734 38.6827207,30.047748 38.9009062,29.829293 L41.2435371,27.4866621 C41.4464941,27.2837051 41.5636055,27.0102656 41.5706133,26.7232148 L41.6312578,24.1959551 C41.6498555,23.4211875 42.0800273,22.539416 42.7821562,21.8371523 L50.0533008,14.5660078 C50.4898066,14.129502 50.4898066,13.4217129 50.0533008,12.9854766 C49.6167949,12.5489707 48.9090059,12.5489707 48.4727695,12.9854766 L41.201625,20.2566211 C40.0868437,21.3712676 39.428918,22.7875195 39.3965742,24.1423184 L39.3467109,26.222291 L37.320375,28.248627 C36.8838691,28.6851328 36.8838691,29.3929219 37.320375,29.8291582 C37.5385605,30.0476133 37.8245332,30.1567734 38.1106406,30.1567734 Z" id="Shape" fill="#000000"></path>
                    <path d="M29.3652949,43.870793 L20.4231914,52.8128965 C19.9942324,53.2418555 19.4241738,53.4779648 18.8175938,53.4779648 C18.2110137,53.4779648 17.6408203,53.2417207 17.2119961,52.8128965 C16.7830371,52.3839375 16.5469277,51.8137441 16.5469277,51.2072988 C16.5469277,50.6007188 16.7831719,50.0305254 17.2119961,49.6017012 L25.8437344,40.9699629 C26.2802402,40.533457 26.2802402,39.825668 25.8437344,39.3894316 C25.4072285,38.9529258 24.6994395,38.9529258 24.2632031,39.3894316 L15.6314648,48.0211699 C14.7804199,48.8722148 14.3117051,50.0038418 14.3117051,51.2074336 C14.3117051,52.4111602 14.7805547,53.5426523 15.6314648,54.3936973 C16.482375,55.2447422 17.6141367,55.713457 18.8177285,55.713457 C20.0213203,55.713457 21.1528125,55.2446074 22.0039922,54.3936973 L30.9460957,45.4515938 C31.3826016,45.0150879 31.3826016,44.3072988 30.9460957,43.8710625 C30.5094551,43.4342871 29.8018008,43.4342871 29.3652949,43.870793 Z" id="Shape" fill="#000000"></path>
                    <path d="M57.2065254,20.1391055 C56.7700195,19.7025996 56.0622305,19.7025996 55.6259941,20.1391055 L48.3551191,27.4099805 C47.6643105,28.1007891 46.7790352,28.5023906 45.973002,28.4937656 L43.3456113,28.453875 C43.0464316,28.4496973 42.7519688,28.5673477 42.5383652,28.7810859 L40.1955996,31.1238516 C39.7590937,31.5603574 39.7590937,32.2681465 40.1955996,32.7043828 C40.4137852,32.9225684 40.6998926,33.0318633 40.9858652,33.0318633 C41.2718379,33.0318633 41.5579453,32.9228379 41.7761309,32.7043828 L43.7844082,30.6961055 L45.939041,30.7287188 C47.3546191,30.750416 48.8096836,30.1166133 49.9356504,28.9905117 L57.2065254,21.7196367 C57.6430312,21.2831309 57.6430312,20.5754766 57.2065254,20.1391055 Z" id="Shape" fill="#000000"></path>
                    <path d="M58.8951387,10.1048613 C52.3790859,3.58853906 43.7152734,0 34.5,0 C25.2847266,0 16.6209141,3.58853906 10.1048613,10.1048613 C3.58880859,16.6211836 0,25.2847266 0,34.5 C0,43.7152734 3.58853906,52.3790859 10.1048613,58.8951387 C16.6211836,65.4111914 25.2847266,69 34.5,69 C43.7152734,69 52.3790859,65.4114609 58.8951387,58.8951387 C65.4111914,52.3788164 69,43.7152734 69,34.5 C69,25.2847266 65.4114609,16.6209141 58.8951387,10.1048613 Z M57.3146074,57.3146074 C51.2205059,63.4085742 43.1182617,66.7646426 34.5,66.7646426 C25.8817383,66.7646426 17.7794941,63.4085742 11.6853926,57.3146074 C5.59156055,51.2205059 2.23535742,43.118127 2.23535742,34.5 C2.23535742,25.881873 5.59156055,17.7794941 11.6853926,11.6853926 C17.7794941,5.59156055 25.881873,2.23535742 34.5,2.23535742 C43.118127,2.23535742 51.2205059,5.59142578 57.3146074,11.6853926 C63.4085742,17.7794941 66.7646426,25.881873 66.7646426,34.5 C66.7646426,43.118127 63.4084395,51.2205059 57.3146074,57.3146074 Z" id="Shape" fill="#000000"></path>
                </g>
            </g>
        </g>
    </g>
</svg>