<?xml version="1.0" encoding="UTF-8"?>
<svg width="47px" height="69px" viewBox="0 0 47 69" version="1.1" xmlns="http://www.w3.org/2000/svg" xmlns:xlink="http://www.w3.org/1999/xlink">
    <!-- Generator: Sketch 42 (36781) - http://www.bohemiancoding.com/sketch -->
    <title>runner</title>
    <desc>Created with Sketch.</desc>
    <defs></defs>
    <g id="Activity-Finder" stroke="none" stroke-width="1" fill="none" fill-rule="evenodd">
        <g id="Artboard" transform="translate(-79.000000, -413.000000)" fill-rule="nonzero">
            <g id="runner" transform="translate(79.000000, 413.000000)">
                <g id="Layer_1">
                    <rect id="Rectangle-path" fill="#FFBCAB" x="24.0248179" y="11.6766328" width="3.7740042" height="5.59843359"></rect>
                    <rect id="Rectangle-path" fill="#FF9478" x="24.0248179" y="11.6766328" width="3.7740042" height="3.10136133"></rect>
                    <g id="Group" transform="translate(4.601289, 17.250000)" fill="#FFBCAB">
                        <path d="M25.290037,0.0257402344 L32.2266153,7.67611523 L38.9401664,3.23424023 L39.3126002,3.83906836 C40.1829204,5.25249023 39.773541,7.098375 38.3863878,8.01532031 L33.6340684,11.1560332 C32.5395029,11.8694824 31.0877963,11.6926699 30.1977176,10.7378555 L24.8194875,4.84495898 L25.290037,0.0257402344 Z" id="Shape"></path>
                        <path d="M16.4371572,38.3068594 L20.3631393,20.5566094 L14.0239165,22.9059785 L12.0982771,34.4665781 C12.0670154,34.6544414 11.903805,34.7923066 11.7124455,34.7923066 L1.19768843,34.7923066 L0.0213824601,38.6430996 L14.8613511,39.4952227 C15.6085192,39.5380781 16.2761121,39.034459 16.4371572,38.3068594 Z" id="Shape"></path>
                    </g>
                    <path d="M19.2750698,40.9221211 C16.9250291,38.581916 16.9250291,34.7873203 19.2750698,32.4471152 L19.7545511,28.0486348 L20.7377383,19.7171543 L22.9313351,15.9571934 L28.6072956,16.5218613 C29.5837162,16.6190273 30.3027352,17.4939258 30.2051608,18.4663945 L28.1512267,35.8320234" id="Shape" fill="#52A2E7"></path>
                    <path d="M22.7176458,19.6531406 L14.2311098,19.926041 L13.3005668,27.8990449 L12.6026596,27.7925801 C10.9533682,27.5409727 9.79993331,26.034293 9.99345811,24.3838184 L10.6540137,18.7488633 C10.8139762,17.4559219 11.8871591,16.4663379 13.1939252,16.4062324 L22.5667506,15.9505898 C23.6054239,15.9001875 24.4839994,16.7071641 24.5170205,17.7422988 L24.5170205,17.7422988 C24.5497708,18.7647656 23.7444099,19.6199883 22.7176458,19.6531406 Z" id="Shape" fill="#FFBCAB"></path>
                    <path d="M1.0800849,61.3853379 L1.0800849,52.0324688 L5.94946652,52.0324688 L3.63028159,60.2086992 C3.3780227,61.0682344 2.58673634,61.3854727 1.68759036,61.3854727 L1.08022023,61.3854727 L1.08022023,61.3853379 L1.0800849,61.3853379 Z" id="Shape" fill="#9CE0B8"></path>
                    <path d="M18.62507,40.1559785 L17.6075085,46.2653086 C19.0789737,46.273125 21.5364679,46.2843105 23.0900796,46.2806719 L24.9642928,37.8066094 L18.62507,40.1559785 Z" id="Shape" fill="#52A2E7"></path>
                    <path d="M30.7203699,2.65447852 C30.1138117,1.67877539 29.0292609,1.02516211 27.7985514,1.02516211 L24.5052466,1.02516211 C22.6165528,1.02516211 21.0711964,2.56405078 21.0711964,4.44483984 L21.0711964,7.21386914 C26.8157702,7.00444336 29.6581488,4.096875 30.7203699,2.65447852 Z" id="Shape" fill="#781900"></path>
                    <path d="M21.0713317,7.21373437 L21.0713317,10.0098516 C21.0713317,11.8906406 22.6166881,13.4295293 24.5053819,13.4295293 L27.7986867,13.4295293 C29.6873805,13.4295293 31.2327369,11.8906406 31.2327369,10.0098516 L31.2327369,4.44457031 C31.2327369,3.78933984 31.0447607,3.17588672 30.7205052,2.65420898 C29.6581488,4.096875 26.8157702,7.00444336 21.0713317,7.21373437 Z" id="Shape" fill="#FFBCAB"></path>
                    <path d="M38.157812,67.9749727 L28.7654987,67.9749727 L28.7654987,63.1259707 L36.7656514,65.4540469 C37.5907708,65.6941992 38.1579473,66.4475391 38.1579473,67.3037051 L38.157812,67.9749727 L38.157812,67.9749727 Z" id="Shape" fill="#9CE0B8"></path>
                    <path d="M32.3584287,64.258002 L28.7654987,63.1258359 L28.7654987,50.0254043 L29.0848823,50.5445215 L21.5788268,37.7816777 L28.151362,35.8321582 L33.3487885,48.1857187 C33.4395962,48.401748 33.4783012,48.6361055 33.4616554,48.8699238 L32.3584287,64.258002 Z" id="Shape" fill="#FFBCAB"></path>
                    <polygon id="Shape" fill="#52A2E7" points="28.151362 35.8320234 21.5786915 37.781543 26.3354769 45.869502 30.9459683 42.4747559"></polygon>
                    <path d="M20.3433808,23.0590723 C20.3487941,23.0133867 19.8579448,27.1726582 19.8579448,27.1726582 L29.009773,28.5730078 L29.5169975,24.2844961 L20.3433808,23.0590723 Z" id="Shape" fill="#315591"></path>
                    <g id="Group" opacity="0.46" transform="translate(28.690389, 66.843750)" fill="#24763D">
                        <path d="M0.078763239,0.102960938 L0.078763239,1.13122266 L9.47107649,1.13122266 L9.47107649,0.459820313 C9.47107649,0.338261719 9.45849061,0.219128906 9.43643149,0.102960938 L0.078763239,0.102960938 L0.078763239,0.102960938 Z" id="Shape"></path>
                    </g>
                    <g id="Group" opacity="0.46" transform="translate(0.947324, 52.019531)" fill="#24763D">
                        <path d="M1.16534407,0.0128027344 L0.132760717,0.0128027344 L0.132760717,9.36580664 L0.80698487,9.36580664 C0.929054357,9.36580664 1.04868787,9.35327344 1.16534407,9.33130664 L1.16534407,0.0128027344 Z" id="Shape"></path>
                    </g>
                    <path d="M46.3513542,23.0862949 L44.4189482,19.9484121 C44.2729249,19.7112246 44.0362292,19.5433066 43.7632645,19.4833359 C43.4902998,19.4233652 43.2047492,19.4764629 42.9719781,19.6305 L36.9972045,23.5834453 L30.6828829,16.6194316 C30.3170804,16.1307715 29.7951048,15.7621875 29.1805621,15.5926523 L29.1805621,13.3334414 C30.6437719,12.6609609 31.6622808,11.1870293 31.6622808,9.47968359 L31.6622808,4.24269141 C31.6624161,1.90329492 29.7509866,0 27.4016226,0 L24.3026545,0 C21.9532906,0 20.0421317,1.90329492 20.0421317,4.24269141 L20.0421317,9.47941406 C20.0421317,11.2399922 21.1246526,12.7531406 22.661483,13.3944902 L22.661483,14.9267754 C22.6131695,14.9267754 22.565262,14.9244844 22.5166778,14.9267754 L13.1466943,15.3822832 C11.3327038,15.4655684 9.85474279,16.8285879 9.63171561,18.6298652 L8.62443934,27.2226562 C8.56015663,27.7706133 8.94314626,28.2711328 9.49083497,28.3546875 L13.1446643,28.9120781 C13.1964965,28.9200293 13.2487347,28.9238027 13.3005668,28.9238027 C13.5246767,28.9238027 13.7443205,28.8507598 13.9247181,28.7138379 C14.1470686,28.5451113 14.2907913,28.2936387 14.3230003,28.0170996 L15.1510969,20.9218242 L19.5760482,20.779377 L18.7313057,27.9377227 L18.289176,31.9926855 C17.1216666,33.2827969 16.4831701,34.9346191 16.4831701,36.684416 C16.4831701,38.0140137 16.8537092,39.2863359 17.5432258,40.3872363 L15.7726769,51.0171445 L6.08723452,51.0171445 C6.04189829,51.0109453 5.99615607,51.0071719 5.94973718,51.0071719 L1.0800849,51.0071719 C0.511690389,51.0071719 0.0507495097,51.4660488 0.0507495097,52.0321992 L0.0507495097,60.0186797 C0.0507495097,60.5846953 0.511555057,61.043707 1.0800849,61.043707 L3.20466237,61.043707 C3.64462679,61.043707 4.036007,60.7651465 4.17851163,60.3507422 L5.13030177,57.5814434 C5.31015803,57.7349414 5.54347044,57.8280645 5.79911264,57.8280645 L20.5720919,57.8280645 L20.6064662,57.8333203 C20.6580277,57.841002 20.7095892,57.8447754 20.7603388,57.8447754 C21.2360308,57.8447754 21.6592141,57.5158125 21.7645024,57.0400898 L24.4831874,44.7481172 L25.4483755,46.3891582 C25.4491874,46.3905059 25.4499994,46.3918535 25.4508114,46.3932012 L27.7362987,50.2794375 L27.7362987,63.1259707 L27.7362987,67.9749727 C27.7362987,68.5409883 28.1971042,69 28.7656341,69 L36.7856806,69 C37.3540751,69 37.815016,68.541123 37.815016,67.9749727 L37.815016,65.8592871 C37.815016,65.4211641 37.5352847,65.0314219 37.1191387,64.8895137 L34.218838,63.9010078 C34.4371286,63.7131445 34.5759793,63.4357969 34.5759793,63.1258359 L34.5759793,50.5443867 C34.5759793,50.5344141 34.5758439,50.5244414 34.5755733,50.5146035 L34.5162978,48.4844941 C34.5126439,48.358623 34.4855775,48.2343691 34.4367226,48.1182012 L29.2057338,35.6843203 L30.4870574,24.8515898 L34.0452071,28.684998 C34.7712634,29.4639434 35.7609465,29.8691836 36.7636215,29.8691836 C37.4668067,29.8691836 38.1763525,29.6695957 38.8052404,29.2599082 L46.0436091,24.4761328 C46.5048207,24.1708887 46.6411,23.556627 46.3513542,23.0862949 Z M24.7201538,13.722375 L27.122162,13.722375 L27.122162,15.3224473 L24.7201538,15.0380918 L24.7201538,13.722375 Z M24.3027899,2.04991992 L27.4017579,2.04991992 C27.8212872,2.04991992 28.2122614,2.16945703 28.5463962,2.37295312 C27.7403586,3.43355859 25.7455646,5.46137695 22.1008025,5.79047461 L22.1008025,4.24269141 C22.1006671,3.03370898 23.0884556,2.04991992 24.3027899,2.04991992 Z M22.1006671,7.84524609 C25.9361121,7.55967773 28.320527,5.71972266 29.60361,4.31047852 L29.60361,9.47941406 C29.60361,10.5172441 28.8749823,11.3870215 27.9009978,11.6131582 L23.803144,11.6131582 C22.8291594,11.3870215 22.1005318,10.5172441 22.1005318,9.47941406 L22.1006671,7.84524609 L22.1006671,7.84524609 Z M14.1978182,18.9015527 C13.6882931,18.9179941 13.2674105,19.3032891 13.208541,19.807582 L12.4012855,26.7246973 L10.7842031,26.4780762 L11.6756352,18.8741953 C11.7745629,18.0744961 12.4332239,17.4672422 13.2442687,17.4300469 L22.6169588,16.9744043 C22.8426926,16.9641621 23.0559759,17.0411133 23.2212163,17.1928594 C23.3864567,17.3446055 23.4813245,17.5513359 23.4883617,17.7749121 C23.5029776,18.2308242 23.1421824,18.6139629 22.6842188,18.6286523 L14.1978182,18.9015527 Z M2.46913281,58.9936523 L2.10942029,58.9936523 L2.10942029,53.0572266 L4.5092631,53.0572266 L2.46913281,58.9936523 Z M19.9354901,55.7781445 L6.82844802,55.7781445 L6.82844802,53.0671992 L16.6452978,53.0671992 C17.148733,53.0671992 17.5784122,52.7045449 17.660694,52.2099551 L18.4801294,47.2906055 C18.9878952,47.2945137 19.6567061,47.2993652 20.3275469,47.3024648 C20.8832202,47.3051602 21.3407778,47.3074512 21.7198428,47.3074512 C21.7505632,47.3074512 21.7793889,47.3074512 21.809162,47.3073164 L19.9354901,55.7781445 Z M22.083074,46.068416 C22.0849686,46.0580391 22.0875399,46.0479316 22.0899759,46.0376895 L22.083074,46.068416 Z M24.974578,37.7605195 C24.4197167,37.6381523 23.8702687,37.9881387 23.7479286,38.5409473 L22.2629302,45.2551055 C21.4792225,45.2587441 20.1713738,45.2534883 18.8211662,45.2433809 L19.3708848,41.9424316 C19.6014906,41.9211387 19.8262771,41.822625 20.0028854,41.6468906 C20.4048215,41.2466367 20.4048215,40.5976055 20.0028854,40.1974863 C19.0605685,39.2591133 18.5418409,38.0117227 18.5418409,36.6848203 C18.5418409,35.357918 19.0607038,34.1105273 20.0028854,33.1721543 C20.1688025,33.0070664 20.2730081,32.7903633 20.2983152,32.5580273 L20.7768493,28.1684414 L21.6566428,20.7129375 L22.7506669,20.6776289 C24.3424421,20.626418 25.5962934,19.2950684 25.5458145,17.7098203 C25.5406719,17.5507969 25.5196954,17.3950078 25.4895164,17.2420488 L28.5048493,17.5420371 C28.7243578,17.5638691 28.9120633,17.6782852 29.0344035,17.8420254 C29.04523,17.858332 29.0559213,17.8746387 29.0678305,17.8904063 C29.153225,18.0251719 29.1969372,18.1874297 29.1816447,18.3576387 L27.1289286,35.7122168 C27.1286579,35.714373 27.1287932,35.7166641 27.1285226,35.7189551 C27.1258159,35.7429434 27.1247333,35.7673359 27.1235153,35.7917285 C27.1231093,35.8015664 27.122162,35.8114043 27.1220266,35.8212422 C27.121756,35.8433438 27.1231093,35.8655801 27.1243273,35.8876816 C27.1250039,35.8998105 27.1248686,35.9120742 27.1259512,35.9240684 C27.1274399,35.940375 27.1302819,35.9565469 27.1325825,35.9728535 C27.1350185,35.9906426 27.1369131,36.0084316 27.1404318,36.0258164 C27.1424618,36.0363281 27.1455744,36.0467051 27.1480104,36.0572168 C27.1532883,36.0802617 27.1584309,36.1033066 27.1651975,36.1256777 C27.1676335,36.1338984 27.1710168,36.1421191 27.1737235,36.1503398 C27.181708,36.1747324 27.1900986,36.1988555 27.1998425,36.2223047 C27.2006545,36.2241914 27.2010605,36.2260781 27.2018725,36.2280996 L29.6844032,42.1289473 L26.6444399,44.3672695 L25.1348112,41.8003887 L25.7581505,38.9820352 C25.8806259,38.4290918 25.52971,37.8822129 24.974578,37.7605195 Z M35.7560745,66.9500801 L29.7946988,66.9500801 L29.7946988,64.5602813 L35.7560745,66.591873 L35.7560745,66.9500801 Z M32.5170378,50.5592109 L32.5170378,62.1008086 L29.7946988,62.1008086 L29.7946988,51.2853281 C30.1326229,50.9647207 30.2189647,50.4447949 29.9727957,50.0263477 L27.6908271,46.1461758 L30.5034326,44.0752324 L32.4635817,48.7343496 L32.5170378,50.5592109 Z M37.67197,27.54825 C36.9949039,27.9896074 36.1040132,27.8811211 35.5551065,27.2921953 L30.8034637,22.1729883 L31.05058,20.0838516 L36.0640902,25.6131504 C36.4058036,25.9900898 36.9729801,26.0608418 37.397652,25.7799902 L43.2222071,21.9263672 L44.0775055,23.315127 L37.67197,27.54825 Z" id="Shape" fill="#000000"></path>
                </g>
            </g>
        </g>
    </g>
</svg>