<?xml version="1.0" encoding="UTF-8"?>
<svg width="78px" height="69px" viewBox="0 0 78 69" version="1.1" xmlns="http://www.w3.org/2000/svg" xmlns:xlink="http://www.w3.org/1999/xlink">
    <!-- Generator: Sketch 42 (36781) - http://www.bohemiancoding.com/sketch -->
    <title>sun-umbrella</title>
    <desc>Created with Sketch.</desc>
    <defs></defs>
    <g id="Activity-Finder" stroke="none" stroke-width="1" fill="none" fill-rule="evenodd">
        <g id="Artboard" transform="translate(-190.000000, -528.000000)" fill-rule="nonzero">
            <g id="sun-umbrella" transform="translate(190.000000, 528.000000)">
                <g id="Layer_1">
                    <path d="M38.8828477,58.6072566 L52.3777617,24.6792544 C52.9423477,23.2595642 54.5488125,22.567427 55.965457,23.1331659 C57.3822539,23.6989049 58.0729805,25.3086504 57.5083945,26.7281881 L44.6205703,59.1296416 L38.8828477,58.6072566 Z" id="Shape" fill="#90A4AE"></path>
                    <path d="M44.202082,29.1030929 C44.206582,29.0925929 44.211082,29.0820929 44.215582,29.0715929 C44.211082,29.0720929 44.206582,29.0730929 44.202582,29.0735929 L44.202082,29.1030929 Z" id="Shape" fill="#FFF9C5"></path>
                    <path d="M55.965457,23.1331659 C54.5486602,22.567427 52.9423477,23.2595642 52.3777617,24.6792544 L48.8439961,33.5634624 C49.7443477,33.7075686 50.6399766,33.9539535 51.5214375,34.3059757 C52.4030508,34.6581504 53.2255547,35.0962699 53.9756953,35.6096482 L57.5083945,26.7283407 C58.0731328,25.3086504 57.3822539,23.6992102 55.965457,23.1331659 Z" id="Shape" fill="#000000" opacity="0.1"></path>
                    <path d="M60.8520352,10.8482655 L50.6695312,11.9449381 L44.2022344,19.4925 L44.2033008,29.070219 L44.2078711,29.0683872 C44.2074141,29.0694558 44.206957,29.070677 44.2063477,29.0717456 C47.0306484,28.5461549 50.1753281,28.8220022 53.2193086,30.0375929 C56.2439414,31.2455509 58.7027695,33.1960221 60.3913477,35.5046217 L60.4209023,35.5586615 L65.7404414,30.2809248 L66.3338203,17.1113894 L60.8520352,10.8482655 Z" id="Shape" fill="#FFF9C5"></path>
                    <path d="M70.3026797,64.5736195 C66.5970703,58.6382456 54.0468398,54.2704845 39.1348242,54.2704845 C24.2232656,54.2704845 11.6734922,58.6380929 7.96742578,64.5730088 L10.0493555,64.5736195 L14.5674141,67.4769624 L19.3182539,67.9943097 L22.6664648,66.0558982 L27.9809766,64.1135177 L30.8330039,64.889615 L36.9002461,67.9941571 L40.9020117,67.3473584 L46.0657031,65.416885 L49.8092461,64.242969 L54.5855273,65.416885 L58.4582578,67.9943097 L64.6545352,67.2182124 L70.3026797,64.5736195 Z" id="Shape" fill="#FFCA28"></path>
                    <path d="M65.0891719,67.0147235 L70.3026797,64.5734668 C66.5970703,58.6382456 54.0468398,54.2703319 39.1348242,54.2703319 C35.7063281,54.2703319 32.4032109,54.5017566 29.3033203,54.9293429 C44.6860781,56.6972389 57.5521172,61.130031 65.0891719,67.0147235 Z" id="Shape" fill="#000000" opacity="0.1"></path>
                    <path d="M77.4706055,65.2109535 C73.8087187,62.7223739 69.0763125,62.7223739 65.4144258,65.2109535 C62.5343672,67.1681416 58.812457,67.1681416 55.9319414,65.2109535 C52.2700547,62.7223739 47.5376484,62.7223739 43.8757617,65.2109535 C40.9957031,67.1681416 37.2736406,67.1681416 34.3932773,65.2109535 C30.7313906,62.7223739 25.9989844,62.7223739 22.3370977,65.2109535 C19.4568867,67.1681416 15.7349766,67.1681416 12.8546133,65.2109535 C9.19272656,62.7223739 4.46032031,62.7223739 0.798433594,65.2109535 C0.274371094,65.5670973 0.137566406,66.2815221 0.492984375,66.8065022 C0.848402344,67.331635 1.56152344,67.4685664 2.08528125,67.1125752 C4.96533984,65.1553872 8.68740234,65.1552345 11.5677656,67.1125752 C15.2298047,69.6010022 19.9622109,69.6010022 23.6239453,67.1125752 C26.5040039,65.1553872 30.2260664,65.1552345 33.1064297,67.1125752 C36.7684687,69.6010022 41.500875,69.6010022 45.1626094,67.1125752 C48.042668,65.1553872 51.7647305,65.1552345 54.6450937,67.1125752 C56.4761133,68.3567124 58.5746484,68.9789336 60.6733359,68.9789336 C62.7720234,68.9789336 64.8704062,68.3567124 66.7014258,67.1125752 C69.5814844,65.1553872 73.3035469,65.1553872 76.1839102,67.1125752 C76.7079727,67.4688717 77.4207891,67.331635 77.776207,66.8065022 C78.1314727,66.2813695 77.9948203,65.5670973 77.4706055,65.2109535 Z" id="Shape" fill="#4FC3F7"></path>
                    <g id="Group" transform="translate(27.878906, 9.006637)" fill="#EF495B">
                        <path d="M16.3243945,20.0635819 C14.6349023,17.7357478 12.1629727,15.7683319 9.11914453,14.5525885 C6.07379297,13.3362345 2.9274375,13.0608451 0.102222656,13.5873518 C0.102222656,13.5873518 13.8110273,-5.81141814 32.9732813,1.84162832 C32.9732813,1.84162832 22.9242305,4.53491814 16.3234805,20.0747257 L16.3243945,20.0635819 Z" id="Shape"></path>
                        <path d="M32.5488516,26.5431704 C35.3731523,26.017885 38.517832,26.2937323 41.5618125,27.509323 C44.6071641,28.725677 47.0800078,30.6943142 48.7693477,33.0238274 C48.7693477,33.0238274 52.1353828,9.49436947 32.9729766,1.84132301 C32.9729766,1.84132301 38.4181992,10.7226305 32.5419961,26.5518717 L32.5488516,26.5431704 Z" id="Shape"></path>
                    </g>
                    <ellipse id="Oval" fill="#FFCA28" cx="13.0723125" cy="13.0941239" rx="6.24563672" ry="6.25839159"></ellipse>
                    <path d="M5.65408594,13.0935133 C5.65408594,17.1779469 8.97015234,20.5006327 13.0461094,20.5006327 C17.1222187,20.5006327 20.4382852,17.1777942 20.4382852,13.0935133 C20.4382852,9.0092323 17.1222187,5.68639381 13.0461094,5.68639381 C8.97030469,5.68639381 5.65408594,9.0092323 5.65408594,13.0935133 Z M13.0462617,7.98400221 C15.8580703,7.98400221 18.1455117,10.276115 18.1455117,13.0935133 C18.1455117,15.9109115 15.857918,18.2030243 13.0462617,18.2030243 C10.2346055,18.2030243 7.94701172,15.9110642 7.94701172,13.0935133 C7.94701172,10.2759624 10.2344531,7.98400221 13.0462617,7.98400221 Z" id="Shape" fill="#000000"></path>
                    <path d="M14.1926484,3.48022566 L14.1926484,1.16933628 C14.1926484,0.534902655 13.6795547,0.0206084071 13.0462617,0.0206084071 C12.4129688,0.0206084071 11.899875,0.534902655 11.899875,1.16933628 L11.899875,3.48022566 C11.899875,4.11465929 12.4129688,4.62895354 13.0462617,4.62895354 C13.6795547,4.62895354 14.1926484,4.11465929 14.1926484,3.48022566 Z" id="Shape" fill="#000000"></path>
                    <path d="M20.650043,3.84949779 L19.0193555,5.48351549 C18.5716172,5.93216814 18.5716172,6.65956858 19.0193555,7.10806858 C19.2433008,7.33247124 19.5365625,7.44451991 19.8301289,7.44451991 C20.1233906,7.44451991 20.416957,7.33247124 20.6409023,7.10822124 L22.2715898,5.47420354 C22.7193281,5.02555088 22.7193281,4.29815044 22.2715898,3.84949779 C21.8236992,3.40099779 21.0979336,3.40084513 20.650043,3.84949779 Z" id="Shape" fill="#000000"></path>
                    <path d="M24.9461367,14.2422412 C25.5794297,14.2422412 26.0925234,13.7279469 26.0925234,13.0935133 C26.0925234,12.4590796 25.5794297,11.9447854 24.9461367,11.9447854 L22.6401094,11.9447854 C22.0068164,11.9447854 21.4937227,12.4590796 21.4937227,13.0935133 C21.4937227,13.7279469 22.0068164,14.2422412 22.6401094,14.2422412 L24.9461367,14.2422412 Z" id="Shape" fill="#000000"></path>
                    <path d="M19.0193555,19.078958 C18.5716172,19.5276106 18.5716172,20.2550111 19.0193555,20.7035111 L20.650043,22.3375288 C20.8739883,22.5617788 21.1674023,22.6739801 21.4608164,22.6739801 C21.7542305,22.6739801 22.0476445,22.5619314 22.2715898,22.3375288 C22.7193281,21.8888761 22.7193281,21.1614757 22.2715898,20.712823 L20.6409023,19.078958 C20.1928594,18.6303053 19.4670937,18.6303053 19.0193555,19.078958 Z" id="Shape" fill="#000000"></path>
                    <path d="M11.899875,22.7069535 L11.899875,25.0178429 C11.899875,25.6522765 12.4129688,26.1665708 13.0462617,26.1665708 C13.6795547,26.1665708 14.1926484,25.6522765 14.1926484,25.0178429 L14.1926484,22.7069535 C14.1926484,22.0725199 13.6795547,21.5582257 13.0462617,21.5582257 C12.4129688,21.5582257 11.899875,22.0725199 11.899875,22.7069535 Z" id="Shape" fill="#000000"></path>
                    <path d="M3.82108594,22.3375288 C4.04503125,22.5617788 4.33829297,22.6739801 4.63185937,22.6739801 C4.92512109,22.6739801 5.2186875,22.5619314 5.44263281,22.3375288 L7.07332031,20.7035111 C7.52105859,20.2548584 7.52105859,19.527458 7.07332031,19.078958 C6.62558203,18.6303053 5.89981641,18.6303053 5.45192578,19.078958 L3.82123828,20.712823 C3.37334766,21.1614757 3.37334766,21.8888761 3.82108594,22.3375288 Z" id="Shape" fill="#000000"></path>
                    <path d="M1.14638672,14.2422412 L3.45241406,14.2422412 C4.08570703,14.2422412 4.59880078,13.7279469 4.59880078,13.0935133 C4.59880078,12.4590796 4.08570703,11.9447854 3.45241406,11.9447854 L1.14638672,11.9447854 C0.51309375,11.9447854 0,12.4590796 0,13.0935133 C0,13.7279469 0.51309375,14.2422412 1.14638672,14.2422412 Z" id="Shape" fill="#000000"></path>
                    <path d="M5.44248047,3.84949779 C4.99458984,3.40084513 4.26882422,3.40084513 3.82108594,3.84949779 C3.37334766,4.29815044 3.37334766,5.02555088 3.82108594,5.47420354 L5.45177344,7.10822124 C5.67571875,7.33247124 5.96913281,7.44451991 6.26254688,7.44451991 C6.55580859,7.44451991 6.849375,7.33247124 7.07332031,7.10806858 C7.52105859,6.65941593 7.52105859,5.93201549 7.07332031,5.48351549 L5.44248047,3.84949779 Z" id="Shape" fill="#000000"></path>
                    <path d="M59.4273164,36.1662279 C59.7195117,36.5646571 60.1702969,36.7901283 60.6675469,36.6687677 C63.380332,36.1758451 66.2570391,36.4916881 68.9897813,37.5830177 C71.7430898,38.6825907 74.061457,40.4539978 75.6942773,42.7056571 C75.9131953,43.0074558 76.260082,43.1790398 76.6215938,43.1790398 C76.7133047,43.1790398 76.8059297,43.1680487 76.8976406,43.1451504 C77.3507109,43.0326438 77.6904375,42.6558916 77.7565547,42.1928894 C77.7998203,41.8889535 78.7923398,34.6578451 76.4276602,26.7800907 C76.245457,26.1725243 75.6046992,25.8282876 74.9997422,26.0108628 C74.3934141,26.1935907 74.0497266,26.8342832 74.2322344,27.4416969 C75.6124688,32.0402721 75.7631367,36.4866504 75.6784336,39.1990221 C74.0422617,37.6123274 72.0619453,36.3364381 69.838793,35.4485973 C67.3114102,34.4392434 64.6671797,34.0101305 62.0931797,34.1815619 C62.1126797,34.1221792 62.1303516,34.0641704 62.1495469,34.0050929 C63.0453281,31.2628009 63.7133555,28.4367013 64.0419609,25.5678584 C64.3425352,22.9426527 64.3705664,20.290885 64.0407422,17.6670531 C63.8497031,16.1475265 63.5246016,14.6446394 63.058125,13.1858695 C63.0547734,13.1753363 63.0514219,13.1640398 63.047918,13.1535066 C67.1613516,15.3866947 70.3235508,18.677323 72.4697695,22.9667721 C72.7534336,23.533885 73.442332,23.7630199 74.0082891,23.4787765 C74.5742461,23.1945332 74.8029141,22.5042279 74.51925,21.9369624 C71.6743828,16.2511792 67.2107109,12.1614027 61.2484336,9.77983407 C53.0480742,6.50523451 44.513168,7.58236726 36.567832,12.8949093 C30.6369375,16.8604248 27.1638047,21.7243142 27.0187734,21.9293296 C26.7489727,22.3109668 26.7372422,22.8185442 26.9887617,23.2122412 C27.2402812,23.6060907 27.7043203,23.8080531 28.1639414,23.7224137 C30.8950078,23.213615 33.7938047,23.5257942 36.5469609,24.6253673 C39.2602031,25.7090642 41.5513008,27.4450553 43.1801602,29.6503075 C43.4970352,30.0792677 43.9592461,30.3430553 44.5017422,30.1815465 C45.9576914,29.9229491 47.4599531,29.8973031 48.9614531,30.0985022 L39.8020898,53.1272522 C39.5709844,53.1252677 39.3406406,53.121146 39.1087734,53.121146 C33.8248828,53.121146 28.7751445,53.6485686 24.0998672,54.6887588 C23.4818086,54.8263009 23.0919609,55.4398208 23.229375,56.0592942 C23.3666367,56.678615 23.9778398,57.0694115 24.5969648,56.9317168 C29.045707,55.9419027 34.0639102,55.4187544 39.1087734,55.4187544 C41.4999609,55.4187544 43.8926719,55.532635 46.2722813,55.7695553 C46.2808125,55.7703186 46.2891914,55.7701659 46.297875,55.7707765 C50.7230039,56.2104226 54.8702578,57.0565885 58.5309258,58.2851549 C62.9010586,59.7517102 66.2750156,61.6843208 68.2551797,63.8262212 C67.2561094,64.1371792 66.289793,64.5981969 65.388375,65.2106482 C62.5083164,67.1678363 58.7864063,67.1678363 55.9061953,65.2106482 C52.2440039,62.7219159 47.5115977,62.7220686 43.8498633,65.2106482 C40.9698047,67.1678363 37.2478945,67.1678363 34.3676836,65.2106482 C30.7056445,62.7219159 25.9732383,62.7220686 22.3113516,65.2106482 C19.431293,67.1678363 15.7093828,67.1678363 12.8291719,65.2106482 C11.9279063,64.5981969 10.9615898,64.1370265 9.96251953,63.8262212 C11.9399414,61.6873739 15.307957,59.7569004 19.6694063,58.2911084 C20.2696406,58.0894513 20.5930664,57.4382257 20.3918203,56.8366128 C20.1905742,56.2351527 19.5409805,55.9109137 18.9404414,56.1127235 C13.4618555,57.9537412 9.48476953,60.4504115 7.37557031,63.3615398 C5.08782422,63.2375841 2.77113281,63.8529358 0.772992188,65.2106482 C0.248929688,65.566792 0.112277344,66.2810642 0.467695313,66.8061969 C0.822960938,67.3313296 1.53532031,67.4684137 2.05999219,67.1122699 C3.76167188,65.9559093 5.757375,65.4831372 7.69960547,65.6933429 C7.76953125,65.7084558 7.83976172,65.718073 7.91044922,65.7197522 C9.18221484,65.890115 10.4256445,66.3534226 11.5424766,67.1124226 C15.2042109,69.6008496 19.9364648,69.6011549 23.5986563,67.1124226 C26.4790195,65.1550819 30.201082,65.1552345 33.0809883,67.1124226 C36.742875,69.6008496 41.4751289,69.6011549 45.137168,67.1124226 C48.0173789,65.1550819 51.7394414,65.1552345 54.6195,67.1124226 C56.4505195,68.3567124 58.5490547,68.9789336 60.6477422,68.9789336 C62.7464297,68.9789336 64.8448125,68.3567124 66.6759844,67.1124226 C67.7902266,66.3552544 69.0306094,65.8922522 70.2994805,65.7209735 C70.3745859,65.7195996 70.4493867,65.7093717 70.5237305,65.692885 C72.4644375,65.4840531 74.4581602,65.9568252 76.1583164,67.1122699 C76.6825313,67.4684137 77.3953477,67.3314823 77.7506133,66.8061969 C78.1060313,66.2810642 77.9693789,65.566792 77.4453164,65.2106482 C75.4471758,63.8526305 73.130332,63.2375841 70.8427383,63.3615398 C68.7311016,60.4469004 64.7477695,57.9482456 59.2597383,56.1066173 C55.8531797,54.9635376 52.0514414,54.1384381 48.0091523,53.6485686 L56.2227656,32.998792 C57.461625,33.8960973 58.5432656,34.961323 59.4273164,36.1662279 Z M46.0573242,27.6920509 C46.0695117,27.6660996 46.0821563,27.6404535 46.0944961,27.6145022 C47.1622734,25.3744447 48.4081406,23.2091881 49.8613477,21.1968916 C50.2166133,20.7050376 50.1148477,19.962677 49.6048008,19.5927942 C49.105875,19.2308496 48.3641133,19.3509889 48.0038203,19.8500177 C46.8370195,21.4655642 45.8003203,23.1754513 44.869957,24.9378518 C44.5338867,25.5747279 44.1924844,26.2192367 43.90425,26.8797743 C43.8992227,26.8904602 43.8938906,26.9009934 43.8888633,26.9118319 C42.1375195,25.0126527 39.9241172,23.5015221 37.3959727,22.4921681 C35.1722109,21.6040221 32.8578047,21.1654447 30.580875,21.1892588 C32.1114727,19.4644115 34.6257539,16.9465221 37.898707,14.7681372 C41.1439336,12.6080708 44.493668,11.1979978 47.8543711,10.5771504 C51.1058438,9.97660619 54.3867188,10.1175066 57.6423047,10.9938982 C57.6292031,11.001073 57.6151875,11.0090111 57.6020859,11.0161858 C55.8408398,11.984781 54.2078672,13.1800686 52.7252578,14.536865 C52.1469609,15.0661195 51.582832,15.6101814 51.0423164,16.1779049 C50.6053945,16.6370907 50.6226094,17.3643385 51.0808594,17.8021527 C51.5391094,18.2399668 52.2647227,18.2227168 52.7017969,17.763531 C54.1713047,16.218969 55.8306328,14.8064535 57.642,13.6644425 C58.4768437,13.1379358 59.34825,12.6622633 60.2581992,12.2787942 C60.4972266,12.8220929 60.8081602,13.6264314 61.1000508,14.6799027 C62.482418,19.6700376 62.1088711,25.0550907 60.8971289,30.0382035 C60.6364687,31.1098407 60.3352852,32.1721659 59.9937305,33.2205996 C59.9902266,33.2314381 59.986418,33.2425819 59.9829141,33.253573 C58.4229141,31.5997102 56.5071914,30.2493252 54.3382734,29.2773717 C54.3085664,29.2640907 54.2788594,29.2508097 54.2491523,29.2376814 C51.6841406,28.1031504 48.8612109,27.5369535 46.0573242,27.6920509 Z M54.238793,31.7795376 L45.6385313,53.4017257 C45.1070039,53.3556239 44.5718203,53.3162389 44.0335898,53.2814336 C43.4386875,53.2405221 42.8427188,53.2104491 42.2469023,53.186177 L51.2382305,30.5811969 C51.7824023,30.7373628 52.318043,30.9231438 52.8425625,31.135792 C52.9275703,31.1704447 54.2412305,31.7734314 54.238793,31.7795376 Z" id="Shape" fill="#000000"></path>
                </g>
            </g>
        </g>
    </g>
</svg>