<?xml version="1.0" encoding="UTF-8"?>
<svg width="73px" height="69px" viewBox="0 0 73 69" version="1.1" xmlns="http://www.w3.org/2000/svg" xmlns:xlink="http://www.w3.org/1999/xlink">
    <!-- Generator: Sketch 42 (36781) - http://www.bohemiancoding.com/sketch -->
    <title>terrace (1)</title>
    <desc>Created with Sketch.</desc>
    <defs></defs>
    <g id="Activity-Finder" stroke="none" stroke-width="1" fill="none" fill-rule="evenodd">
        <g id="Artboard" transform="translate(-67.000000, -528.000000)" fill-rule="nonzero">
            <g id="terrace-(1)" transform="translate(67.000000, 528.000000)">
                <g id="Layer_1">
                    <g id="Group" transform="translate(5.082589, 37.304878)" fill="#FFD248">
                        <polygon id="Shape" points="18.5209554 20.6416585 4.50628013 20.6416585 3.03105859 20.6416585 0.0806155134 20.6416585 0.0806155134 16.2454329 0.0806155134 0.125939024 4.50628013 0.125939024 4.50628013 16.2454329 18.5209554 16.2454329"></polygon>
                        <polygon id="Shape" points="58.3517958 20.6416585 44.3372617 20.6416585 44.3372617 16.2454329 58.3517958 16.2454329 58.3517958 0.125939024 62.7774604 0.125939024 62.7774604 16.2454329 62.7774604 20.6416585 59.8270173 20.6416585"></polygon>
                    </g>
                    <g id="Group" transform="translate(20.612723, 43.195122)" fill="#939598">
                        <path d="M13.3173722,4.49355488 L1.51559989,4.49355488 C0.704503348,4.49355488 0.0403783482,3.83384756 0.0403783482,3.02814634 L0.0403783482,0.0973292683 L13.3173722,0.0973292683 L17.7430368,0.0973292683 L31.0200307,0.0973292683 L31.0200307,3.02814634 C31.0200307,3.83384756 30.3559057,4.49355488 29.5448092,4.49355488 L17.7430368,4.49355488 L13.3173722,4.49355488 Z" id="Shape"></path>
                        <polygon id="Shape" points="22.1685603 19.8802744 22.1685603 24.2765 8.89170759 24.2765 8.89170759 19.8802744 13.3173722 19.8802744 17.7428956 19.8802744"></polygon>
                    </g>
                    <g id="Group" transform="translate(33.742746, 23.420732)" fill="#E6E7E8">
                        <rect id="Rectangle-path" x="0.187349888" y="24.2679451" width="4.42566462" height="15.3867195"></rect>
                        <path d="M4.70083036,0.323542683 L4.61287333,0.82154878 L4.61287333,19.8718598 L0.187208705,19.8718598 L0.187208705,0.821408537 L0.0985457589,0.323402439 C0.836227121,0.161560976 1.60327455,0.0886341463 2.39997042,0.0886341463 C3.19680748,0.0887743902 3.96329018,0.16170122 4.70083036,0.323542683 Z" id="Shape"></path>
                    </g>
                    <path d="M36.1428571,1.52837805 C24.3410848,7.3900122 26.5539877,29.3711402 26.5539877,29.3711402 C26.5539877,29.3711402 22.8660045,23.5095061 16.9651183,23.5095061 C12.9817801,23.5095061 9.55950335,25.9280122 8.11378906,29.3711402 C8.11364788,13.9987256 20.6675022,1.52837805 36.1428571,1.52837805 Z" id="Shape" fill="#FFD248"></path>
                    <path d="M36.1428571,1.52837805 C47.9446295,7.3900122 45.7317266,29.3711402 45.7317266,29.3711402 C44.5518599,26.5434024 41.8218036,24.4025793 38.4435759,23.7442744 C37.7058945,23.5824329 36.9394118,23.5095061 36.1428571,23.5095061 C35.3463025,23.5095061 34.5789727,23.5824329 33.8414325,23.7442744 C30.4632048,24.4025793 27.7338544,26.5435427 26.5539877,29.3711402 C26.5539877,29.3711402 24.3410848,7.3900122 36.1428571,1.52837805 Z" id="Shape" fill="#F4661E"></path>
                    <path d="M45.7317266,29.3711402 C45.7317266,29.3711402 47.9444883,7.3900122 36.1428571,1.52837805 C51.6182121,1.52837805 64.1720664,13.9987256 64.1720664,29.3711402 C62.7256462,25.9280122 59.3040753,23.5095061 55.3207372,23.5095061 C49.419851,23.5095061 45.7317266,29.3711402 45.7317266,29.3711402 Z" id="Shape" fill="#31C0D8"></path>
                    <path d="M66.3848281,66.0062134 L66.3848281,59.4119451 L67.8600497,59.4119451 C68.674817,59.4119451 69.3352712,58.7557439 69.3352712,57.9465366 L69.3352712,37.4308171 C69.3352712,36.6216098 68.674817,35.9654085 67.8600497,35.9654085 L63.434385,35.9654085 C62.6196177,35.9654085 61.9591635,36.6216098 61.9591635,37.4308171 L61.9591635,52.0849024 L49.419851,52.0849024 C48.6050837,52.0849024 47.9446295,52.7411037 47.9446295,53.550311 L47.9446295,57.9465366 L47.9446295,66.0062134 L44.2566462,66.0062134 L44.2566462,63.0753963 C44.2566462,62.266189 43.596192,61.6099878 42.7814247,61.6099878 L39.8309816,61.6099878 L39.8309816,49.1540854 L50.1575324,49.1540854 C51.7843845,49.1540854 53.1079754,47.8392988 53.1079754,46.2232683 L53.1079754,43.2924512 C53.1079754,42.4832439 52.4475212,41.8270427 51.6327539,41.8270427 L39.8309816,41.8270427 L39.8309816,25.669122 C41.9244436,26.4901098 43.5658376,28.0069878 44.3690279,29.9321159 C44.5799554,30.4378354 45.0581423,30.7831159 45.6072031,30.8295366 C46.1556992,30.8760976 46.6866886,30.6134207 46.9809141,30.1506159 C47.0138097,30.0988659 50.3297757,24.9747744 55.3207372,24.9747744 C58.6046546,24.9747744 61.5446501,26.9219207 62.8107796,29.9353415 C63.0434492,30.4891646 63.5860156,30.8365488 64.1715017,30.8365488 C64.267365,30.8365488 64.3647813,30.8271524 64.461774,30.807939 C65.1511708,30.6706402 65.6472879,30.0694146 65.6472879,29.371 C65.6472879,13.2105549 52.4116607,0.0628292683 36.1428571,0.0628292683 C19.8740536,0.0628292683 6.63842634,13.2105549 6.63842634,29.3711402 C6.63842634,30.0696951 7.13468471,30.6709207 7.82408147,30.8080793 C8.51361942,30.9456585 9.2045692,30.5799024 9.47507589,29.9353415 C10.7403583,26.922061 13.6802126,24.9749146 16.9649771,24.9749146 C21.9557974,24.9749146 25.2719046,30.0990061 25.3029648,30.147811 C25.5956373,30.6132805 26.1236618,30.8758171 26.676111,30.8315 C27.2265837,30.786061 27.7053354,30.4390976 27.9168276,29.9321159 C28.7200179,28.0067073 30.361553,26.4895488 32.4548739,25.6688415 L32.4548739,41.8270427 L20.6531016,41.8270427 C19.8383343,41.8270427 19.17788,42.4832439 19.17788,43.2924512 L19.17788,46.2232683 C19.17788,47.8392988 20.501471,49.1540854 22.1283231,49.1540854 L32.4548739,49.1540854 L32.4548739,61.6099878 L29.5044308,61.6099878 C28.6896635,61.6099878 28.0292093,62.266189 28.0292093,63.0753963 L28.0292093,66.0062134 L25.0787662,66.0062134 L25.0787662,57.9465366 L25.0787662,53.550311 C25.0787662,52.7411037 24.4183119,52.0849024 23.6035446,52.0849024 L11.064091,52.0849024 L11.064091,37.4308171 C11.064091,36.6216098 10.4036367,35.9654085 9.58886942,35.9654085 L5.1632048,35.9654085 C4.3484375,35.9654085 3.68798326,36.6216098 3.68798326,37.4308171 L3.68798326,57.9465366 C3.68798326,58.7557439 4.3484375,59.4119451 5.1632048,59.4119451 L6.63842634,59.4119451 L6.63842634,66.0062134 L0,66.0062134 L0,68.9370305 L72.2857143,68.9370305 L72.2857143,66.0062134 L66.3848281,66.0062134 L66.3848281,66.0062134 Z M50.8950725,55.0157195 L63.434385,55.0157195 C64.2491523,55.0157195 64.9096066,54.3595183 64.9096066,53.550311 L64.9096066,38.8962256 L66.3848281,38.8962256 L66.3848281,56.481128 L50.8950725,56.481128 L50.8950725,55.0157195 Z M50.8950725,59.4119451 L63.434385,59.4119451 L63.434385,66.0062134 L50.8950725,66.0062134 L50.8950725,59.4119451 Z M62.2327762,24.4467561 C60.3133929,22.9210427 57.8946451,22.0440976 55.320596,22.0440976 C51.9394035,22.0440976 49.2360307,23.6723293 47.3735441,25.3064512 C47.3760854,23.161561 47.2594682,20.3873963 46.8223655,17.4347012 C46.264269,13.6645244 45.2943415,10.3881463 43.9394079,7.69644512 C43.1181462,6.06456707 42.1521719,4.64768293 41.0522148,3.44705488 C51.7495123,5.44146341 60.2062349,13.8272073 62.2327762,24.4467561 Z M16.9649771,22.0440976 C14.390928,22.0440976 11.9721802,22.9207622 10.0529381,24.4463354 C12.0796205,13.8267866 20.536202,5.44146341 31.2334994,3.44705488 C30.1335424,4.64768293 29.1677093,6.06456707 28.3463064,7.69644512 C26.9913728,10.3881463 26.0213041,13.6646646 25.4633488,17.4347012 C25.0262461,20.3872561 24.9096289,23.1617012 24.9121702,25.3064512 C23.0495424,23.6723293 20.3461696,22.0440976 16.9649771,22.0440976 Z M27.8689665,25.0812195 C27.8871791,18.8622439 28.9507109,7.40095122 36.1428571,3.19882317 C43.3222969,7.39562195 44.391476,18.8576159 44.4139241,25.0788354 C42.881947,23.7113171 40.931221,22.7387256 38.7442958,22.3097195 C37.9234576,22.1310488 37.0722651,22.0442378 36.142716,22.0442378 C35.2257321,22.0442378 34.3503973,22.1334329 33.5405714,22.3095793 C31.3526579,22.7388659 29.4010848,23.7122988 27.8689665,25.0812195 Z M35.4051758,25.0026829 C35.6441987,24.9861341 35.8875982,24.9747744 36.142716,24.9747744 C36.3978337,24.9747744 36.6413744,24.9859939 36.8803973,25.0026829 L36.8803973,41.8270427 L35.4051758,41.8270427 L35.4051758,25.0026829 L35.4051758,25.0026829 Z M22.1283231,44.7578598 L50.1576735,44.7578598 L50.1576735,46.2232683 L22.1283231,46.2232683 L22.1283231,44.7578598 Z M35.4051758,49.1540854 L36.8803973,49.1540854 L36.8803973,61.6099878 L35.4051758,61.6099878 L35.4051758,49.1540854 L35.4051758,49.1540854 Z M30.9796523,64.5408049 L41.3062031,64.5408049 L41.3062031,66.0062134 L30.9796523,66.0062134 L30.9796523,64.5408049 Z M6.63842634,38.8962256 L8.11364788,38.8962256 L8.11364788,53.550311 C8.11364788,54.3595183 8.77410212,55.0157195 9.58886942,55.0157195 L22.1281819,55.0157195 L22.1281819,56.481128 L6.63842634,56.481128 L6.63842634,38.8962256 Z M9.58886942,59.4119451 L22.1281819,59.4119451 L22.1281819,66.0062134 L9.58886942,66.0062134 L9.58886942,59.4119451 Z" id="Shape" fill="#231F20"></path>
                </g>
            </g>
        </g>
    </g>
</svg>