<?xml version="1.0" encoding="iso-8859-1"?>
<!-- Generator: Adobe Illustrator 19.0.0, SVG Export Plug-In . SVG Version: 6.00 Build 0)  -->
<svg version="1.1" id="Layer_1" xmlns="http://www.w3.org/2000/svg" xmlns:xlink="http://www.w3.org/1999/xlink" x="0px" y="0px"
	 viewBox="0 0 511.908 511.908" style="enable-background:new 0 0 511.908 511.908;" xml:space="preserve">
<path style="fill:#ACB3BA;" d="M340.291,154.337c-1.067,0-2.133,0-2.133,1.067c0,0-18.133,8.533-65.067-2.133l0,0
	c1.067-6.4,6.4-11.733,13.867-11.733h33.067c58.667-8.533,57.6-41.6,57.6-41.6C379.758,124.471,364.824,149.004,340.291,154.337z"/>
<path style="fill:#40596B;" d="M279.491,159.671c-7.467-2.133-17.067-6.4-25.6-8.533c0,0-30.933-2.133-45.867,14.933
	c1.067-36.267,24.533-33.067,24.533-33.067c14.933,1.067,23.467-14.933,23.467-14.933c9.6-9.6,17.067-4.267,21.333,4.267
	c5.333,9.6,6.4,21.333,3.2,32L279.491,159.671z"/>
<path style="fill:#FF7058;" d="M488.558,179.937c0,0-8.533-29.867-34.133-57.6c-7.467-8.533-14.933-18.133-21.333-27.733
	c-6.4-9.6-16-21.333-27.733-25.6c-9.6-3.2-19.2,3.2-19.2,12.8c0,3.2,0,6.4,1.067,11.733c2.133,11.733,1.067,24.533-4.267,36.267
	c-5.333,9.6-14.933,20.267-30.933,26.667c0,0-42.667,16-88.533,0c0,0-6.4-2.133-16-4.267c-18.133-3.2-37.333,5.333-46.933,21.333
	s-22.4,37.333-32,44.8c-4.267,3.2-8.533,7.467-12.8,11.733c-9.6,10.667-25.6,29.867-27.733,48c0,0-75.733,37.333-122.667,110.933
	c-4.267,6.4-9.6,16,4.267,27.733c5.333,4.267,11.733,6.4,19.2,6.4c14.933,0,49.067-4.267,109.867-32
	c0,0,90.667-42.667,136.533-72.533c0,0,67.2-49.067,134.4-82.133S488.558,179.937,488.558,179.937z"/>
<path style="fill:#F2F2F2;" d="M3.224,411.404L3.224,411.404c1.067,2.133,3.2,4.267,6.4,6.4c5.333,4.267,11.733,6.4,19.2,6.4
	c14.933,0,49.067-4.267,109.867-32c0,0,90.667-42.667,136.533-72.533c0,0,67.2-49.067,134.4-82.133s78.933-57.6,78.933-57.6
	s21.333,14.933,22.4,37.333c0,0,14.933,32-73.6,78.933c0,0-268.8,135.467-360.533,148.267
	C76.824,443.404,14.958,458.337,3.224,411.404z"/>
<path style="fill:#CDD6E0;" d="M116.291,285.537c2.133,3.2,2.133,4.267,5.333,4.267c2.133,0,5.333,0,7.467-1.067
	c4.267-2.133,6.4-5.333,7.467-9.6c2.133-10.667,10.667-25.6,24.533-41.6c3.2-4.267,7.467-7.467,10.667-9.6
	c3.2-2.133,13.867-9.6,36.267-49.067c2.133-3.2,4.267-6.4,6.4-9.6c11.733-12.8,29.867-17.067,46.933-13.867c1.067,0,1.067,0,1.067,0
	c45.867,16,88.533,0,88.533,0c16-6.4,25.6-17.067,30.933-26.667c5.333-10.667,6.4-23.467,4.267-36.267
	c-1.067-4.267-1.067-8.533-1.067-11.733c0-9.6,9.6-16,19.2-12.8c0,0-24.533-9.6-29.867,13.867c0,0-1.067,7.467,0,16
	c4.267,25.6-10.667,49.067-36.267,55.467c-1.067,0-2.133,0-2.133,1.067c0,0-20.267,9.6-74.667-5.333c-6.4-2.133-12.8-3.2-19.2-4.267
	h-1.067c-14.933-2.133-28.8,5.333-34.133,19.2l-3.2,4.267l0,0c-1.067,2.133-2.133,3.2-3.2,5.333
	c-9.6,17.067-23.467,39.467-33.067,45.867c-2.133,1.067-5.333,3.2-6.4,5.333c-8.533,9.6-28.8,32-33.067,53.333
	C126.958,279.137,122.691,281.271,116.291,285.537z"/>
<g>
	<path style="fill:#40596B;" d="M378.691,253.537c7.467-88.533,65.067-144,65.067-144l0,0c3.2,4.267,7.467,8.533,10.667,12.8
		c25.6,27.733,34.133,57.6,34.133,57.6s-11.733,24.533-78.933,57.6C398.958,242.871,389.358,248.204,378.691,253.537z"/>
	<path style="fill:#40596B;" d="M4.291,390.071c46.933-73.6,122.667-110.933,122.667-110.933c0-2.133,2.133,22.4,101.333,68.267
		c-43.733,23.467-90.667,45.867-90.667,45.867c-60.8,26.667-94.933,30.933-109.867,32c-6.4,0-13.867-2.133-19.2-6.4
		C-5.309,406.071,1.091,396.471,4.291,390.071z"/>
	<path style="fill:#40596B;" d="M192.024,172.471c0-2.133,2.133-4.267,4.267-4.267l27.733,1.067c2.133,0,4.267,2.133,4.267,4.267
		c0,2.133-1.067,3.2-2.133,4.267c-1.067,0-1.067,0-2.133,0l-27.733-1.067C194.158,176.737,192.024,174.604,192.024,172.471z"/>
	<path style="fill:#40596B;" d="M174.958,202.337h27.733c2.133,0,4.267,2.133,4.267,4.267c0,2.133-1.067,3.2-2.133,4.267
		c-1.067,0-1.067,0-2.133,0h-27.733c-2.133,0-4.267-2.133-4.267-4.267C170.691,204.471,172.824,202.337,174.958,202.337z"/>
	<path style="fill:#40596B;" d="M151.491,231.137l24.533,2.133c2.133,0,4.267,2.133,4.267,4.267c0,2.133-1.067,3.2-2.133,3.2
		s-1.067,0-2.133,0l-24.533-2.133c-2.133,0-4.267-2.133-4.267-4.267C147.224,232.204,149.358,231.137,151.491,231.137z"/>
	<path style="fill:#40596B;" d="M130.158,255.671c0-2.133,2.133-4.267,4.267-4.267s4.267,2.133,4.267,4.267c0,5.333,9.6,6.4,9.6,6.4
		c2.133,0,4.267,2.133,4.267,4.267s-1.067,3.2-2.133,3.2s-1.067,0-2.133,0C141.891,270.604,130.158,267.404,130.158,255.671z"/>
</g>
<g>
</g>
<g>
</g>
<g>
</g>
<g>
</g>
<g>
</g>
<g>
</g>
<g>
</g>
<g>
</g>
<g>
</g>
<g>
</g>
<g>
</g>
<g>
</g>
<g>
</g>
<g>
</g>
<g>
</g>
</svg>
