<?xml version="1.0" encoding="iso-8859-1"?>
<!-- Generator: Adobe Illustrator 19.0.0, SVG Export Plug-In . SVG Version: 6.00 Build 0)  -->
<svg version="1.1" id="Layer_1" xmlns="http://www.w3.org/2000/svg" xmlns:xlink="http://www.w3.org/1999/xlink" x="0px" y="0px"
	 viewBox="0 0 512.001 512.001" style="enable-background:new 0 0 512.001 512.001;" xml:space="preserve">
<path style="fill:#4A94CC;" d="M505.507,167.123l-134.17-98.819c-2.887-2.127-6.251-3.118-9.58-3.09
	c-0.127-0.004-0.25-0.02-0.377-0.02h-27.941h-6.786c0,39.022-31.631,70.654-70.653,70.654s-70.655-31.632-70.655-70.654h-6.786
	h-27.942c-0.126,0-0.249,0.016-0.374,0.02c-3.329-0.028-6.693,0.962-9.582,3.09L6.494,167.123
	c-7.097,5.226-8.61,15.212-3.385,22.309l39.948,54.237c5.225,7.095,15.212,8.61,22.307,3.386l70.884-52.208v237.588
	c0,7.937,6.434,14.37,14.369,14.37h27.942h154.88h27.941c7.938,0,14.37-6.434,14.37-14.37V194.846l70.884,52.208
	c7.097,5.225,17.084,3.709,22.309-3.386l39.947-54.237C514.117,182.336,512.601,172.349,505.507,167.123z"/>
<path style="fill:#50AAE2;" d="M505.507,167.123l-134.17-98.819c-2.887-2.127-6.251-3.118-9.58-3.09
	c-0.127-0.004-0.25-0.02-0.377-0.02h-27.941h-6.786c0,39.022-31.631,70.654-70.653,70.654s-70.655-31.632-70.655-70.654h-3.172
	c-11.898,29.177-18.468,61.091-18.468,94.545c0,125.293,91.945,229.106,212.044,247.656V194.846l70.884,52.208
	c7.097,5.225,17.084,3.709,22.309-3.386l39.947-54.237C514.117,182.336,512.601,172.349,505.507,167.123z"/>
<path style="fill:#F7AC16;" d="M256.001,228.057c10.939,0,19.806-8.87,19.806-19.806v-20.91h-39.615v20.91
	C236.192,219.187,245.06,228.057,256.001,228.057z"/>
<path style="fill:#F48B19;" d="M255.999,208.25v-20.91h-19.806v20.91c0,10.936,8.867,19.806,19.808,19.806
	c3.611,0,6.986-0.982,9.902-2.672C259.988,221.959,255.999,215.577,255.999,208.25z"/>
<g>
	<path style="fill:#6EDCF9;" d="M505.507,167.123l-134.17-98.819c-0.67-0.493-1.37-0.922-2.087-1.294l-8.571,11.632
		c-4.708,6.39-3.346,15.386,3.045,20.094L501.121,199.98l7.769-10.548C514.117,182.336,512.601,172.349,505.507,167.123z"/>
	<path style="fill:#6EDCF9;" d="M6.494,167.123l134.168-98.819c0.672-0.493,1.37-0.922,2.087-1.294l8.571,11.632
		c4.708,6.39,3.346,15.386-3.045,20.094L10.878,199.98L3.11,189.432C-2.115,182.336-0.602,172.349,6.494,167.123z"/>
</g>
<path style="fill:#3580AF;" d="M256.001,135.849c39.022,0,70.653-31.632,70.653-70.654H185.347
	C185.347,104.217,216.979,135.849,256.001,135.849z"/>
<path style="fill:#1E678C;" d="M214.508,65.196h-29.161c0,39.022,31.633,70.654,70.655,70.654c4.999,0,9.874-0.527,14.579-1.514
	C238.558,127.614,214.508,99.217,214.508,65.196z"/>
<g>
</g>
<g>
</g>
<g>
</g>
<g>
</g>
<g>
</g>
<g>
</g>
<g>
</g>
<g>
</g>
<g>
</g>
<g>
</g>
<g>
</g>
<g>
</g>
<g>
</g>
<g>
</g>
<g>
</g>
</svg>
