<?xml version="1.0" encoding="iso-8859-1"?>
<!-- Generator: Adobe Illustrator 19.0.0, SVG Export Plug-In . SVG Version: 6.00 Build 0)  -->
<svg version="1.1" id="Layer_1" xmlns="http://www.w3.org/2000/svg" xmlns:xlink="http://www.w3.org/1999/xlink" x="0px" y="0px"
	 viewBox="0 0 512 512" style="enable-background:new 0 0 512 512;" xml:space="preserve">
<g>
	<path style="fill:#FDD349;" d="M502.696,278.028l-59.858-128.267c-0.808-1.731-2.207-3.117-3.947-3.908l-94.063-42.756
		c-3.927-1.785-8.56-0.144-10.488,3.713l-8.551,17.102c-1.981,3.96-0.375,8.776,3.585,10.756l82.443,41.222l33.196,107.887
		c1.035,3.363,4.143,5.659,7.662,5.659h42.756C501.185,289.436,505.135,283.256,502.696,278.028z"/>
	<path style="fill:#FDD349;" d="M177.659,106.81c-1.928-3.856-6.564-5.496-10.488-3.713l-94.063,42.756
		c-1.739,0.791-3.139,2.177-3.947,3.908L9.302,278.027c-2.439,5.229,1.512,11.408,7.265,11.408h42.756
		c3.519,0,6.627-2.295,7.662-5.659l33.196-107.887l82.443-41.222c3.96-1.981,5.566-6.795,3.585-10.756L177.659,106.81z"/>
</g>
<g>
	<path style="fill:#FCAF27;" d="M479.837,229.043h-51.664l16.842,54.734c1.035,3.363,4.143,5.659,7.662,5.659h42.756
		c5.754,0,9.703-6.179,7.264-11.407L479.837,229.043z"/>
	<path style="fill:#FCAF27;" d="M32.163,229.043L9.304,278.028c-2.44,5.228,1.511,11.407,7.264,11.407h42.756
		c3.519,0,6.627-2.295,7.662-5.659l16.841-54.734H32.163z"/>
</g>
<path style="fill:#CED7D9;" d="M495.432,281.419c-34.205-17.102-119.715-42.756-222.328-8.552c-9.902,0-24.307,0-34.21,0
	c-102.612-34.204-188.122-8.55-222.327,8.552l-8.551,34.205c11.402,17.102,14.252,34.205,25.653,51.307
	c48.749,32.5,120.658,41.84,157.046,42.689c3.303,0.077,6.345-1.771,7.822-4.727l37.996-75.992c1.448-2.897,4.409-4.727,7.648-4.727
	h23.634c3.239,0,6.2,1.83,7.648,4.727l37.996,75.992c1.477,2.956,4.519,4.804,7.822,4.727
	c36.388-0.851,108.297-10.191,157.046-42.689c11.402-17.102,14.252-34.205,25.653-51.307L495.432,281.419z"/>
<g>
	<path style="fill:#6D888E;" d="M16.568,281.419l-8.551,34.205c11.402,17.102,14.252,34.205,25.653,51.307
		c4.14,2.76,8.463,5.332,12.902,7.763l117.462-117.462C95.87,251.247,42.016,268.694,16.568,281.419z"/>
	<path style="fill:#6D888E;" d="M238.895,272.867c-12.002-4.001-23.766-7.172-35.246-9.645L78.054,388.817
		c17.294,6.315,35.222,10.891,52.166,14.105l130.057-130.056C252.846,272.867,245.012,272.867,238.895,272.867z"/>
	<path style="fill:#6D888E;" d="M278.35,271.182L144.216,405.316c18.024,2.762,34.272,4.018,46.499,4.304
		c3.303,0.077,6.345-1.771,7.822-4.727l37.996-75.992c1.448-2.897,4.409-4.727,7.648-4.727h23.634c3.239,0,6.2,1.83,7.648,4.727
		l9.988,19.977l92.847-92.847C348.194,255.768,314.378,259.82,278.35,271.182z"/>
	<path style="fill:#6D888E;" d="M441.131,263.035l-132.4,132.398l4.73,9.46c1.477,2.956,4.519,4.804,7.822,4.727
		c11.133-0.261,25.598-1.322,41.7-3.591L490.122,278.89C478.136,273.44,461.472,267.499,441.131,263.035z"/>
	<path style="fill:#6D888E;" d="M499.138,296.24L395.254,400.124c28.595-6.505,58.724-16.96,83.076-33.193
		c11.402-17.102,14.252-34.205,25.653-51.307L499.138,296.24z"/>
</g>
<path style="fill:#FF5800;" d="M511.76,313.678l-8.551-34.205c-0.568-2.27-2.098-4.179-4.192-5.226
	c-17.002-8.501-107.62-48.78-227.208-9.398h-31.618c-119.59-39.381-210.206,0.897-227.208,9.398
	c-2.094,1.046-3.625,2.956-4.192,5.226l-8.551,34.205c-0.37,1.479-0.31,3.034,0.172,4.48c2.821,8.462,6.119,19.181,9.309,29.549
	c8.291,26.948,13.562,43.748,17.28,49.324c3.741,5.615,12.633,4.158,14.405-2.338l24.68-90.491
	c34.431-15.195,114.488-21.955,169.656,1.688c0.998,0.428,2.073,0.648,3.159,0.648h34.205c1.086,0,2.16-0.22,3.159-0.648
	c55.167-23.644,135.225-16.881,169.656-1.688l24.68,90.491c1.771,6.494,10.662,7.952,14.405,2.338
	c3.717-5.576,8.987-22.376,17.28-49.324c3.19-10.366,6.488-21.086,9.309-29.549C512.07,316.712,512.13,315.157,511.76,313.678z"/>
<g>
	<path style="fill:#3C6168;" d="M479.399,323.64h-1.069c-4.427,0-8.017-3.588-8.017-8.017c0-4.428,3.589-8.017,8.017-8.017h1.069
		c4.427,0,8.017,3.588,8.017,8.017C487.415,320.052,483.826,323.64,479.399,323.64z"/>
	<path style="fill:#3C6168;" d="M34.739,323.64H33.67c-4.427,0-8.017-3.588-8.017-8.017c0-4.428,3.589-8.017,8.017-8.017h1.069
		c4.427,0,8.017,3.588,8.017,8.017C42.756,320.052,39.166,323.64,34.739,323.64z"/>
</g>
<g>
</g>
<g>
</g>
<g>
</g>
<g>
</g>
<g>
</g>
<g>
</g>
<g>
</g>
<g>
</g>
<g>
</g>
<g>
</g>
<g>
</g>
<g>
</g>
<g>
</g>
<g>
</g>
<g>
</g>
</svg>
